<svg xmlns="http://www.w3.org/2000/svg" width="229.256" height="349.758" viewBox="0 0 229.256 349.758"><defs><style>.a,.e{fill:#2471a3;}.b{fill:none;stroke:#2471a3;stroke-miterlimit:10;}.c{fill:#2372ba;}.d{fill:#2073b7;}.e,.f,.i,.j,.k{fill-rule:evenodd;}.f{fill:#394d54;}.g{fill:#00aada;}.h{fill:#008bb8;}.i{fill:#00acd3;}.j{fill:#20c2ef;}.k{fill:#d4edf1;}.l{fill:#bfdbe0;}.m{fill:#0072c6;}.n,.p,.q,.r{fill:#fff;}.n{opacity:0.4;}.o{fill:#3999c6;}.p{opacity:0.25;}.r{opacity:0.6;}.s{fill:#7fba00;}.t{fill:#59b4d9;}.u{fill:#0096d4;}</style></defs><g transform="translate(-806 -802.5)"><g transform="translate(580.429 599.938)"><circle class="a" cx="7.189" cy="7.189" r="7.189" transform="translate(312.478 236.346)"/><path class="a" d="M333.3,245.518l-1.983-.826v-2.149l1.983-.826a1.954,1.954,0,0,0,1.074-1.074,2.3,2.3,0,0,0,0-1.487l-1.074-2.645a1.957,1.957,0,0,0-1.074-1.074,2.3,2.3,0,0,0-1.488,0l-1.983.827-.082-.083-1.322-1.322-.083-.083-.083-.082.827-1.984a1.977,1.977,0,0,0-1.075-2.561l-2.644-1.074a2.282,2.282,0,0,0-1.487,0,1.954,1.954,0,0,0-1.074,1.074l-.827,1.983h-.082a8.952,8.952,0,0,0-1.074-.083,7.321,7.321,0,0,0-1.075.083h-.082l-.827-1.983a1.95,1.95,0,0,0-1.074-1.074,2.282,2.282,0,0,0-1.487,0l-2.644,1.074a1.976,1.976,0,0,0-1.074,2.561l.826,1.984-.083.082-1.322,1.322-.083.083-.082.083-1.983-.827a2.3,2.3,0,0,0-1.488,0,1.96,1.96,0,0,0-1.074,1.074l-1.074,2.645a2.3,2.3,0,0,0,0,1.487,1.954,1.954,0,0,0,1.074,1.074l1.983.826v2.149l-1.983.826a1.957,1.957,0,0,0-1.074,1.074,2.3,2.3,0,0,0,0,1.488l1.074,2.644a1.957,1.957,0,0,0,1.074,1.074,2.3,2.3,0,0,0,1.488,0l1.983-.826.082.082,1.323,1.323.082.082.083.083-.826,1.983a1.976,1.976,0,0,0,1.074,2.561l2.644,1.075a1.758,1.758,0,0,0,1.487,0,1.955,1.955,0,0,0,1.074-1.075l.827-1.983h.082a8.956,8.956,0,0,0,1.075.083,7.3,7.3,0,0,0,1.074-.083h.082l.827,1.983a1.977,1.977,0,0,0,2.561,1.075l2.644-1.075a1.977,1.977,0,0,0,1.075-2.561l-.827-1.983.083-.083,1.322-1.322.083-.083.082-.082,1.983.826a2.3,2.3,0,0,0,1.488,0,1.954,1.954,0,0,0,1.074-1.074l1.074-2.644A1.978,1.978,0,0,0,333.3,245.518Zm-.083,2.066-1.074,2.644a.645.645,0,0,1-.909.413L329,249.732c-.33-.165-.661-.248-.743-.165a6.25,6.25,0,0,0-.579.661l-1.322,1.322a6.145,6.145,0,0,0-.661.579c-.083.082,0,.413.165.743l.909,2.231a.735.735,0,0,1-.413.909l-2.644,1.074a.735.735,0,0,1-.909-.413l-.909-2.231c-.165-.413-.331-.661-.413-.661a4.229,4.229,0,0,0-.827.083,5.013,5.013,0,0,1-1.817,0c-.331,0-.744-.083-.827-.083s-.248.331-.413.661l-.909,2.231a.645.645,0,0,1-.909.413l-2.644-1.074a.646.646,0,0,1-.413-.909l.909-2.231c.165-.33.248-.661.165-.743a6.141,6.141,0,0,0-.661-.579l-1.322-1.322a6.4,6.4,0,0,0-.578-.661c-.083-.083-.414,0-.744.165l-2.231.909a.735.735,0,0,1-.909-.413l-1.074-2.644a.735.735,0,0,1,.413-.909l2.231-.909c.413-.165.661-.33.661-.413a6.356,6.356,0,0,1-.083-.826v-1.818c0-.331.083-.744.083-.827s-.331-.247-.661-.413l-2.231-.909a.645.645,0,0,1-.413-.909l1.074-2.644a.646.646,0,0,1,.909-.413l2.231.909c.33.165.661.248.744.165a6.183,6.183,0,0,0,.578-.661l1.322-1.322a6.183,6.183,0,0,0,.661-.578c.083-.083,0-.413-.165-.744l-.909-2.231a.736.736,0,0,1,.413-.909l2.644-1.074a.735.735,0,0,1,.909.413l.909,2.231c.165.413.331.661.413.661a4.229,4.229,0,0,0,.827-.083,5.074,5.074,0,0,1,1.817,0c.331,0,.744.083.827.083s.248-.33.413-.661l.909-2.231a.646.646,0,0,1,.909-.413l2.644,1.074a.646.646,0,0,1,.413.909l-.909,2.231c-.165.331-.248.661-.165.744a6.292,6.292,0,0,0,.661.578l1.322,1.322a6.042,6.042,0,0,0,.579.661c.082.083.413,0,.743-.165l2.231-.909a.736.736,0,0,1,.909.413l1.074,2.644a.735.735,0,0,1-.413.909l-2.231.909c-.413.166-.661.331-.661.413a6.381,6.381,0,0,1,.083.827v1.818c0,.33-.083.743-.083.826s.331.248.661.413l2.231.909C333.136,246.758,333.3,247.253,333.218,247.584Z"/><circle class="a" cx="7.189" cy="7.189" r="7.189" transform="translate(342.117 241.586)"/><path class="a" d="M362.94,250.758l-1.983-.826v-2.149l1.983-.826a1.962,1.962,0,0,0,1.075-1.074,2.3,2.3,0,0,0,0-1.488l-1.075-2.644a1.951,1.951,0,0,0-1.074-1.074,2.3,2.3,0,0,0-1.487,0l-1.983.826-.083-.082-1.322-1.322-.083-.083-.082-.083.826-1.983a1.978,1.978,0,0,0-1.074-2.561l-2.644-1.075a2.3,2.3,0,0,0-1.488,0,1.958,1.958,0,0,0-1.074,1.075l-.826,1.983h-.083a8.931,8.931,0,0,0-1.074-.083,7.281,7.281,0,0,0-1.074.083h-.083l-.826-1.983a1.962,1.962,0,0,0-1.074-1.075,2.3,2.3,0,0,0-1.488,0l-2.644,1.075a1.978,1.978,0,0,0-1.074,2.561l.826,1.983-.082.083-1.322,1.322-.083.083-.083.082-1.983-.826a2.3,2.3,0,0,0-1.487,0,1.953,1.953,0,0,0-1.074,1.074l-1.075,2.644a2.3,2.3,0,0,0,0,1.488,1.958,1.958,0,0,0,1.075,1.074l1.983.826v2.149l-1.983.826a1.959,1.959,0,0,0-1.075,1.074,2.3,2.3,0,0,0,0,1.487l1.075,2.645a1.957,1.957,0,0,0,1.074,1.074,2.3,2.3,0,0,0,1.487,0l1.983-.826.083.082,1.322,1.322.083.083.082.083-.826,1.983a1.978,1.978,0,0,0,1.074,2.561l2.644,1.074a1.75,1.75,0,0,0,1.488,0,1.95,1.95,0,0,0,1.074-1.074l.826-1.983h.083a8.929,8.929,0,0,0,1.074.083,7.281,7.281,0,0,0,1.074-.083h.083l.826,1.983a1.977,1.977,0,0,0,2.562,1.074l2.644-1.074a1.977,1.977,0,0,0,1.074-2.561l-.826-1.983.082-.083,1.323-1.322.082-.083.083-.082,1.983.826a2.3,2.3,0,0,0,1.487,0,1.957,1.957,0,0,0,1.074-1.074l1.075-2.645A1.977,1.977,0,0,0,362.94,250.758Zm-.082,2.066-1.074,2.644a.647.647,0,0,1-.909.413l-2.231-.909c-.331-.165-.661-.248-.744-.165a5.957,5.957,0,0,0-.578.661L356,256.79a6.4,6.4,0,0,0-.661.578c-.082.083,0,.414.166.744l.909,2.231a.736.736,0,0,1-.413.909l-2.645,1.074a.736.736,0,0,1-.909-.413l-.909-2.231c-.165-.413-.33-.661-.413-.661a4.22,4.22,0,0,0-.826.083,5.079,5.079,0,0,1-1.818,0c-.33,0-.744-.083-.826-.083s-.248.33-.413.661l-.909,2.231a.647.647,0,0,1-.909.413l-2.644-1.074a.646.646,0,0,1-.414-.909l.909-2.231c.166-.33.248-.661.166-.744a6.4,6.4,0,0,0-.661-.578l-1.323-1.322a5.953,5.953,0,0,0-.578-.661c-.083-.083-.413,0-.744.165l-2.231.909a.737.737,0,0,1-.909-.413l-1.074-2.644a.736.736,0,0,1,.413-.909l2.231-.909c.414-.165.661-.331.661-.413a6.457,6.457,0,0,1-.082-.827v-1.818c0-.33.082-.743.082-.826s-.33-.248-.661-.413l-2.231-.909a.646.646,0,0,1-.413-.909l1.074-2.644a.646.646,0,0,1,.909-.413l2.231.909c.331.165.661.248.744.165a6.159,6.159,0,0,0,.578-.661l1.323-1.322a6.248,6.248,0,0,0,.661-.579c.082-.082,0-.413-.166-.743l-.909-2.231a.736.736,0,0,1,.414-.909l2.644-1.074a.735.735,0,0,1,.909.413l.909,2.231c.165.413.33.661.413.661a4.221,4.221,0,0,0,.826-.083,5.08,5.08,0,0,1,1.818,0c.33,0,.744.083.826.083s.248-.331.413-.661l.909-2.231a.646.646,0,0,1,.909-.413L356,236.463a.646.646,0,0,1,.413.909L355.5,239.6c-.166.33-.248.661-.166.743a6.247,6.247,0,0,0,.661.579l1.323,1.322a6.163,6.163,0,0,0,.578.661c.083.083.413,0,.744-.165l2.231-.909a.735.735,0,0,1,.909.413l1.074,2.644a.736.736,0,0,1-.413.909l-2.231.909c-.414.165-.661.33-.661.413a6.432,6.432,0,0,1,.082.826v1.818c0,.331-.082.744-.082.827s.33.248.661.413l2.231.909C362.775,252,362.94,252.493,362.858,252.824Z"/><path class="b" d="M374.508,271.3h-81.7c-9.516,0-17.237-8.619-17.237-19.034s7.721-19.033,17.237-19.033a7.325,7.325,0,0,1,1.975.18,15.157,15.157,0,0,1,13.108-8.081,12.081,12.081,0,0,1,4.31.719v-.719c0-12.389,8.978-22.265,20.11-22.265a19.967,19.967,0,0,1,18.136,12.928,17.955,17.955,0,0,1,9.516-2.873c10.774,0,19.393,9.7,19.393,21.547a24.448,24.448,0,0,1-.359,3.592,17.2,17.2,0,0,1,9.516,15.8c0,8.08-5.027,14.9-11.851,16.7Z"/></g><g transform="translate(839.005 901.291)"><g transform="translate(98.606 -0.002)"><path class="c" d="M135.987,26,151.8,16.867,146.922,4.23l-19.5,11.26ZM141.7,12.518c1.811-.418,3.142,1.548,3.173,3.173,0,.279,0,.348-.186.464l-.565.279-.936.542a2.925,2.925,0,0,0,0-1.873c-.17-.441-.48-.975-.991-.944-1.277.108-.9,1.857-.991,2.623a2.654,2.654,0,0,1-4.961,1.161,8.969,8.969,0,0,1-.7-1.377c-.077-.132-.116-.2,0-.279l.34-.193,1.207-.7c-.093.774.124,2.074,1.006,2.368a.952.952,0,0,0,1.052-.341,1.888,1.888,0,0,0,.333-.991,5.773,5.773,0,0,1,.3-2.407,2.453,2.453,0,0,1,1.919-1.509Z" transform="translate(-127.42 -0.955)"/><path class="d" d="M132.042,3.4c.077.139.155.271.255.3a5.858,5.858,0,0,0-1.215,4.543,3.872,3.872,0,0,1-.379.132,2.213,2.213,0,0,0-.774,2.956,1.935,1.935,0,0,0,.774.774l3.351-1.935a2.321,2.321,0,0,0-.279-1.091,2.577,2.577,0,0,0-1.416-1.06,4.643,4.643,0,0,1,1.06-3.738,2.43,2.43,0,0,0,1.757-.209,2.6,2.6,0,0,0,1.06-1.416A4.829,4.829,0,0,1,140,3.606a2.391,2.391,0,0,0,.209,1.757,1.919,1.919,0,0,0,.774.774L144.338,4.2a2.183,2.183,0,0,0-.217-1.107,2.221,2.221,0,0,0-2.964-.774c-.132.077-.263.155-.294.255a5.758,5.758,0,0,0-4.5-1.153,3.217,3.217,0,0,1-.132-.371,2.206,2.206,0,0,0-2.956-.774C131.825,1.021,131.422,2.321,132.042,3.4Z" transform="translate(-127.925 0.002)"/></g><g transform="translate(30.907 1.826)"><path class="c" d="M66.192,18.914A17.8,17.8,0,0,0,63.53,16.9a2.492,2.492,0,0,1-.828-.542.24.24,0,0,1-.147.077l-.147.155v.155l2.918,2.941A.464.464,0,0,1,65.4,20V21.39a.17.17,0,0,1-.155.155H63.421a.271.271,0,0,1-.224-.077l-.6-.542c-.077-.077-.077-.077-.155,0l-.526.7v.232l1.13,1.083a.418.418,0,0,0,.371.155h2.995a.364.364,0,0,0,.379-.387V19.765C66.873,19.456,66.625,19.223,66.192,18.914Z" transform="translate(-44.91 -5.526)"/><path class="c" d="M60,15.225a.279.279,0,0,1,.07.155l.155.155h.147s2.546-2.709,2.848-3.018a.441.441,0,0,1,.3-.077h1.347a.17.17,0,0,1,.155.155v1.857a.286.286,0,0,1-.077.232l-.6.619c-.07.077-.07.077,0,.155l.681.542h.224s.944-1.083,1.037-1.13a.457.457,0,0,0,.155-.387v-3.1A.364.364,0,0,0,66.059,11H63.212c-.224,0-.449.232-.774.619A18.427,18.427,0,0,0,60.5,14.4C60.294,14.684,60.062,15.148,60,15.225Z" transform="translate(-44.476 -4.314)"/><path class="c" d="M63.249,6.771h-9.89V2.36L39.94,4.527v18.96l13.419,2.167V22.016h9.89a.642.642,0,0,0,.673-.7V7.5C63.977,7,63.7,6.771,63.249,6.771ZM48.785,19.231h0l-4.156-.387V9.82l3.823-.31v1.78l-2.322.077v2.089h2.322v1.78l-2.322-.077v2.089l2.7.155Zm14.162,1.78H53.429V19.927h1.052c.224,0,.449-.232.774-.619a19.038,19.038,0,0,0,1.95-2.786,2.662,2.662,0,0,1,.518-.851.279.279,0,0,1-.07-.155l-.155-.155h-.147S54.806,18.07,54.5,18.379a.441.441,0,0,1-.3.077h-.844v-4.1c.449.31,1.045.7,1.2.774a2.414,2.414,0,0,1,.82.542.271.271,0,0,1,.147-.077l.155-.155v-.155s-1.424-1.393-2.322-2.322V10.486h1.269a.263.263,0,0,1,.224.077l.6.619c.07.077.07.077.147,0l.526-.7v-.232S55.077,9.248,55.007,9.17s-.224-.077-.449-.077h-1.2V8.009H62.87Z" transform="translate(-39.94 -2.36)"/></g><g transform="translate(-0.005 57.429)"><path class="a" d="M6.19,75.688.324,86.344a2.724,2.724,0,0,0,.913,3.583l11.771,7.158a2.453,2.453,0,0,0,3.413-.96l6.47-11.8a2.724,2.724,0,0,0-.913-3.583L11.228,74.21ZM21.2,82.15a1.014,1.014,0,0,1,.356,1.347h0l-6.47,11.8a.921.921,0,0,1-1.277.379h0l-11.8-7.151A1.022,1.022,0,0,1,1.655,87.2h0l5.471-10L9.75,78.753l1.478-2.7Z" transform="translate(0.005 -74.21)"/><path class="e" d="M19.142,86.26H19.2a1.045,1.045,0,0,1,.2,1.13l-1.548,2.817a.573.573,0,0,1-.82.163l-.062.008h-.054a1.052,1.052,0,0,1-.147-1.1l1.548-2.817C18.468,85.989,18.84,85.935,19.142,86.26ZM15.427,94h0a.666.666,0,0,1-.7-.627v-.054l-.557-6.965L9.073,87.513c-.325.093-.627-.232-.7-.712v-.054a.611.611,0,0,1,.488-.658L13.84,85l.565-.155h.077a.774.774,0,0,1,.905.472l.062.774.565,6.965a.929.929,0,0,1-.588.975Z" transform="translate(-1.888 -76.609)"/></g><g transform="translate(59.363 51.725)"><path class="f" d="M100.436,73.758h3.444V77.3h1.749a7.514,7.514,0,0,0,2.407-.4,5.982,5.982,0,0,0,1.169-.526,4.3,4.3,0,0,1-.813-2.237,4.7,4.7,0,0,1,.905-3.3l.364-.426.433.348a5.533,5.533,0,0,1,2.167,3.5,5.309,5.309,0,0,1,4.016.379l.472.271-.248.488c-.983,1.911-3.026,2.507-5.03,2.4-2.995,7.468-9.519,11-17.428,11-4.086,0-7.832-1.548-9.968-5.154v-.054l-.31-.635a10.06,10.06,0,0,1-.774-5.092l.046-.526H86V73.758h3.459V70.3h6.918V66.84h4.156Z" transform="translate(-78.117 -66.84)"/><path class="g" d="M111.758,76.339A4.5,4.5,0,0,0,109.8,72.47c-.967,1.122-1.114,4.04.4,5.27a7.29,7.29,0,0,1-4.45,1.432H83.6a9.379,9.379,0,0,0,.921,5.154l.255.457a8.657,8.657,0,0,0,.519.774h0c.913.054,1.757.077,2.523.062h0a12.831,12.831,0,0,0,3.684-.534.255.255,0,0,1,.333.163.263.263,0,0,1-.163.34l-.387.116h0a11.562,11.562,0,0,1-2.546.418H85.779a10.852,10.852,0,0,0,8.358,3.328c7.669,0,14.17-3.405,17.025-11.028,2.043.209,4-.31,4.9-2.059A4.829,4.829,0,0,0,111.758,76.339Z" transform="translate(-78.257 -68.113)"/><path class="h" d="M83.68,84.075a8.784,8.784,0,0,0,.874,2.848l.255.457a8.663,8.663,0,0,0,.518.774c.913.054,1.757.077,2.523.062a12.537,12.537,0,0,0,3.684-.542.263.263,0,0,1,.333.17.255.255,0,0,1-.163.333l-.387.124h0a12.142,12.142,0,0,1-2.608.426H85.754a10.887,10.887,0,0,0,8.373,3.328c6.562,0,12.274-2.492,15.586-7.994Z" transform="translate(-78.286 -70.734)"/><path class="i" d="M90.025,76.778h.232v2.5h-.232Zm-.457,0h.248v2.5h-.248Zm-.457,0h.248v2.5h-.248Zm-.449,0h.24v2.5h-.24Zm-.457,0h.248v2.5h-.248Zm-.449,0H88v2.5h-.24Zm-.248-.248h3v2.995h-3Z" transform="translate(-79.152 -69.031)"/><path class="i" d="M94.5,72.308h.24v2.5H94.5Zm-.457,0h.279v2.5h-.248Zm-.449,0h.24v2.5h-.24Zm-.457,0h.248v2.5h-.248Zm-.457,0h.248v2.5h-.248Zm-.441,0h.232v2.5H92.24ZM92,72.06h3v2.995H92Z" transform="translate(-80.167 -68.02)"/><path class="j" d="M94.5,76.778h.24v2.5H94.5Zm-.457,0h.279v2.5h-.248Zm-.449,0h.24v2.5h-.24Zm-.457,0h.248v2.5h-.248Zm-.457,0h.248v2.5h-.248Zm-.441,0h.232v2.5H92.24ZM92,76.53h3v2.995H92Z" transform="translate(-80.167 -69.031)"/><path class="i" d="M98.967,76.778H99.2v2.5h-.232Zm-.457,0h.248v2.5h-.248Zm-.449,0h.248v2.5h-.248Zm-.457,0h.248v2.5h-.248Zm-.457,0H97.4v2.5h-.248Zm-.441,0h.232v2.5h-.232Zm-.248-.248h2.995v2.995H96.46Z" transform="translate(-81.176 -69.031)"/><path class="j" d="M98.967,72.308H99.2v2.5h-.232Zm-.457,0h.248v2.5h-.248Zm-.449,0h.248v2.5h-.248Zm-.457,0h.248v2.5h-.248Zm-.457,0H97.4v2.5h-.248Zm-.441,0h.232v2.5h-.232Zm-.248-.248h2.995v2.995H96.46Z" transform="translate(-81.176 -68.02)"/><path class="j" d="M103.405,76.588h.232v2.5h-.232Zm-.457,0h.248v2.5h-.248Zm-.457,0h.248v2.5h-.217Zm-.457,0h.248v2.5h-.248Zm-.449,0h.24v2.5h-.24Zm-.449,0h.24v2.5h-.24Zm-.248-.248h2.995v2.995H100.89Z" transform="translate(-82.178 -68.988)"/><path class="i" d="M103.405,72.115h.232v2.5h-.232Zm-.457,0h.248v2.5h-.248Zm-.457,0h.248v2.5h-.217Zm-.457,0h.248v2.5h-.248Zm-.449,0h.24v2.5h-.24Zm-.449,0h.24v2.5h-.24Zm-.248-.255h2.995v3H100.89Z" transform="translate(-82.178 -67.975)"/><path class="j" d="M103.405,67.645h.232v2.538h-.232Zm-.457,0h.248v2.538h-.248Zm-.457,0h.248v2.538h-.217Zm-.457,0h.248v2.538h-.248Zm-.449,0h.24v2.538h-.24Zm-.449,0h.24v2.538h-.24Zm-.248-.255h2.995v3H100.89Z" transform="translate(-82.178 -66.964)"/><path class="i" d="M107.685,76.778h.232v2.5h-.232Zm-.457,0h.248v2.5h-.248Zm-.457,0h.248v2.5h-.248Zm-.457,0h.271v2.5h-.248Zm-.449,0h.248v2.5h-.248Zm-.449,0h.24v2.5h-.24Zm-.248-.248h3v2.995h-3Z" transform="translate(-83.145 -69.031)"/><path class="k" d="M95.378,86.69a.828.828,0,1,1-.828.828.828.828,0,0,1,.828-.828" transform="translate(-80.744 -71.329)"/><path class="f" d="M76.71,84h38.485c-.836-.209-2.647-.5-2.322-1.594-1.548,1.757-5.2,1.23-6.121.364-1.037,1.5-7.05.929-7.468-.24-1.292,1.548-5.309,1.548-6.6,0-.418,1.169-6.431,1.741-7.468.24-.929.867-4.6,1.393-6.121-.364.294,1.1-1.548,1.385-2.322,1.594" transform="translate(-76.71 -70.361)"/><path class="l" d="M95.708,93.3a7.282,7.282,0,0,1-3.8-3.738,12.939,12.939,0,0,1-2.747.418H87.9c-.441,0-1.052,0-1.61-.046a10.909,10.909,0,0,0,8.466,3.351A6.549,6.549,0,0,0,95.708,93.3Z" transform="translate(-78.876 -71.978)"/></g><g transform="translate(68.893 113.133)"><path class="m" d="M100.614,146.569,89.246,160.84a1.006,1.006,0,0,0,.2,1.447l11.353,8.265a1.037,1.037,0,0,0,1.215,0l11.361-8.257a1.006,1.006,0,0,0,.193-1.447l-11.353-14.27a1.029,1.029,0,0,0-1.6-.008Z" transform="translate(-89.025 -146.19)"/><path class="n" d="M104.635,172.506l10.463-7.623a3.026,3.026,0,0,0-2.136-1.161l-2.91-3.668a2.871,2.871,0,0,0,.054-.518,3.026,3.026,0,1,0-6.052,0,2.871,2.871,0,0,0,.046.518l-2.9,3.668a3,3,0,1,0,.828,5.936l2.051,1.478a2.948,2.948,0,0,0,.557,1.37Z" transform="translate(-91.127 -148.524)"/><path class="o" d="M114.967,166.962l-6.911-8.722H106.9l-6.9,8.722.108.774,6.74,4.86h1.269l6.74-4.86Z" transform="translate(-91.507 -148.915)"/><ellipse class="o" cx="2.515" cy="2.492" rx="2.515" ry="2.492" transform="translate(7.82 15.694)"/><ellipse class="o" cx="2.515" cy="2.492" rx="2.515" ry="2.492" transform="translate(19.103 15.694)"/><ellipse class="o" cx="2.515" cy="2.492" rx="2.515" ry="2.492" transform="translate(13.461 19.765)"/><path class="o" d="M108.942,162.189a2.5,2.5,0,1,1,2.507-2.5,2.5,2.5,0,0,1-2.507,2.5Z" transform="translate(-92.965 -148.678)"/><path class="p" d="M103.32,169.087l4.914-1.617,4.906,1.617-4.906,3.544Z" transform="translate(-92.258 -151.002)"/><ellipse class="q" cx="1.486" cy="1.478" rx="1.486" ry="1.478" transform="translate(8.849 16.708)"/><ellipse class="q" cx="1.486" cy="1.478" rx="1.486" ry="1.478" transform="translate(20.132 16.708)"/><ellipse class="q" cx="1.486" cy="1.478" rx="1.486" ry="1.478" transform="translate(14.491 20.778)"/><path class="q" d="M109.24,161.536a1.478,1.478,0,1,1,1.486-1.478A1.494,1.494,0,0,1,109.24,161.536Z" transform="translate(-93.264 -148.992)"/><path class="r" d="M101.86,167.207l5.642-7.127.8.635-5.642,7.12Z" transform="translate(-91.927 -149.331)"/><path class="r" d="M109.14,160.717l.813-.627,5.634,7.12-.8.627Z" transform="translate(-93.574 -149.333)"/><path class="q" d="M113.869,168.028l-.6-.828-4.829,3.482V160.49h-1.029v10.192l-4.821-3.482-.6.828,5.642,4.071h.6Z" transform="translate(-91.957 -149.424)"/><ellipse class="s" cx="0.975" cy="0.967" rx="0.975" ry="0.967" transform="translate(9.36 17.219)"/><ellipse class="s" cx="0.975" cy="0.967" rx="0.975" ry="0.967" transform="translate(20.643 17.219)"/><ellipse class="s" cx="0.975" cy="0.967" rx="0.975" ry="0.967" transform="translate(15.001 21.289)"/><ellipse class="s" cx="0.975" cy="0.967" rx="0.975" ry="0.967" transform="translate(15.001 10.099)"/></g><g transform="translate(120.808 62.919)"><path class="t" d="M177.275,104.9a9.992,9.992,0,1,1,0,.031" transform="translate(-156.109 -81.304)"/><path class="q" d="M175.467,96.931a2.832,2.832,0,0,0,3.97.534l.17-.163c1.269.89,2.151,1.478,2.647,1.819a10,10,0,0,0,.348-1.13c-.774-.573-1.548-1.161-2.252-1.764a2.809,2.809,0,0,0-4.04-3.444q-2.229-2-4.357-4.125c4.821-2.592,8.25-2.213,8.25-2.213a12.985,12.985,0,0,0-1.9-1.95,14.03,14.03,0,0,0-8.8,1.641h0c-1.261-1.323-2.492-2.67-3.676-4.055a11.8,11.8,0,0,0-1.749.7,28.192,28.192,0,0,0,3.56,4.512h0a23.726,23.726,0,0,0-3.653,3.165l-.449.488a3.978,3.978,0,0,0-2.167.155,9.7,9.7,0,0,1-.867-5.7,14.145,14.145,0,0,0-1.416,1.718,8.513,8.513,0,0,0,.519,5.317,3.97,3.97,0,0,0,0,4.814,4.223,4.223,0,0,0,.294.34,19.819,19.819,0,0,0-.774,4.643c.124.17.124.3.248.472a13.079,13.079,0,0,0,2.19,2.1,14.332,14.332,0,0,1,.9-5.982,4.016,4.016,0,0,0,1.834-.294c.333.294.689.588,1.068.9a21.738,21.738,0,0,0,3.831,2.445,2.6,2.6,0,0,0,4.187,2.322,2.663,2.663,0,0,0,.58-.635,23.4,23.4,0,0,0,5.162.534,9.681,9.681,0,0,0,1.687-2.074,14.038,14.038,0,0,1-6.477-.441,2.585,2.585,0,0,0-3.954-1.641,24.873,24.873,0,0,1-3.552-2.368c-.248-.186-.48-.387-.72-.588a3.978,3.978,0,0,0,.17-3.97c.147-.155.294-.3.457-.449a28.635,28.635,0,0,1,3.405-2.817,1.746,1.746,0,0,0-.124-.124l.132.116h0c1.648,1.548,3.39,2.956,5.038,4.241A2.794,2.794,0,0,0,175.467,96.931Z" transform="translate(-156.715 -81.479)"/></g></g><g transform="translate(806 1088)"><g transform="translate(0 0)"><path class="u" d="M61.522,32.77H2.461A2.406,2.406,0,0,0,0,35.176V49.8a2.406,2.406,0,0,0,2.461,2.42H61.522a2.406,2.406,0,0,0,2.461-2.42V35.176a2.406,2.406,0,0,0-2.461-2.406ZM5.469,49.8a2.269,2.269,0,1,1,0-4.525,2.269,2.269,0,1,1,0,4.525Zm53.8-.9h-13a.752.752,0,0,1,0-1.5h12.92a.752.752,0,0,1,0,1.5Zm0-2.406h-13a.766.766,0,1,1,0-1.518h12.92a.766.766,0,1,1,0,1.518Zm0-2.42h-13a.752.752,0,0,1,0-1.5h12.92a.752.752,0,1,1,0,1.5Z" transform="translate(0 12.032)"/><path class="u" d="M61.6,16.22H2.571A2.406,2.406,0,0,0,.11,18.654V33.269a2.406,2.406,0,0,0,2.461,2.406H61.6a2.406,2.406,0,0,0,2.461-2.406V18.654A2.406,2.406,0,0,0,61.6,16.22ZM5.551,33.269a2.269,2.269,0,1,1,0-4.525,2.269,2.269,0,1,1,0,4.525Zm53.743-.943H46.443a.752.752,0,0,1,0-1.5H59.294a.752.752,0,0,1,0,1.5Zm0-2.406H46.443a.725.725,0,0,1-.779-.752.738.738,0,0,1,.779-.766H59.294a.725.725,0,0,1,.766.766.711.711,0,0,1-.766.779Zm0-2.42H46.443a.752.752,0,0,1,0-1.5H59.294a.752.752,0,0,1,0,1.5Z" transform="translate(0.04 5.956)"/><path class="u" d="M61.715,0H2.654A2.406,2.406,0,0,0,.22,2.42V17.049a2.406,2.406,0,0,0,2.434,2.406H61.715a2.406,2.406,0,0,0,2.461-2.406V2.42A2.406,2.406,0,0,0,61.715,0ZM5.661,17.049a2.352,2.352,0,0,1-2.31-2.269,2.338,2.338,0,0,1,2.256-2.256,2.338,2.338,0,0,1,2.31,2.256,2.352,2.352,0,0,1-2.31,2.269Zm53.8-.9H46.5a.725.725,0,0,1-.766-.766.711.711,0,0,1,.766-.752H59.4a.725.725,0,0,1,.779.752.738.738,0,0,1-.779.766Zm0-2.42H46.5a.752.752,0,0,1,0-1.5H59.4a.752.752,0,0,1,0,1.5Zm0-2.42H46.5a.752.752,0,0,1,0-1.5H59.4a.752.752,0,0,1,0,1.5Z" transform="translate(0.081 0)"/></g><g transform="translate(7 -49)"><path class="t" d="M47,0H2.7A2.78,2.78,0,0,0,0,2.8V33.7a2.78,2.78,0,0,0,2.7,2.8H18.8c1.6,5.8-.6,6.6-10.2,6.6v3H41.2v-3c-9.6,0-10.6-.8-8.9-6.6H47a3,3,0,0,0,3-2.8V2.8A3,3,0,0,0,47,0Z"/><path class="q" d="M46.1,3.8V32.7H3.8V3.8Z"/><path class="m" d="M25.5,17.4h-.1l-8.8-5.1c-.1,0-.1-.1-.1-.2a.35.35,0,0,1,.1-.2l8.8-5h.3L34.5,12c.1,0,.1.1.1.2s0,.2-.1.2l-8.7,5h-.3"/><path class="m" d="M24.3,29.7h-.1l-8.8-5.1c-.1,0-.1-.1-.1-.2V14.2a.35.35,0,0,1,.1-.2h.3l8.8,5.1c.1,0,.1.1.1.2V29.5a.35.35,0,0,1-.1.2h-.2"/><path class="m" d="M26.8,29.7h-.1c-.1,0-.1-.1-.1-.2V19.4a.35.35,0,0,1,.1-.2l8.8-5.1h.3c.1,0,.1.1.1.2V24.4a.35.35,0,0,1-.1.2L27,29.7h-.2"/></g></g><g transform="translate(971 1088)"><g transform="translate(0 0)"><path class="u" d="M61.522,32.77H2.461A2.406,2.406,0,0,0,0,35.176V49.8a2.406,2.406,0,0,0,2.461,2.42H61.522a2.406,2.406,0,0,0,2.461-2.42V35.176a2.406,2.406,0,0,0-2.461-2.406ZM5.469,49.8a2.269,2.269,0,1,1,0-4.525,2.269,2.269,0,1,1,0,4.525Zm53.8-.9h-13a.752.752,0,0,1,0-1.5h12.92a.752.752,0,0,1,0,1.5Zm0-2.406h-13a.766.766,0,1,1,0-1.518h12.92a.766.766,0,1,1,0,1.518Zm0-2.42h-13a.752.752,0,0,1,0-1.5h12.92a.752.752,0,1,1,0,1.5Z" transform="translate(0 12.032)"/><path class="u" d="M61.6,16.22H2.571A2.406,2.406,0,0,0,.11,18.654V33.269a2.406,2.406,0,0,0,2.461,2.406H61.6a2.406,2.406,0,0,0,2.461-2.406V18.654A2.406,2.406,0,0,0,61.6,16.22ZM5.551,33.269a2.269,2.269,0,1,1,0-4.525,2.269,2.269,0,1,1,0,4.525Zm53.743-.943H46.443a.752.752,0,0,1,0-1.5H59.294a.752.752,0,0,1,0,1.5Zm0-2.406H46.443a.725.725,0,0,1-.779-.752.738.738,0,0,1,.779-.766H59.294a.725.725,0,0,1,.766.766.711.711,0,0,1-.766.779Zm0-2.42H46.443a.752.752,0,0,1,0-1.5H59.294a.752.752,0,0,1,0,1.5Z" transform="translate(0.04 5.956)"/><path class="u" d="M61.715,0H2.654A2.406,2.406,0,0,0,.22,2.42V17.049a2.406,2.406,0,0,0,2.434,2.406H61.715a2.406,2.406,0,0,0,2.461-2.406V2.42A2.406,2.406,0,0,0,61.715,0ZM5.661,17.049a2.352,2.352,0,0,1-2.31-2.269,2.338,2.338,0,0,1,2.256-2.256,2.338,2.338,0,0,1,2.31,2.256,2.352,2.352,0,0,1-2.31,2.269Zm53.8-.9H46.5a.725.725,0,0,1-.766-.766.711.711,0,0,1,.766-.752H59.4a.725.725,0,0,1,.779.752.738.738,0,0,1-.779.766Zm0-2.42H46.5a.752.752,0,0,1,0-1.5H59.4a.752.752,0,0,1,0,1.5Zm0-2.42H46.5a.752.752,0,0,1,0-1.5H59.4a.752.752,0,0,1,0,1.5Z" transform="translate(0.081 0)"/></g><g transform="translate(7 -49)"><path class="t" d="M47,0H2.7A2.78,2.78,0,0,0,0,2.8V33.7a2.78,2.78,0,0,0,2.7,2.8H18.8c1.6,5.8-.6,6.6-10.2,6.6v3H41.2v-3c-9.6,0-10.6-.8-8.9-6.6H47a3,3,0,0,0,3-2.8V2.8A3,3,0,0,0,47,0Z"/><path class="q" d="M46.1,3.8V32.7H3.8V3.8Z"/><path class="m" d="M25.5,17.4h-.1l-8.8-5.1c-.1,0-.1-.1-.1-.2a.35.35,0,0,1,.1-.2l8.8-5h.3L34.5,12c.1,0,.1.1.1.2s0,.2-.1.2l-8.7,5h-.3"/><path class="m" d="M24.3,29.7h-.1l-8.8-5.1c-.1,0-.1-.1-.1-.2V14.2a.35.35,0,0,1,.1-.2h.3l8.8,5.1c.1,0,.1.1.1.2V29.5a.35.35,0,0,1-.1.2h-.2"/><path class="m" d="M26.8,29.7h-.1c-.1,0-.1-.1-.1-.2V19.4a.35.35,0,0,1,.1-.2l8.8-5.1h.3c.1,0,.1.1.1.2V24.4a.35.35,0,0,1-.1.2L27,29.7h-.2"/></g></g></g></svg>