<svg  width="244" height="164" viewBox="0 0 244 164">
  <g id="the-earth" transform="translate(-877 -278)">
    <path id="Earth-Circle" d="M857,306.5a82,82,0,1,1,82-82h0A82.112,82.112,0,0,1,857,306.5Zm0-162a80,80,0,1,0,80,80,79.978,79.978,0,0,0-80-80Z" transform="translate(142 135.5)" fill="#fff"/>
    <g id="E-circle3" transform="translate(975 306)" fill="none" stroke="#fff" stroke-width="2">
      <circle cx="15" cy="15" r="15" stroke="none"/>
      <circle cx="15" cy="15" r="14" fill="none"/>
    </g>
    <g id="E-circle2" transform="translate(948 360)" fill="none" stroke="#fff" stroke-width="2">
      <circle cx="7.5" cy="7.5" r="7.5" stroke="none"/>
      <circle cx="7.5" cy="7.5" r="6.5" fill="none"/>
    </g>
    <g id="E-circle1" transform="translate(996 400)" fill="none" stroke="#fff" stroke-width="2">
      <circle cx="7.5" cy="7.5" r="7.5" stroke="none"/>
      <circle cx="7.5" cy="7.5" r="6.5" fill="none"/>
    </g>
    <path id="Orbit" d="M857,257.5c-68.4,0-122-14.5-122-33,0-10.8,15.9-20,44.8-26.1l.4,2c-27.5,5.7-43.2,14.5-43.2,24.1,0,16.8,55,31,120,31s120-14.2,120-31c0-9.6-15.8-18.4-43.3-24.2l.4-2c29,6,44.9,15.3,44.9,26.1C979,243,925.4,257.5,857,257.5Z" transform="translate(142 134.7)" fill="#fff"/>
    <circle id="sun" cx="7.5" cy="7.5" r="7.5" transform="translate(1076.5 329)" fill="#f6c72d"/>
  </g>
</svg>
