<svg width="412" height="524" viewBox="0 0 412 524" fill="none" xmlns="http://www.w3.org/2000/svg">
<rect width="412" height="524" fill="white"/>
<path d="M401.741 356.338C407.407 356.338 412 350.667 412 343.672C412 336.676 407.407 331.006 401.741 331.006C396.076 331.006 391.483 336.676 391.483 343.672C391.483 350.667 396.076 356.338 401.741 356.338Z" fill="#999999"/>
<path d="M200.672 445C206.338 445 210.931 439.329 210.931 432.334C210.931 425.339 206.338 419.668 200.672 419.668C195.007 419.668 190.414 425.339 190.414 432.334C190.414 439.329 195.007 445 200.672 445Z" fill="#999999"/>
<path d="M286.161 102.173C291.826 102.173 296.419 96.5019 296.419 89.5066C296.419 82.5114 291.826 76.8406 286.161 76.8406C280.495 76.8406 275.902 82.5114 275.902 89.5066C275.902 96.5019 280.495 102.173 286.161 102.173Z" fill="#999999"/>
<path d="M375.069 177.324C380.734 177.324 385.327 171.654 385.327 164.658C385.327 157.663 380.734 151.992 375.069 151.992C369.403 151.992 364.81 157.663 364.81 164.658C364.81 171.654 369.403 177.324 375.069 177.324Z" fill="#999999"/>
<path d="M208.196 429.801L396.612 346.627" stroke="#4D4D4D" stroke-miterlimit="10"/>
<path d="M395.244 335.65L289.416 98.8879" stroke="#666666" stroke-miterlimit="10"/>
<path d="M290.606 81.4848L362.417 20.6879" stroke="#666666" stroke-miterlimit="10"/>
<path d="M368.914 25.3321C374.579 25.3321 379.172 19.6613 379.172 12.666C379.172 5.67078 374.579 0 368.914 0C363.248 0 358.655 5.67078 358.655 12.666C358.655 19.6613 363.248 25.3321 368.914 25.3321Z" fill="#999999"/>
<path d="M284.109 313.273C287.886 313.273 290.948 309.493 290.948 304.829C290.948 300.166 287.886 296.385 284.109 296.385C280.332 296.385 277.27 300.166 277.27 304.829C277.27 309.493 280.332 313.273 284.109 313.273Z" fill="#B3B3B3"/>
<path d="M180.839 162.97C184.616 162.97 187.678 159.189 187.678 154.526C187.678 149.862 184.616 146.082 180.839 146.082C177.062 146.082 174 149.862 174 154.526C174 159.189 177.062 162.97 180.839 162.97Z" fill="#B3B3B3"/>
<path d="M279.664 300.185L183.917 160.014" stroke="#666666" stroke-miterlimit="10"/>
<path d="M198.279 419.246L180.497 158.325" stroke="#666666" stroke-miterlimit="10"/>
<path d="M186.652 154.948L365.104 160.512" stroke="#666666" stroke-miterlimit="10"/>
<path d="M287.187 296.807L368.285 21.4309" stroke="#666666" stroke-miterlimit="10"/>
</svg>
