<?xml version="1.0" ?><svg id="Layer_1" height="48px" width="48px" style="enable-background:new 0 0 96 96;" version="1.1" viewBox="0 0 96 96" xml:space="preserve" xmlns="http://www.w3.org/2000/svg" xmlns:xlink="http://www.w3.org/1999/xlink"><path d="M45.1,69.6c-0.1-1.4-0.8-2.5-2-3.2L16.9,51.3c-1.3-0.7-2.7-0.7-4,0L2.6,57.2c-1.3,0.7-2,2-2,3.5c0,1.5,0.7,2.7,2,3.5  l24.2,14l0.9,14.1c0.1,1.4,0.9,2.6,2.1,3.3c1.3,0.7,2.6,0.6,3.9-0.1l10.4-6c1.4-0.8,2.1-2.2,2-3.7L45.1,69.6z M31.8,92l-1-15.3  c0-0.6-0.4-1.2-0.9-1.5L4.6,60.7l10.3-5.9l26.2,15.1L42.2,86L31.8,92z M93.4,67L47.6,39.8L47.7,4c0-1.5-0.7-2.7-2-3.5  c-1.3-0.7-2.7-0.7-4,0L31.4,6.5c-1.3,0.7-2,2-2,3.5L29.3,48c0,1.5,0.7,2.7,2,3.4L79,79.8c1.3,0.8,2.8,0.8,4,0l10.3-5.9  c1.3-0.7,2-2,2-3.4C95.4,69,94.7,67.7,93.4,67z M81.1,76.3L33.3,48L33.4,10L43.7,4l-0.1,37c0,0.7,0.3,1.2,0.9,1.6l46.9,27.8  L81.1,76.3z"/></svg>