<svg xmlns="http://www.w3.org/2000/svg" xmlns:xlink="http://www.w3.org/1999/xlink" viewBox="0 0 457.01 368.17"><defs><style>.cls-1{isolation:isolate;}.cls-2,.cls-27,.cls-30,.cls-33{opacity:0.64;}.cls-2,.cls-27,.cls-28,.cls-29,.cls-30,.cls-31,.cls-32,.cls-33,.cls-34,.cls-35,.cls-36,.cls-37,.cls-5,.cls-7{mix-blend-mode:multiply;}.cls-2{fill:url(#radial-gradient);}.cls-26,.cls-3{fill:none;}.cls-3{stroke:#fff;stroke-miterlimit:10;}.cls-38,.cls-4,.cls-40{fill:#fff;}.cls-5{fill:url(#radial-gradient-2);}.cls-36,.cls-6{fill:#14678c;}.cls-7{fill:url(#radial-gradient-3);}.cls-8{font-size:6.33px;}.cls-11,.cls-23,.cls-8{fill:#706262;}.cls-38,.cls-8{font-family:OpenSans;}.cls-9{letter-spacing:0em;}.cls-10{letter-spacing:0em;}.cls-11{font-size:4.11px;font-family:OpenSans-Light, OpenSans Light;font-weight:300;}.cls-12{letter-spacing:-0.01em;}.cls-13{letter-spacing:-0.01em;}.cls-14{letter-spacing:0em;}.cls-15{letter-spacing:-0.01em;}.cls-16{letter-spacing:0.01em;}.cls-17{letter-spacing:-0.01em;}.cls-18{letter-spacing:0em;}.cls-19{letter-spacing:-0.01em;}.cls-20{letter-spacing:0em;}.cls-21{letter-spacing:0em;}.cls-22{letter-spacing:0em;}.cls-23{font-size:8.78px;}.cls-23,.cls-40{font-family:OpenSans-Bold, OpenSans Bold;font-weight:700;}.cls-24{letter-spacing:-0.04em;}.cls-25{letter-spacing:-0.04em;}.cls-26{stroke:#14678c;stroke-linecap:round;stroke-linejoin:round;}.cls-27{fill:url(#radial-gradient-4);}.cls-28{fill:url(#radial-gradient-5);}.cls-29{fill:url(#radial-gradient-6);}.cls-30{fill:url(#radial-gradient-7);}.cls-31{fill:url(#radial-gradient-8);}.cls-32{fill:url(#radial-gradient-9);}.cls-33{fill:url(#radial-gradient-10);}.cls-34{fill:url(#radial-gradient-11);}.cls-35{fill:url(#radial-gradient-12);}.cls-36{opacity:0.75;}.cls-37{fill:url(#radial-gradient-13);}.cls-38{font-size:12.29px;}.cls-39{letter-spacing:0em;}.cls-40{font-size:11.78px;}</style><radialGradient id="radial-gradient" cx="300.7" cy="73.26" r="47.59" gradientTransform="translate(-106.05 14.66) scale(1.45 0.49)" gradientUnits="userSpaceOnUse"><stop offset="0"/><stop offset="0.13" stop-color="#040404"/><stop offset="0.26" stop-color="#0f0f0f"/><stop offset="0.38" stop-color="#222"/><stop offset="0.51" stop-color="#3d3d3d"/><stop offset="0.63" stop-color="#606060"/><stop offset="0.75" stop-color="#8a8a8a"/><stop offset="0.87" stop-color="#bcbcbc"/><stop offset="0.98" stop-color="#f5f5f5"/><stop offset="1" stop-color="#fff"/></radialGradient><radialGradient id="radial-gradient-2" cx="240.01" cy="43.48" r="36.84" gradientTransform="translate(244.02 -200.41) rotate(80.67)" gradientUnits="userSpaceOnUse"><stop offset="0"/><stop offset="1" stop-color="#fff"/></radialGradient><radialGradient id="radial-gradient-3" cx="238.84" cy="47.46" r="27.44" gradientTransform="matrix(1, 0, 0, 1, 0, 0)" xlink:href="#radial-gradient"/><radialGradient id="radial-gradient-4" cx="323.91" cy="123.51" r="47.59" gradientTransform="translate(-106.05 88.82) scale(1.45 0.49)" xlink:href="#radial-gradient"/><radialGradient id="radial-gradient-5" cx="276.91" cy="139.11" r="36.84" gradientTransform="matrix(1, 0, 0, 1, 0, 0)" xlink:href="#radial-gradient-2"/><radialGradient id="radial-gradient-6" cx="275.74" cy="143.09" r="27.44" gradientTransform="matrix(1, 0, 0, 1, 0, 0)" xlink:href="#radial-gradient"/><radialGradient id="radial-gradient-7" cx="323.91" cy="172.76" r="47.59" gradientTransform="translate(-106.05 161.5) scale(1.45 0.49)" xlink:href="#radial-gradient"/><radialGradient id="radial-gradient-8" cx="276.91" cy="235.3" r="36.84" gradientTransform="matrix(1, 0, 0, 1, 0, 0)" xlink:href="#radial-gradient-2"/><radialGradient id="radial-gradient-9" cx="275.74" cy="239.28" r="27.44" gradientTransform="matrix(1, 0, 0, 1, 0, 0)" xlink:href="#radial-gradient"/><radialGradient id="radial-gradient-10" cx="300.7" cy="221.21" r="47.59" gradientTransform="translate(-106.05 233.01) scale(1.45 0.49)" xlink:href="#radial-gradient"/><radialGradient id="radial-gradient-11" cx="240.01" cy="331.33" r="36.84" gradientTransform="matrix(1, 0, 0, 1, 0, 0)" xlink:href="#radial-gradient-2"/><radialGradient id="radial-gradient-12" cx="238.84" cy="335.31" r="27.44" gradientTransform="matrix(1, 0, 0, 1, 0, 0)" xlink:href="#radial-gradient"/><radialGradient id="radial-gradient-13" cx="82.24" cy="190.13" r="61.12" gradientTransform="translate(256.97 78.86) rotate(80.9)" xlink:href="#radial-gradient-2"/></defs><title>Asset 1hdpi</title><g class="cls-1"><g id="Layer_2" data-name="Layer 2"><g id="OBJECTS"><ellipse class="cls-2" cx="331.32" cy="50.75" rx="74.41" ry="23.97"/><path class="cls-3" d="M75.22,74.05l28.6-28.6a38.11,38.11,0,0,1,27-11.17H164.5"/><line class="cls-3" x1="164.83" y1="65.4" x2="164.83" y2="4.13"/><path class="cls-4" d="M178.07,4.13h30.26a40.92,40.92,0,0,0-4.71,61.27H178.07a5.56,5.56,0,0,1-5.56-5.56V9.7A5.56,5.56,0,0,1,178.07,4.13Z"/><path class="cls-4" d="M420.11,34.77A30.63,30.63,0,0,1,389.48,65.4H262.21a40.91,40.91,0,0,0-4.72-61.27h132a30.63,30.63,0,0,1,30.63,30.64Z"/><circle class="cls-5" cx="240.01" cy="43.48" r="36.84" transform="translate(158.21 273.27) rotate(-80.67)"/><circle class="cls-6" cx="232.91" cy="36.84" r="36.84"/><circle class="cls-7" cx="238.84" cy="47.46" r="27.44"/><path class="cls-3" d="M232.91,68.3a31.46,31.46,0,1,1,31.46-31.46A31.5,31.5,0,0,1,232.91,68.3Z"/><circle class="cls-4" cx="232.91" cy="36.84" r="25.54" transform="translate(158.94 260.75) rotate(-80.71)"/><text class="cls-8" transform="translate(285.1 24.72)">INFOG<tspan class="cls-9" x="17.22" y="0">R</tspan><tspan class="cls-10" x="20.66" y="0">APHIC </tspan></text><text class="cls-11" transform="translate(285.5 43.49)"><tspan class="cls-12">L</tspan><tspan x="1.88" y="0">o</tspan><tspan class="cls-13" x="4.14" y="0">r</tspan><tspan x="5.44" y="0">em ipsum dolor sit ame</tspan><tspan class="cls-14" x="45.57" y="0">t</tspan><tspan x="46.92" y="0">, </tspan><tspan class="cls-15" x="48.64" y="0">c</tspan><tspan x="50.45" y="0">onse</tspan><tspan class="cls-16" x="58.67" y="0">c</tspan><tspan class="cls-17" x="60.56" y="0">t</tspan><tspan x="61.9" y="0">etuer adipiscing eli</tspan><tspan class="cls-18" x="94.27" y="0">t</tspan><tspan x="95.62" y="0">, </tspan><tspan x="0" y="4.93">sed diam nonum</tspan><tspan class="cls-19" x="28.93" y="4.93">m</tspan><tspan x="32.3" y="4.93">y nibh euismod tincidu</tspan><tspan class="cls-20" x="71.59" y="4.93">n</tspan><tspan x="73.86" y="4.93">t utad lao</tspan><tspan class="cls-13" x="90.08" y="4.93">r</tspan><tspan x="91.38" y="4.93">eet </tspan><tspan x="0" y="9.86">dolo</tspan><tspan class="cls-13" x="7.8" y="9.86">r</tspan><tspan x="9.1" y="9.86">e ma</tspan><tspan class="cls-17" x="17.43" y="9.86">g</tspan><tspan x="19.7" y="9.86">na aliquam e</tspan><tspan class="cls-21" x="41.65" y="9.86">ra</tspan><tspan x="44.94" y="9.86">t </tspan><tspan class="cls-13" x="47.17" y="9.86">v</tspan><tspan x="49.1" y="9.86">olutp</tspan><tspan class="cls-22" x="58.29" y="9.86">at</tspan><tspan x="61.6" y="9.86">.</tspan></text><text class="cls-23" transform="translate(285.42 35.98)"><tspan class="cls-24">Y</tspan><tspan x="4.43" y="0">OUR</tspan><tspan class="cls-25" x="20.89" y="0"> </tspan><tspan x="22.39" y="0">TITLE HERE</tspan></text><path class="cls-26" d="M243.16,36.47a9.76,9.76,0,1,0-15.27,8A4.21,4.21,0,0,1,229.73,48v.85h7.36V48a4.09,4.09,0,0,1,1.78-3.41A9.75,9.75,0,0,0,243.16,36.47Z"/><path class="cls-26" d="M230.12,30.47a7.17,7.17,0,0,0-3.59,4.38"/><line class="cls-26" x1="227.79" y1="51.34" x2="239.02" y2="51.34"/><path class="cls-26" d="M234,53.24h-1.25a1.86,1.86,0,0,1-1.87-1.87h5A1.87,1.87,0,0,1,234,53.24Z"/><line class="cls-26" x1="233.41" y1="22.05" x2="233.41" y2="19.05"/><line class="cls-26" x1="226.06" y1="23.75" x2="224.56" y2="21.15"/><line class="cls-26" x1="220.55" y1="28.89" x2="217.96" y2="27.39"/><line class="cls-26" x1="218.36" y1="36.1" x2="215.36" y2="36.1"/><line class="cls-26" x1="220.06" y1="43.45" x2="217.46" y2="44.95"/><line class="cls-26" x1="245.26" y1="44.31" x2="247.86" y2="45.81"/><line class="cls-26" x1="247.46" y1="37.1" x2="250.46" y2="37.1"/><line class="cls-26" x1="245.76" y1="29.75" x2="248.36" y2="28.25"/><line class="cls-26" x1="240.62" y1="24.25" x2="242.12" y2="21.65"/><ellipse class="cls-27" cx="365.08" cy="149.66" rx="74.41" ry="23.97"/><line class="cls-3" x1="160.11" y1="129.92" x2="201.4" y2="129.92"/><line class="cls-3" x1="201.73" y1="161.03" x2="201.73" y2="99.76"/><path class="cls-4" d="M215,99.76h30.26A40.92,40.92,0,0,0,240.52,161H215a5.56,5.56,0,0,1-5.56-5.56V105.33A5.56,5.56,0,0,1,215,99.76Z"/><path class="cls-4" d="M457,130.4A30.63,30.63,0,0,1,426.38,161H299.11a40.91,40.91,0,0,0-4.72-61.27h132A30.64,30.64,0,0,1,457,130.4Z"/><circle class="cls-28" cx="276.91" cy="139.11" r="36.84"/><circle class="cls-6" cx="269.81" cy="132.47" r="36.84"/><circle class="cls-29" cx="275.74" cy="143.09" r="27.44"/><path class="cls-3" d="M269.81,163.93a31.46,31.46,0,1,1,31.46-31.46A31.5,31.5,0,0,1,269.81,163.93Z"/><circle class="cls-4" cx="269.81" cy="132.47" r="25.54" transform="translate(77.62 363.58) rotate(-76.4)"/><text class="cls-8" transform="translate(322 120.35)">INFOG<tspan class="cls-9" x="17.22" y="0">R</tspan><tspan class="cls-10" x="20.66" y="0">APHIC </tspan></text><text class="cls-11" transform="translate(322.4 139.12)"><tspan class="cls-12">L</tspan><tspan x="1.88" y="0">o</tspan><tspan class="cls-13" x="4.14" y="0">r</tspan><tspan x="5.44" y="0">em ipsum dolor sit ame</tspan><tspan class="cls-14" x="45.57" y="0">t</tspan><tspan x="46.92" y="0">, </tspan><tspan class="cls-15" x="48.64" y="0">c</tspan><tspan x="50.45" y="0">onse</tspan><tspan class="cls-16" x="58.67" y="0">c</tspan><tspan class="cls-17" x="60.56" y="0">t</tspan><tspan x="61.9" y="0">etuer adipiscing eli</tspan><tspan class="cls-18" x="94.27" y="0">t</tspan><tspan x="95.62" y="0">, </tspan><tspan x="0" y="4.93">sed diam nonum</tspan><tspan class="cls-19" x="28.93" y="4.93">m</tspan><tspan x="32.3" y="4.93">y nibh euismod tincidu</tspan><tspan class="cls-20" x="71.59" y="4.93">n</tspan><tspan x="73.86" y="4.93">t utad lao</tspan><tspan class="cls-13" x="90.08" y="4.93">r</tspan><tspan x="91.38" y="4.93">eet </tspan><tspan x="0" y="9.86">dolo</tspan><tspan class="cls-13" x="7.8" y="9.86">r</tspan><tspan x="9.1" y="9.86">e ma</tspan><tspan class="cls-17" x="17.43" y="9.86">g</tspan><tspan x="19.7" y="9.86">na aliquam e</tspan><tspan class="cls-21" x="41.65" y="9.86">ra</tspan><tspan x="44.94" y="9.86">t </tspan><tspan class="cls-13" x="47.17" y="9.86">v</tspan><tspan x="49.1" y="9.86">olutp</tspan><tspan class="cls-22" x="58.29" y="9.86">at</tspan><tspan x="61.6" y="9.86">.</tspan></text><text class="cls-23" transform="translate(322.32 131.61)"><tspan class="cls-24">Y</tspan><tspan x="4.43" y="0">OUR</tspan><tspan class="cls-25" x="20.89" y="0"> </tspan><tspan x="22.39" y="0">TITLE HERE</tspan></text><circle class="cls-26" cx="269.43" cy="131.56" r="15.87"/><path class="cls-6" d="M270.2,118.56a.77.77,0,1,0-.77.77A.77.77,0,0,0,270.2,118.56Z"/><circle class="cls-6" cx="269.43" cy="144.34" r="0.77"/><path class="cls-6" d="M263.65,119.9a.77.77,0,1,0-.28,1A.77.77,0,0,0,263.65,119.9Z"/><path class="cls-6" d="M276.54,142.23a.77.77,0,0,0-1.05-.28.77.77,0,1,0,1.05.28Z"/><path class="cls-6" d="M258.65,124.34a.77.77,0,0,0-.76,1.33.77.77,0,0,0,.76-1.33Z"/><path class="cls-6" d="M281,137.23a.77.77,0,1,0,.28,1.05A.78.78,0,0,0,281,137.23Z"/><circle class="cls-6" cx="256.54" cy="131.45" r="0.77"/><path class="cls-6" d="M282.32,130.68a.77.77,0,1,0,.77.77A.77.77,0,0,0,282.32,130.68Z"/><path class="cls-6" d="M257.89,137.23a.77.77,0,0,0,.76,1.33.76.76,0,0,0,.28-1.05A.77.77,0,0,0,257.89,137.23Z"/><path class="cls-6" d="M280.21,124.34a.78.78,0,0,0-.28,1,.77.77,0,0,0,1.05.28.77.77,0,1,0-.77-1.33Z"/><path class="cls-6" d="M262.32,142.23a.77.77,0,0,0,1.33.77.77.77,0,1,0-1.33-.77Z"/><path class="cls-6" d="M275.21,119.9a.78.78,0,0,0,.28,1,.77.77,0,0,0,.77-1.33A.78.78,0,0,0,275.21,119.9Z"/><polyline class="cls-26" points="269.37 123.03 269.37 131.56 266.46 134.47"/><ellipse class="cls-30" cx="365.08" cy="246.6" rx="74.41" ry="23.97"/><line class="cls-3" x1="160.11" y1="226.11" x2="201.4" y2="226.11"/><line class="cls-3" x1="201.73" y1="257.22" x2="201.73" y2="195.95"/><path class="cls-4" d="M215,196h30.26a40.92,40.92,0,0,0-4.71,61.27H215a5.56,5.56,0,0,1-5.56-5.56V201.52A5.57,5.57,0,0,1,215,196Z"/><path class="cls-4" d="M457,226.59a30.63,30.63,0,0,1-30.63,30.63H299.11A40.91,40.91,0,0,0,294.39,196h132A30.64,30.64,0,0,1,457,226.59Z"/><circle class="cls-31" cx="276.91" cy="235.3" r="36.84"/><circle class="cls-6" cx="269.81" cy="228.66" r="36.84"/><circle class="cls-32" cx="275.74" cy="239.28" r="27.44"/><path class="cls-3" d="M269.81,260.12a31.46,31.46,0,1,1,31.46-31.46A31.5,31.5,0,0,1,269.81,260.12Z"/><circle class="cls-4" cx="269.81" cy="228.66" r="25.54"/><text class="cls-8" transform="translate(322 216.54)">INFOG<tspan class="cls-9" x="17.22" y="0">R</tspan><tspan class="cls-10" x="20.66" y="0">APHIC </tspan></text><text class="cls-11" transform="translate(322.4 235.31)"><tspan class="cls-12">L</tspan><tspan x="1.88" y="0">o</tspan><tspan class="cls-13" x="4.14" y="0">r</tspan><tspan x="5.44" y="0">em ipsum dolor sit ame</tspan><tspan class="cls-14" x="45.57" y="0">t</tspan><tspan x="46.92" y="0">, </tspan><tspan class="cls-15" x="48.64" y="0">c</tspan><tspan x="50.45" y="0">onse</tspan><tspan class="cls-16" x="58.67" y="0">c</tspan><tspan class="cls-17" x="60.56" y="0">t</tspan><tspan x="61.9" y="0">etuer adipiscing eli</tspan><tspan class="cls-18" x="94.27" y="0">t</tspan><tspan x="95.62" y="0">, </tspan><tspan x="0" y="4.93">sed diam nonum</tspan><tspan class="cls-19" x="28.93" y="4.93">m</tspan><tspan x="32.3" y="4.93">y nibh euismod tincidu</tspan><tspan class="cls-20" x="71.59" y="4.93">n</tspan><tspan x="73.86" y="4.93">t utad lao</tspan><tspan class="cls-13" x="90.08" y="4.93">r</tspan><tspan x="91.38" y="4.93">eet </tspan><tspan x="0" y="9.86">dolo</tspan><tspan class="cls-13" x="7.8" y="9.86">r</tspan><tspan x="9.1" y="9.86">e ma</tspan><tspan class="cls-17" x="17.43" y="9.86">g</tspan><tspan x="19.7" y="9.86">na aliquam e</tspan><tspan class="cls-21" x="41.65" y="9.86">ra</tspan><tspan x="44.94" y="9.86">t </tspan><tspan class="cls-13" x="47.17" y="9.86">v</tspan><tspan x="49.1" y="9.86">olutp</tspan><tspan class="cls-22" x="58.29" y="9.86">at</tspan><tspan x="61.6" y="9.86">.</tspan></text><text class="cls-23" transform="translate(322.32 227.79)"><tspan class="cls-24">Y</tspan><tspan x="4.43" y="0">OUR</tspan><tspan class="cls-25" x="20.89" y="0"> </tspan><tspan x="22.39" y="0">TITLE HERE</tspan></text><circle class="cls-26" cx="270.43" cy="221.23" r="4.49"/><path class="cls-26" d="M261.59,240.38v-8a4.83,4.83,0,0,1,4.83-4.83h8a4.83,4.83,0,0,1,4.83,4.83v8"/><circle class="cls-26" cx="260.57" cy="220.67" r="3"/><path class="cls-26" d="M253.74,236.37V229.3a3.73,3.73,0,0,1,3.73-3.73h6.19"/><circle class="cls-26" cx="280.29" cy="220.67" r="3"/><path class="cls-26" d="M287.11,236.37V229.3a3.73,3.73,0,0,0-3.73-3.73h-6.19"/><ellipse class="cls-33" cx="331.32" cy="341.98" rx="74.41" ry="23.97"/><path class="cls-3" d="M75.22,282.6l28.6,28.6a38.11,38.11,0,0,0,27,11.17H164.5"/><line class="cls-3" x1="164.83" y1="353.25" x2="164.83" y2="291.98"/><path class="cls-4" d="M178.07,292h30.26a40.92,40.92,0,0,0-4.71,61.27H178.07a5.56,5.56,0,0,1-5.56-5.56V297.55A5.56,5.56,0,0,1,178.07,292Z"/><path class="cls-4" d="M420.11,322.62a30.63,30.63,0,0,1-30.63,30.63H262.21A40.91,40.91,0,0,0,257.49,292h132a30.64,30.64,0,0,1,30.63,30.64Z"/><circle class="cls-34" cx="240.01" cy="331.33" r="36.84"/><circle class="cls-6" cx="232.91" cy="324.69" r="36.84"/><circle class="cls-35" cx="238.84" cy="335.31" r="27.44"/><circle class="cls-3" cx="232.91" cy="324.69" r="31.46" transform="translate(-3.82 2.77) rotate(-0.68)"/><circle class="cls-4" cx="232.91" cy="324.69" r="25.54" transform="translate(-107.9 116.07) rotate(-22.87)"/><text class="cls-8" transform="translate(285.1 310.97)">INFOG<tspan class="cls-9" x="17.22" y="0">R</tspan><tspan class="cls-10" x="20.66" y="0">APHIC </tspan></text><text class="cls-11" transform="translate(285.5 329.74)"><tspan class="cls-12">L</tspan><tspan x="1.88" y="0">o</tspan><tspan class="cls-13" x="4.14" y="0">r</tspan><tspan x="5.44" y="0">em ipsum dolor sit ame</tspan><tspan class="cls-14" x="45.57" y="0">t</tspan><tspan x="46.92" y="0">, </tspan><tspan class="cls-15" x="48.64" y="0">c</tspan><tspan x="50.45" y="0">onse</tspan><tspan class="cls-16" x="58.67" y="0">c</tspan><tspan class="cls-17" x="60.56" y="0">t</tspan><tspan x="61.9" y="0">etuer adipiscing eli</tspan><tspan class="cls-18" x="94.27" y="0">t</tspan><tspan x="95.62" y="0">, </tspan><tspan x="0" y="4.93">sed diam nonum</tspan><tspan class="cls-19" x="28.93" y="4.93">m</tspan><tspan x="32.3" y="4.93">y nibh euismod tincidu</tspan><tspan class="cls-20" x="71.59" y="4.93">n</tspan><tspan x="73.86" y="4.93">t utad lao</tspan><tspan class="cls-13" x="90.08" y="4.93">r</tspan><tspan x="91.38" y="4.93">eet </tspan><tspan x="0" y="9.86">dolo</tspan><tspan class="cls-13" x="7.8" y="9.86">r</tspan><tspan x="9.1" y="9.86">e ma</tspan><tspan class="cls-17" x="17.43" y="9.86">g</tspan><tspan x="19.7" y="9.86">na aliquam e</tspan><tspan class="cls-21" x="41.65" y="9.86">ra</tspan><tspan x="44.94" y="9.86">t </tspan><tspan class="cls-13" x="47.17" y="9.86">v</tspan><tspan x="49.1" y="9.86">olutp</tspan><tspan class="cls-22" x="58.29" y="9.86">at</tspan><tspan x="61.6" y="9.86">.</tspan></text><text class="cls-23" transform="translate(285.42 322.23)"><tspan class="cls-24">Y</tspan><tspan x="4.43" y="0">OUR</tspan><tspan class="cls-25" x="20.89" y="0"> </tspan><tspan x="22.39" y="0">TITLE HERE</tspan></text><path class="cls-26" d="M248.63,325.6v-3.46a1.11,1.11,0,0,0-1.11-1.11H245a12.44,12.44,0,0,0-1.13-3,1.13,1.13,0,0,1,.21-1.31l1.16-1.16a1.1,1.1,0,0,0,0-1.57l-2.45-2.46a1.11,1.11,0,0,0-1.57,0l-1.16,1.16a1.13,1.13,0,0,1-1.31.21,12.44,12.44,0,0,0-3-1.13v-2.52a1.11,1.11,0,0,0-1.11-1.11h-3.46a1.12,1.12,0,0,0-1.12,1.11v2.52a12.31,12.31,0,0,0-3.7,1.53l-1.79-1.78a1.12,1.12,0,0,0-1.57,0L220.53,314a1.13,1.13,0,0,0,0,1.58l1.79,1.78a12,12,0,0,0-1.54,3.71h-2.52a1.11,1.11,0,0,0-1.11,1.11v3.46a1.12,1.12,0,0,0,1.11,1.12h2.52a12.19,12.19,0,0,0,1.54,3.7l-1.79,1.78a1.13,1.13,0,0,0,0,1.58l2.45,2.45a1.12,1.12,0,0,0,1.57,0l1.79-1.78A12.58,12.58,0,0,0,230,336v2.52a1.11,1.11,0,0,0,1.12,1.11h3.46a1.11,1.11,0,0,0,1.11-1.11V336a12.52,12.52,0,0,0,3.71-1.53l1.78,1.78a1.12,1.12,0,0,0,1.57,0l2.46-2.45a1.13,1.13,0,0,0,0-1.58l-1.78-1.78a12.42,12.42,0,0,0,1.53-3.7h2.52A1.12,1.12,0,0,0,248.63,325.6ZM232.89,332a8.14,8.14,0,1,1,8.14-8.14A8.13,8.13,0,0,1,232.89,332Zm0-4.89a3.25,3.25,0,1,1,3.25-3.25A3.25,3.25,0,0,1,232.89,327.12Z"/><path class="cls-4" d="M70.88,100a79.58,79.58,0,0,1,0,159.15Z"/><path class="cls-4" d="M70.88,277.15a97.63,97.63,0,0,0,0-195.25v2a95.62,95.62,0,0,1,0,191.24Z"/><circle class="cls-4" cx="70.88" cy="82.75" r="10.47" transform="matrix(0.23, -0.97, 0.97, 0.23, -25.94, 132.72)"/><circle class="cls-6" cx="70.88" cy="82.75" r="6.25"/><circle class="cls-4" cx="70.88" cy="275.57" r="10.47" transform="matrix(0.23, -0.97, 0.97, 0.23, -213.6, 281.24)"/><circle class="cls-6" cx="70.88" cy="275.57" r="6.25"/><circle class="cls-4" cx="154.37" cy="227.36" r="10.47" transform="matrix(0.13, -0.99, 0.99, 0.13, -91.03, 351.06)"/><path class="cls-6" d="M157.5,222a6.25,6.25,0,1,1-8.54,2.29A6.24,6.24,0,0,1,157.5,222Z"/><circle class="cls-4" cx="154.37" cy="130.95" r="10.47" transform="translate(8.39 271.2) rotate(-84.16)"/><path class="cls-6" d="M151.25,125.54a6.25,6.25,0,1,1-2.29,8.54A6.24,6.24,0,0,1,151.25,125.54Z"/><path class="cls-36" d="M70.88,108.65V250.39a70.87,70.87,0,1,1,0-141.74Z"/><circle class="cls-37" cx="82.24" cy="190.13" r="61.12" transform="translate(-118.51 241.26) rotate(-80.9)"/><circle class="cls-6" cx="70.88" cy="179.52" r="61.12" transform="translate(-106.18 102.7) rotate(-45)"/><text class="cls-38" transform="translate(33.35 188.3)">INFOG<tspan class="cls-39" x="33.42" y="0">R</tspan><tspan x="40.09" y="0">APHIC</tspan></text><text class="cls-40" transform="translate(24.68 202.98)">TITLE GOES HERE</text><polygon class="cls-4" points="59.46 164.04 65.28 158.22 65.28 169.98 59.46 169.98 59.46 164.04"/><polygon class="cls-4" points="72.8 164.45 72.8 169.98 66.97 169.98 66.97 158.62 72.8 164.45"/><polygon class="cls-4" points="74.48 162.58 80.3 156.76 80.3 169.98 74.48 169.98 74.48 162.58"/><polygon class="cls-4" points="87.81 152.61 87.81 169.98 81.99 169.98 81.99 155.07 86.13 150.92 87.81 152.61"/><polygon class="cls-4" points="88.41 142.86 83 143.47 84.7 145.17 72.7 157.18 65.92 150.4 58.87 157.45 58.87 160.31 65.92 153.26 72.7 160.04 86.13 146.6 87.8 148.27 88.41 142.86"/></g></g></g></svg>