<svg xmlns="http://www.w3.org/2000/svg" viewBox="0 0 63.9 39"><defs><style>.cls-1{fill:none;stroke:#2471a3;stroke-miterlimit:10;}</style></defs><title>Asset 2hdpi</title><g id="Layer_2" data-name="Layer 2"><g id="Layer_1-2" data-name="Layer 1"><g id="paths"><g id="Internet"><path class="cls-1" d="M55.6,38.5H10.1C4.8,38.5.5,33.7.5,27.9s4.3-10.6,9.6-10.6a4.1,4.1,0,0,1,1.1.1,8.44,8.44,0,0,1,7.3-4.5,6.72,6.72,0,0,1,2.4.4v-.4C20.9,6,25.9.5,32.1.5A11.12,11.12,0,0,1,42.2,7.7a10,10,0,0,1,5.3-1.6c6,0,10.8,5.4,10.8,12a13.55,13.55,0,0,1-.2,2,9.58,9.58,0,0,1,5.3,8.8c0,4.5-2.8,8.3-6.6,9.3Z"/></g></g></g></g></svg>