<svg xmlns="http://www.w3.org/2000/svg" viewBox="0 0 70.76 41.12"><defs><style>.cls-1{fill:#2471a3;}</style></defs><title>Asset 1hdpi</title><g id="Layer_2" data-name="Layer 2"><g id="Layer_1-2" data-name="Layer 1"><circle class="cls-1" cx="17.75" cy="17.65" r="8.7"/><path class="cls-1" d="M34.25,20.05l-2.4-1v-2.6l2.4-1a2.37,2.37,0,0,0,1.3-1.3,2.77,2.77,0,0,0,0-1.8l-1.3-3.2A2.37,2.37,0,0,0,33,7.85a2.78,2.78,0,0,0-1.8,0l-2.4,1-.1-.1-1.6-1.6-.1-.1-.1-.1,1-2.4a2.39,2.39,0,0,0-1.3-3.1L23.35.15a2.78,2.78,0,0,0-1.8,0,2.37,2.37,0,0,0-1.3,1.3l-1,2.4h-.1a10.87,10.87,0,0,0-1.3-.1,8.87,8.87,0,0,0-1.3.1h-.1l-1-2.4a2.37,2.37,0,0,0-1.3-1.3,2.77,2.77,0,0,0-1.8,0l-3.2,1.3a2.39,2.39,0,0,0-1.3,3.1l1,2.4-.1.1-1.6,1.6-.1.1-.1.1-2.4-1a2.78,2.78,0,0,0-1.8,0,2.37,2.37,0,0,0-1.3,1.3l-1.3,3.2a2.78,2.78,0,0,0,0,1.8,2.37,2.37,0,0,0,1.3,1.3l2.4,1v2.6l-2.4,1a2.37,2.37,0,0,0-1.3,1.3,2.77,2.77,0,0,0,0,1.8l1.3,3.2a2.37,2.37,0,0,0,1.3,1.3,2.77,2.77,0,0,0,1.8,0l2.4-1,.1.1,1.6,1.6.1.1.1.1-1,2.4a2.39,2.39,0,0,0,1.3,3.1l3.2,1.3a2.92,2.92,0,0,0,.9.2,2.92,2.92,0,0,0,.9-.2,2.37,2.37,0,0,0,1.3-1.3l1-2.4h.1a10.87,10.87,0,0,0,1.3.1,8.87,8.87,0,0,0,1.3-.1h.1l1,2.4a2.39,2.39,0,0,0,3.1,1.3l3.2-1.3a2.39,2.39,0,0,0,1.3-3.1l-1-2.4.1-.1,1.6-1.6.1-.1.1-.1,2.4,1a2.77,2.77,0,0,0,1.8,0,2.37,2.37,0,0,0,1.3-1.3l1.3-3.2A2.39,2.39,0,0,0,34.25,20.05Zm-.1,2.5-1.3,3.2a.78.78,0,0,1-1.1.5l-2.7-1.1c-.4-.2-.8-.3-.9-.2a7.51,7.51,0,0,0-.7.8l-1.6,1.6a7.51,7.51,0,0,0-.8.7c-.1.1,0,.5.2.9l1.1,2.7a.89.89,0,0,1-.5,1.1l-3.2,1.3a.89.89,0,0,1-1.1-.5l-1.1-2.7c-.2-.5-.4-.8-.5-.8a5.13,5.13,0,0,0-1,.1,6.1,6.1,0,0,1-2.2,0c-.4,0-.9-.1-1-.1s-.3.4-.5.8l-1.1,2.7a.78.78,0,0,1-1.1.5l-3.2-1.3a.78.78,0,0,1-.5-1.1l1.1-2.7c.2-.4.3-.8.2-.9a7.51,7.51,0,0,0-.8-.7l-1.6-1.6a7.51,7.51,0,0,0-.7-.8c-.1-.1-.5,0-.9.2L4,26.25a.89.89,0,0,1-1.1-.5l-1.3-3.2a.89.89,0,0,1,.5-1.1l2.7-1.1c.5-.2.8-.4.8-.5a7.72,7.72,0,0,1-.1-1v-2.2c0-.4.1-.9.1-1s-.4-.3-.8-.5l-2.7-1.1a.78.78,0,0,1-.5-1.1l1.3-3.2A.78.78,0,0,1,4,9.25l2.7,1.1c.4.2.8.3.9.2a7.51,7.51,0,0,0,.7-.8l1.6-1.6a7.51,7.51,0,0,0,.8-.7c.1-.1,0-.5-.2-.9l-1.1-2.7a.89.89,0,0,1,.5-1.1l3.2-1.3a.89.89,0,0,1,1.1.5l1.1,2.7c.2.5.4.8.5.8a5.13,5.13,0,0,0,1-.1,6.1,6.1,0,0,1,2.2,0c.4,0,.9.1,1,.1s.3-.4.5-.8L21.55,2a.78.78,0,0,1,1.1-.5l3.2,1.3a.78.78,0,0,1,.5,1.1l-1.1,2.7c-.2.4-.3.8-.2.9a7.51,7.51,0,0,0,.8.7l1.6,1.6a7.51,7.51,0,0,0,.7.8c.1.1.5,0,.9-.2l2.7-1.1a.89.89,0,0,1,1.1.5l1.3,3.2a.89.89,0,0,1-.5,1.1L31,15.15c-.5.2-.8.4-.8.5a7.72,7.72,0,0,1,.1,1v2.2c0,.4-.1.9-.1,1s.4.3.8.5l2.7,1.1C34.05,21.55,34.25,22.15,34.15,22.55Z"/><circle class="cls-1" cx="52.79" cy="23.22" r="8.7"/><path class="cls-1" d="M69.29,25.62l-2.4-1V22l2.4-1a2.37,2.37,0,0,0,1.3-1.3,2.78,2.78,0,0,0,0-1.8l-1.3-3.2a2.37,2.37,0,0,0-1.3-1.3,2.78,2.78,0,0,0-1.8,0l-2.4,1-.1-.1-1.6-1.6-.1-.1-.1-.1,1-2.4A2.39,2.39,0,0,0,61.59,7l-3.2-1.3a2.78,2.78,0,0,0-1.8,0A2.37,2.37,0,0,0,55.29,7l-1,2.4h-.1a10.87,10.87,0,0,0-1.3-.1,8.87,8.87,0,0,0-1.3.1h-.1l-1-2.4a2.37,2.37,0,0,0-1.3-1.3,2.77,2.77,0,0,0-1.8,0L44.19,7a2.39,2.39,0,0,0-1.3,3.1l1,2.4-.1.1-1.6,1.6-.1.1-.1.1-2.4-1a2.77,2.77,0,0,0-1.8,0,2.37,2.37,0,0,0-1.3,1.3l-1.3,3.2a2.78,2.78,0,0,0,0,1.8,2.37,2.37,0,0,0,1.3,1.3l2.4,1v2.6l-2.4,1a2.37,2.37,0,0,0-1.3,1.3,2.78,2.78,0,0,0,0,1.8l1.3,3.2a2.37,2.37,0,0,0,1.3,1.3,2.78,2.78,0,0,0,1.8,0l2.4-1,.1.1,1.6,1.6.1.1.1.1-1,2.4a2.39,2.39,0,0,0,1.3,3.1l3.2,1.3a2.13,2.13,0,0,0,1.8,0,2.37,2.37,0,0,0,1.3-1.3l1-2.4h.1a10.87,10.87,0,0,0,1.3.1,8.87,8.87,0,0,0,1.3-.1h.1l1,2.4a2.39,2.39,0,0,0,3.1,1.3l3.2-1.3a2.39,2.39,0,0,0,1.3-3.1l-1-2.4L62,34l1.6-1.6.1-.1.1-.1,2.4,1a2.78,2.78,0,0,0,1.8,0,2.37,2.37,0,0,0,1.3-1.3l1.3-3.2A2.39,2.39,0,0,0,69.29,25.62Zm-.1,2.5-1.3,3.2a.78.78,0,0,1-1.1.5l-2.7-1.1c-.4-.2-.8-.3-.9-.2a7.51,7.51,0,0,0-.7.8l-1.6,1.6a7.51,7.51,0,0,0-.8.7c-.1.1,0,.5.2.9l1.1,2.7a.89.89,0,0,1-.5,1.1l-3.2,1.3a.89.89,0,0,1-1.1-.5l-1.1-2.7c-.2-.5-.4-.8-.5-.8a5.13,5.13,0,0,0-1,.1,6.1,6.1,0,0,1-2.2,0c-.4,0-.9-.1-1-.1s-.3.4-.5.8l-1.1,2.7a.78.78,0,0,1-1.1.5l-3.2-1.3a.78.78,0,0,1-.5-1.1l1.1-2.7c.2-.4.3-.8.2-.9a7.51,7.51,0,0,0-.8-.7l-1.6-1.6a7.51,7.51,0,0,0-.7-.8c-.1-.1-.5,0-.9.2L39,31.82a.89.89,0,0,1-1.1-.5l-1.3-3.2a.89.89,0,0,1,.5-1.1l2.7-1.1c.5-.2.8-.4.8-.5a7.72,7.72,0,0,1-.1-1v-2.2c0-.4.1-.9.1-1s-.4-.3-.8-.5l-2.7-1.1a.78.78,0,0,1-.5-1.1l1.3-3.2a.78.78,0,0,1,1.1-.5l2.7,1.1c.4.2.8.3.9.2a7.51,7.51,0,0,0,.7-.8l1.6-1.6a7.51,7.51,0,0,0,.8-.7c.1-.1,0-.5-.2-.9l-1.1-2.7a.89.89,0,0,1,.5-1.1L48.09,7a.89.89,0,0,1,1.1.5l1.1,2.7c.2.5.4.8.5.8a5.13,5.13,0,0,0,1-.1,6.1,6.1,0,0,1,2.2,0c.4,0,.9.1,1,.1s.3-.4.5-.8l1.1-2.7a.78.78,0,0,1,1.1-.5l3.2,1.3a.78.78,0,0,1,.5,1.1l-1.1,2.7c-.2.4-.3.8-.2.9a7.51,7.51,0,0,0,.8.7l1.6,1.6a7.51,7.51,0,0,0,.7.8c.1.1.5,0,.9-.2l2.7-1.1a.89.89,0,0,1,1.1.5l1.3,3.2a.89.89,0,0,1-.5,1.1L66,20.72c-.5.2-.8.4-.8.5a7.72,7.72,0,0,1,.1,1v2.2c0,.4-.1.9-.1,1s.4.3.8.5l2.7,1.1C69.09,27.12,69.29,27.72,69.19,28.12Z"/></g></g></svg>