<svg xmlns="http://www.w3.org/2000/svg" width="707" height="769.5" viewBox="0 0 707 769.5">
  <g id="Profile" transform="translate(0 0.001)">
    <path id="wrapper" d="M616.946,288.621C579.577,123.85,450.443,4.921,298.866.144c-80.079-2.522-164.442,27.28-225.8,131.55-109.8,186.4,6.711,315.211,87.911,376.41A533.488,533.488,0,0,1,266.012,613.961c54.865,72.986,160.4,163.679,286.079,21.618C643.185,532.533,641.843,398.388,616.946,288.621Z" transform="translate(0 0)" fill="#f2f2f2"/>
    <path id="Path_113" data-name="Path 113" d="M706.13,636.81c0,39.29-154.982,112.38-350.172,112.38S0,680.63,0,641.35s160.711-34.44,355.93-34.44S706.13,597.53,706.13,636.81Z" transform="translate(0 20.309)" fill="#3f3d56"/>
    <path id="Path_114" data-name="Path 114" d="M706.13,636.81c0,39.29-154.982,112.38-350.172,112.38S0,680.63,0,641.35s160.711-34.44,355.93-34.44S706.13,597.53,706.13,636.81Z" transform="translate(0 20.309)" opacity="0.1"/>
    <ellipse id="Ellipse_43" data-name="Ellipse 43" cx="353.5" cy="71.14" rx="353.5" ry="71.14" transform="translate(0 590.059)" fill="#3f3d56"/>
    <path id="Path_115" data-name="Path 115" d="M516.28,398.95V589.21l30.48,51.86,2.32,3.95H669.34l2.43-246.07Z" transform="translate(-42 20.309)" fill="#2f2e41"/>
    <path id="Path_116" data-name="Path 116" d="M516.28,398.95V589.21l30.48,51.86,1.87-242.12Z" transform="translate(-30.257 20.309)" opacity="0.1"/>
    <path id="Path_117" data-name="Path 117" d="M225.96,393.88V584.13L195.48,636l-2.32,3.94H72.9L70.47,393.88Z" transform="translate(0 20.309)" fill="#2f2e41"/>
    <path id="Path_118" data-name="Path 118" d="M225.96,393.88V584.13L195.48,636l-1.87-242.12Z" transform="translate(-11.347 23.142)" opacity="0.1"/>
    <path id="Path_119" data-name="Path 119" d="M666.21,390.07v11.42H54.68V385l56.836-32.98H616.2Z" transform="translate(0 10.217)" fill="#2f2e41"/>
    <path id="Path_120" data-name="Path 120" d="M666.21,390.07v11.42H54.68V385Z" transform="translate(0 10.671)" opacity="0.1"/>
    <path id="Path_121" data-name="Path 121" d="M148.21,447.15H119.06l-12.15-8.88h54.66Z" transform="translate(3.034 12.023)" opacity="0.1"/>
    <path id="Path_122" data-name="Path 122" d="M148.21,483.93H119.06l-12.15-8.87h54.66Z" transform="translate(3.034 13.032)" opacity="0.1"/>
    <path id="Path_123" data-name="Path 123" d="M148.21,535.94H119.06l-12.15-8.88h54.66Z" transform="translate(3.034 14.459)" opacity="0.1"/>
    <path id="Path_124" data-name="Path 124" d="M148.21,587.94H119.06l-12.15-8.88h54.66Z" transform="translate(3.034 15.885)" opacity="0.1"/>
    <path id="Path_125" data-name="Path 125" d="M594.02,452.22h29.16l12.14-8.87H580.66Z" transform="translate(-51.195 12.162)" opacity="0.1"/>
    <path id="Path_126" data-name="Path 126" d="M594.02,489.01h29.16l12.14-8.88H580.66Z" transform="translate(-51.195 13.171)" opacity="0.1"/>
    <path id="Path_127" data-name="Path 127" d="M594.02,541.01h29.16l12.14-8.88H580.66Z" transform="translate(-51.195 14.598)" opacity="0.1"/>
    <path id="Path_128" data-name="Path 128" d="M594.02,593.01h29.16l12.14-8.88H580.66Z" transform="translate(-51.195 16.025)" opacity="0.1"/>
    <path id="Path_129" data-name="Path 129" d="M414.44,320.28l-4.05,27s-19.95,11.07-5.93,11.4,80.11,0,80.11,0,12.78,0-7.48-11.72L473,318.66Z" transform="translate(-25.424 9.128)" fill="#3f3d56"/>
    <path id="Path_130" data-name="Path 130" d="M449.38,358.39a54.848,54.848,0,0,1,8.74-6l4.05-27,58.6.05L524.82,352a52.763,52.763,0,0,1,9.36,6.44c2.61-.62,5.45-2.93-9.36-11.49l-4.05-28.31-58.6,1.62-4.05,27S441.36,356.59,449.38,358.39Z" transform="translate(-28.462 9.122)" opacity="0.1"/>
    <path id="Path_131" data-name="Path 131" d="M320.71,132H566.14a9.49,9.49,0,0,1,9.28,9.69V314.33a9.49,9.49,0,0,1-9.28,9.7H320.71a9.5,9.5,0,0,1-9.29-9.7V141.7A9.5,9.5,0,0,1,320.71,132Z" transform="translate(-26.968 4.812)" fill="#3f3d56"/>
    <rect id="Rectangle_21" data-name="Rectangle 21" width="246.23" height="143.85" transform="translate(293.552 147.033)" fill="#f2f2f2"/>
    <ellipse id="Ellipse_44" data-name="Ellipse 44" cx="1.56" cy="1.63" rx="1.56" ry="1.63" transform="translate(462.031 136.08)" fill="#f2f2f2"/>
    <path id="Path_132" data-name="Path 132" d="M575.42,297.5v16.83a9.5,9.5,0,0,1-9.28,9.7H320.71a9.5,9.5,0,0,1-9.29-9.69h0V297.5Z" transform="translate(-26.968 8.361)" fill="#3f3d56"/>
    <ellipse id="Ellipse_45" data-name="Ellipse 45" cx="5.92" cy="6.18" rx="5.92" ry="6.18" transform="translate(457.593 313.057)" fill="#f2f2f2"/>
    <path id="Path_133" data-name="Path 133" d="M481.93,376.26v3.25H314.24v-2.6l.23-.65,4.14-11.72H478.5Z" transform="translate(-22.704 10.083)" fill="#3f3d56"/>
    <g id="mouse" transform="translate(0 -0.001)">
      <path id="Path_134" data-name="Path 134" d="M546.46,373.07c-.3,1.37-1.46,2.81-4.06,4.17-9.35,4.88-28.37-1.31-28.37-1.31s-14.65-2.6-14.65-9.43a11.513,11.513,0,0,1,1.29-.8c3.93-2.17,17-7.53,40.08.23a9.53,9.53,0,0,1,4.39,3,4.94,4.94,0,0,1,1.32,4.14Z" transform="translate(-29.883 10.042)" fill="#3f3d56"/>
      <path id="Path_135" data-name="Path 135" d="M546.46,373.07c-11.44,4.58-21.64,4.92-32.11-2.67-5.28-3.83-10.08-4.77-13.68-4.7,3.93-2.17,17-7.53,40.08.23a9.53,9.53,0,0,1,4.39,3A4.94,4.94,0,0,1,546.46,373.07Z" transform="translate(-29.905 10.004)" opacity="0.1"/>
      <ellipse id="Ellipse_46" data-name="Ellipse 46" cx="4.05" cy="1.3" rx="4.05" ry="1.3" transform="translate(498.125 377.806)" fill="#f2f2f2"/>
    </g>
    <path id="Path_136" data-name="Path 136" d="M481.93,376.26v3.25H314.24v-2.6l.23-.65Z" transform="translate(-22.704 10.244)" opacity="0.1"/>
    <path id="Path_137" data-name="Path 137" d="M367.52,158.6v54.73h54.16s-7-45.6-3.5-59.29Z" transform="translate(-22.215 4.535)" fill="#ffb9b9"/>
    <path id="Path_138" data-name="Path 138" d="M475,232.49S423.43,206,423.43,204.21s-5.25-13.68-8.74-13.68-33.19-10-49.79,4.56L363.15,207l-63.77,43.78,17.47,66.58s11.36,12.77,7.87,21.89,2.62,55.64,2.62,55.64l137.14-4.56v-62s4.37-14.6,7-19.16,0-18.24,0-18.24l21-27.36S489.81,238,475,232.49Z" transform="translate(-22.619 7.021)" fill="#d0cde1"/>
    <g id="left-hand" transform="translate(0 -0.001)">
      <path id="Path_139" data-name="Path 139" d="M299,273.07l3.93-22.34S280.18,353.8,282.8,365.65s21.84,30.1,24.46,31,27.08-78.44,27.08-78.44Z" transform="translate(-17.022 8.442)" opacity="0.1"/>
      <path id="Path_140" data-name="Path 140" d="M311.63,248l-14.85,2.74S274.07,353.8,276.69,365.65s21.84,30.1,24.46,31,27.08-78.44,27.08-78.44Z" transform="translate(-16.654 8.388)" fill="#d0cde1"/>
    </g>
    <g id="right-hand" transform="translate(0 -0.001)">
      <path id="Path_141" data-name="Path 141" d="M477.17,278.55l7.42-15.05s10.48,103.06,3.49,113.1-34.63,13.79-34.63,13.79l-.31-74.9Z" transform="translate(-26.743 8.6)" opacity="0.1"/>
      <path id="Path_142" data-name="Path 142" d="M481.08,251.64l11.36,11.86s10.48,103.06,3.49,113.1-34.63,13.79-34.63,13.79l-.31-74.9Z" transform="translate(-27.206 8.373)" fill="#d0cde1"/>
    </g>
    <path id="Path_143" data-name="Path 143" d="M309,408.52s-25.33-10-29.7,9.12,10.48,104.89,10.48,104.89,9.61,64.76,15.73,66.59,33.19,2.73,37.56-5.47S330,491.52,330,491.52l101.3-1.82s-6.11,73-9.6,79.35-3.5,28.28,0,28.28,41.93-1.83,44.55-7.3,17.47-128.61,17.47-128.61S496,418.55,482,421.29,309,408.52,309,408.52Z" transform="translate(-21.709 14.78)" fill="#3f3d56"/>
    <g id="shoe" transform="translate(0 -0.001)">
      <path id="Path_144" data-name="Path 144" d="M458.38,586.38s8.74-6.38,13.11,0,6.11,13.68-13.11,24.63-34.06,8.21-34.06,6.38V590.94Z" transform="translate(-25.496 16.608)" fill="#2f2e41"/>
      <path id="Path_145" data-name="Path 145" d="M307.26,583.65s-8.73-6.39-13.1,0-6.12,13.68,13.1,24.62,34.07,8.21,34.07,6.39V588.21Z" transform="translate(-17.504 16.53)" fill="#2f2e41"/>
    </g>
    <g id="head" transform="translate(0 -0.001)">
      <ellipse id="Ellipse_47" data-name="Ellipse 47" cx="33.19" cy="34.66" rx="33.19" ry="34.66" transform="translate(334.274 106.611)" fill="#ffb9b9"/>
      <path id="head-2" data-name="head" d="M392.19,97.57A27,27,0,0,0,382.44,99a37.65,37.65,0,0,0-6.94,3.84l-14.66,9.52a7.18,7.18,0,0,0-4.13,6.67l-1.83,14.32c-.47,3.62-.89,7.48.66,10.75,1.29,2.73,3.76,4.59,5.78,6.78a25.21,25.21,0,0,1,6.28,12.74c1,6,.38,13.18,4.91,17,2.46,2.06,5.8,2.45,8.95,2.64a127.8,127.8,0,0,0,25.78-1,10.1,10.1,0,0,0,3.89-1.14,11.1,11.1,0,0,0,3.42-4.24c3.27-5.82,6.64-12,6.61-18.76,0-3.33-.84-6.92.7-9.85a38.609,38.609,0,0,1,2.63-3.57c1.9-2.79,2.27-6.37,2.58-9.78,1-10.88,0-19.16-7.72-26.83C412.18,100.92,402,97.64,392.19,97.57Z" transform="translate(-22.02 0.001)" fill="#2f2e41"/>
    </g>
    <g id="chair" transform="translate(0 -0.001)">
      <path id="Path_147" data-name="Path 147" d="M308.05,516.28,278.9,671.02h14.57l27.94-152.21Z" transform="translate(-16.58 20.31)" fill="#2f2e41"/>
      <path id="Path_148" data-name="Path 148" d="M401.59,528.96l18.22,177.57h12.14L421.02,523.89Z" transform="translate(-23.47 20.31)" fill="#2f2e41"/>
      <path id="Path_149" data-name="Path 149" d="M451.39,523.89,476.9,641.85h12.15l-24.3-120.5Z" transform="translate(-26.652 20.31)" fill="#2f2e41"/>
      <path id="Path_150" data-name="Path 150" d="M354.21,523.89l-3.64,93.86h9.72l7.28-93.86Z" transform="translate(-20.115 16.237)" fill="#2f2e41"/>
      <path id="Path_151" data-name="Path 151" d="M287.4,499.79S268,364.07,322.63,360.27s132.4,0,132.4,0,45-3.81,31.59,139.52c0,0,12.14,41.85-97.18,38.05S287.4,499.79,287.4,499.79Z" transform="translate(-21.933 12.784)" fill="#2471a3"/>
    </g>
    <g id="tree" transform="translate(0 -0.001)">
      <path id="Path_152" data-name="Path 152" d="M738.59,555.21c0,23.67-13.48,31.93-30.1,31.93s-30.1-8.26-30.1-31.93,30.1-53.77,30.1-53.77S738.59,531.54,738.59,555.21Z" transform="translate(-42 15.35)" fill="#2471a3"/>
      <path id="Path_153" data-name="Path 153" d="M707.7,563.71l12.83-24.5-12.78,21.4.14-8.91,8.84-17.73-8.81,15.37.25-16.01,9.47-14.12-9.43,11.6.16-29.37-.94,37.21-9.58-15.32,9.47,18.46-.9,17.89-.03-.47L695.3,543.02l11.06,17.86-.11,2.24-.02.03.01.19-2.28,23.87H707l.37-1.93,11.03-17.82-11.01,16.06Z" transform="translate(-42 15.351)" fill="#3f3d56"/>
      <path id="Path_154" data-name="Path 154" d="M727.71,638.48H691.83l-9.27-54.73h52.41Z" transform="translate(-42 14.951)" fill="#2f2e41"/>
    </g>
    <g id="Album" transform="translate(0 -0.001)">
      <rect id="Rectangle_22" data-name="Rectangle 22" width="74.64" height="91.37" transform="translate(118.012 276.801)" fill="#3f3d56"/>
      <rect id="Rectangle_23" data-name="Rectangle 23" width="51.48" height="63.02" transform="translate(129.155 291.058)" fill="#f2f2f2"/>
    </g>
    <line id="Line3" y1="1" x2="77" transform="translate(412.5 200.499)" fill="none" stroke="#707070" stroke-width="2"/>
    <line id="Line2" x2="93" transform="translate(412.5 183.499)" fill="none" stroke="#707070" stroke-width="3"/>
    <line id="Line1" x2="115" transform="translate(412.5 165.499)" fill="none" stroke="#707070" stroke-width="5"/>
  </g>
</svg>
