<svg xmlns="http://www.w3.org/2000/svg" viewBox="0 0 47 47"><defs><style>.cls-1{fill:#0096d4;}</style></defs><title>Serverhdpi</title><g id="Layer_2" data-name="Layer 2"><g id="Layer_1-2" data-name="Layer 1"><path class="cls-1" d="M45,32.77H1.8A1.76,1.76,0,0,0,0,34.53v10.7A1.76,1.76,0,0,0,1.8,47H45a1.76,1.76,0,0,0,1.8-1.77V34.53A1.76,1.76,0,0,0,45,32.77Zm-41,12.46a1.66,1.66,0,1,1,0-3.31,1.66,1.66,0,1,1,0,3.31Zm39.35-.66H33.84a.55.55,0,1,1,0-1.1h9.45a.55.55,0,1,1,0,1.1Zm0-1.76H33.84a.56.56,0,1,1,0-1.11h9.45a.56.56,0,1,1,0,1.11Zm0-1.77H33.84a.55.55,0,1,1,0-1.1h9.45a.55.55,0,1,1,0,1.1Z"/><path class="cls-1" d="M45.09,16.22H1.91A1.76,1.76,0,0,0,.11,18V28.69a1.76,1.76,0,0,0,1.8,1.76H45.09a1.76,1.76,0,0,0,1.8-1.76V18A1.76,1.76,0,0,0,45.09,16.22Zm-41,12.47a1.66,1.66,0,1,1,0-3.31,1.66,1.66,0,1,1,0,3.31ZM43.4,28H34a.55.55,0,1,1,0-1.1H43.4a.55.55,0,1,1,0,1.1Zm0-1.76H34a.53.53,0,0,1-.57-.55.54.54,0,0,1,.57-.56H43.4a.53.53,0,0,1,.56.56A.52.52,0,0,1,43.4,26.26Zm0-1.77H34a.55.55,0,1,1,0-1.1H43.4a.55.55,0,1,1,0,1.1Z"/><path class="cls-1" d="M45.2,0H2A1.76,1.76,0,0,0,.22,1.77v10.7A1.76,1.76,0,0,0,2,14.23H45.2A1.76,1.76,0,0,0,47,12.47V1.77A1.76,1.76,0,0,0,45.2,0Zm-41,12.47a1.72,1.72,0,0,1-1.69-1.66A1.71,1.71,0,0,1,4.16,9.16a1.71,1.71,0,0,1,1.69,1.65A1.72,1.72,0,0,1,4.16,12.47Zm39.35-.66H34.07a.53.53,0,0,1-.56-.56.52.52,0,0,1,.56-.55h9.44a.53.53,0,0,1,.57.55A.54.54,0,0,1,43.51,11.81Zm0-1.77H34.07a.55.55,0,1,1,0-1.1h9.44a.55.55,0,1,1,0,1.1Zm0-1.77H34.07a.55.55,0,1,1,0-1.1h9.44a.55.55,0,1,1,0,1.1Z"/></g></g></svg>