<svg xmlns="http://www.w3.org/2000/svg" viewBox="0 0 190.13 178.18"><defs><style>.cls-1{fill:#2372ba;}.cls-2{fill:#2073b7;}.cls-3,.cls-4{fill:#2471a3;}.cls-10,.cls-4,.cls-5,.cls-8,.cls-9{fill-rule:evenodd;}.cls-5{fill:#394d54;}.cls-6{fill:#00aada;}.cls-7{fill:#008bb8;}.cls-8{fill:#00acd3;}.cls-9{fill:#20c2ef;}.cls-10{fill:#d4edf1;}.cls-11{fill:#bfdbe0;}.cls-12{fill:#0072c6;}.cls-13,.cls-15,.cls-16,.cls-17{fill:#fff;}.cls-13{opacity:0.4;}.cls-13,.cls-15,.cls-17{isolation:isolate;}.cls-14{fill:#3999c6;}.cls-15{opacity:0.25;}.cls-17{opacity:0.6;}.cls-18{fill:#7fba00;}.cls-19{fill:#59b4d9;}</style></defs><title>Serviceshdpi</title><g id="Layer_2" data-name="Layer 2"><g id="Layer_1-2" data-name="Layer 1"><path class="cls-1" d="M138.49,32.36l20.44-11.8L152.62,4.23l-25.2,14.55Zm7.38-17.42c2.34-.54,4.06,2,4.1,4.1,0,.36,0,.45-.24.6L149,20l-1.21.7a3.78,3.78,0,0,0,0-2.42c-.22-.57-.62-1.26-1.28-1.22-1.65.14-1.16,2.4-1.28,3.39a3.43,3.43,0,0,1-6.41,1.5,11.59,11.59,0,0,1-.91-1.78c-.1-.17-.15-.26,0-.36l.44-.25,1.56-.9c-.12,1,.16,2.68,1.3,3.06a1.23,1.23,0,0,0,1.36-.44A2.44,2.44,0,0,0,143,20a7.46,7.46,0,0,1,.39-3.11A3.17,3.17,0,0,1,145.87,14.94Z"/><path class="cls-2" d="M132.74,4.39c.1.18.2.35.33.39a7.57,7.57,0,0,0-1.57,5.87,5,5,0,0,1-.49.17,2.86,2.86,0,0,0-1,3.82,2.5,2.5,0,0,0,1,1l4.33-2.5a3,3,0,0,0-.36-1.41,3.33,3.33,0,0,0-1.83-1.37,6,6,0,0,1,1.37-4.83,3.14,3.14,0,0,0,2.27-.27,3.36,3.36,0,0,0,1.37-1.83,6.24,6.24,0,0,1,4.87,1.23,3.09,3.09,0,0,0,.27,2.27,2.48,2.48,0,0,0,1,1l4.33-2.5A2.82,2.82,0,0,0,148.35,4a2.87,2.87,0,0,0-3.83-1c-.17.1-.34.2-.38.33a7.44,7.44,0,0,0-5.82-1.49,4.16,4.16,0,0,1-.17-.48,2.85,2.85,0,0,0-3.82-1C132.46,1.32,131.94,3,132.74,4.39Z"/><path class="cls-1" d="M67.44,19.66A23,23,0,0,0,64,17.06a3.22,3.22,0,0,1-1.07-.7.31.31,0,0,1-.19.1l-.19.2v.2l3.77,3.8a.6.6,0,0,1,.1.4v1.8a.22.22,0,0,1-.2.2H63.86a.35.35,0,0,1-.29-.1l-.77-.7c-.1-.1-.1-.1-.2,0l-.68.9v.3l1.46,1.4a.54.54,0,0,0,.48.2h3.87a.47.47,0,0,0,.49-.5v-3.8C68.32,20.36,68,20.06,67.44,19.66Z"/><path class="cls-1" d="M60,16.46a.36.36,0,0,1,.09.2l.2.2h.19s3.29-3.5,3.68-3.9a.57.57,0,0,1,.39-.1h1.74a.22.22,0,0,1,.2.2v2.4a.37.37,0,0,1-.1.3l-.78.8c-.09.1-.09.1,0,.2l.88.7h.29S68,16.06,68.12,16a.59.59,0,0,0,.2-.5v-4a.47.47,0,0,0-.49-.5H64.15c-.29,0-.58.3-1,.8a23.81,23.81,0,0,0-2.51,3.6C60.38,15.76,60.08,16.36,60,16.46Z"/><path class="cls-1" d="M70.06,8.06H57.28V2.36L39.94,5.16v24.5l17.34,2.8v-4.7H70.06a.83.83,0,0,0,.87-.9V9C71,8.36,70.64,8.06,70.06,8.06ZM51.37,24.16h0L46,23.66V12l4.94-.4v2.3l-3,.1v2.7h3V19l-3-.1v2.7l3.49.2Zm18.3,2.3H57.37v-1.4h1.36c.29,0,.58-.3,1-.8a24.6,24.6,0,0,0,2.52-3.6,3.44,3.44,0,0,1,.67-1.1.36.36,0,0,1-.09-.2l-.2-.2h-.19s-3.29,3.5-3.68,3.9a.57.57,0,0,1-.39.1H57.28v-5.3c.58.4,1.35.9,1.55,1a3.12,3.12,0,0,1,1.06.7.35.35,0,0,1,.19-.1l.2-.2v-.2s-1.84-1.8-3-3v-3.2h1.64a.34.34,0,0,1,.29.1l.78.8c.09.1.09.1.19,0l.68-.9v-.3s-1.36-1.3-1.45-1.4-.29-.1-.58-.1H57.28V9.66H69.57l.1,16.8Z"/><g id="Layer_1-2-2" data-name="Layer 1-2"><g id="Powershell_script_file" data-name="Powershell script file"><path class="cls-3" d="M8,76.12.42,89.89A3.52,3.52,0,0,0,1.6,94.52l15.21,9.25a3.17,3.17,0,0,0,4.41-1.24l8.36-15.25a3.52,3.52,0,0,0-1.18-4.63L14.51,74.21ZM27.4,84.47a1.31,1.31,0,0,1,.46,1.74v0l-8.36,15.25a1.19,1.19,0,0,1-1.65.49l0,0L2.6,92.71A1.32,1.32,0,0,1,2.14,91v0L9.21,78.08l3.39,2,1.91-3.49Z"/><path class="cls-4" d="M22.29,86.68l.07,0a1.35,1.35,0,0,1,.26,1.46l-2,3.64a.74.74,0,0,1-1.06.21L19.48,92l-.07,0a1.36,1.36,0,0,1-.19-1.42l2-3.64C21.42,86.33,21.9,86.26,22.29,86.68Zm-4.8,10h0a.86.86,0,0,1-.91-.81V95.8l-.72-9-6.58,1.5c-.42.12-.81-.3-.91-.92l0-.07A.79.79,0,0,1,9,86.46l6.44-1.41.73-.2.1,0a1,1,0,0,1,1.17.61l.08,1,.73,9A1.2,1.2,0,0,1,17.49,96.72Z"/></g></g><path id="outline" class="cls-5" d="M105.55,75.78H110v4.57h2.26a9.71,9.71,0,0,0,3.11-.52,7.73,7.73,0,0,0,1.51-.68,5.55,5.55,0,0,1-1.05-2.89A6.07,6.07,0,0,1,117,72l.47-.55.56.45a7.15,7.15,0,0,1,2.8,4.52,6.86,6.86,0,0,1,5.19.49l.61.35-.32.63c-1.27,2.47-3.91,3.24-6.5,3.1-3.87,9.65-12.3,14.21-22.52,14.21-5.28,0-10.12-2-12.88-6.66l0-.07-.4-.82a13,13,0,0,1-1-6.58l.06-.68h3.83V75.78h4.47V71.31h8.94V66.84h5.37Z"/><path class="cls-6" d="M120,77.47c.3-2.33-1.45-4.16-2.53-5-1.25,1.45-1.44,5.22.52,6.81a9.42,9.42,0,0,1-5.75,1.85H83.62a12.12,12.12,0,0,0,1.19,6.66l.33.59a11.19,11.19,0,0,0,.67,1h0c1.18.07,2.27.1,3.26.08h0a16.58,16.58,0,0,0,4.76-.69.33.33,0,0,1,.43.21.34.34,0,0,1-.21.44l-.5.15h0a14.94,14.94,0,0,1-3.29.54c.08,0-.08,0-.08,0H90c-.51,0-1.07,0-1.64,0s-1.24,0-1.93,0h0c2.39,2.69,6.12,4.3,10.8,4.3,9.91,0,18.31-4.4,22-14.25,2.64.27,5.17-.4,6.33-2.66A6.24,6.24,0,0,0,120,77.47Z"/><path class="cls-7" d="M83.68,84.08a11.35,11.35,0,0,0,1.13,3.68l.33.59a11.19,11.19,0,0,0,.67,1c1.18.07,2.27.1,3.26.08a16.2,16.2,0,0,0,4.76-.7.34.34,0,0,1,.43.22.33.33,0,0,1-.21.43l-.5.16h0a15.69,15.69,0,0,1-3.37.55H90c-.52,0-1.07,0-1.64,0s-1.26,0-2,0c2.39,2.69,6.14,4.3,10.82,4.3,8.48,0,15.86-3.22,20.14-10.33Z"/><path class="cls-8" d="M90.76,76.85h.3v3.23h-.3Zm-.59,0h.32v3.23h-.32Zm-.59,0h.32v3.23h-.32Zm-.58,0h.31v3.23H89Zm-.59,0h.32v3.23h-.32Zm-.58,0h.31v3.23h-.31Zm-.32-.32h3.88V80.4H87.51Z"/><path class="cls-8" d="M95.23,72.38h.31v3.23h-.31Zm-.59,0H95v3.23h-.32Zm-.58,0h.31v3.23h-.31Zm-.59,0h.32v3.23h-.32Zm-.59,0h.32v3.23h-.32Zm-.57,0h.3v3.23h-.3ZM92,72.06h3.88v3.87H92Z"/><path class="cls-9" d="M95.23,76.85h.31v3.23h-.31Zm-.59,0H95v3.23h-.32Zm-.58,0h.31v3.23h-.31Zm-.59,0h.32v3.23h-.32Zm-.59,0h.32v3.23h-.32Zm-.57,0h.3v3.23h-.3ZM92,76.53h3.88V80.4H92Z"/><path class="cls-8" d="M99.7,76.85H100v3.23H99.7Zm-.59,0h.32v3.23h-.32Zm-.58,0h.32v3.23h-.32Zm-.59,0h.32v3.23h-.32Zm-.59,0h.32v3.23h-.32Zm-.57,0h.3v3.23h-.3Zm-.32-.32h3.87V80.4H96.46Z"/><path class="cls-9" d="M99.7,72.38H100v3.23H99.7Zm-.59,0h.32v3.23h-.32Zm-.58,0h.32v3.23h-.32Zm-.59,0h.32v3.23h-.32Zm-.59,0h.32v3.23h-.32Zm-.57,0h.3v3.23h-.3Zm-.32-.32h3.87v3.87H96.46Z"/><path class="cls-9" d="M104.14,76.66h.3v3.23h-.3Zm-.59,0h.32v3.23h-.32Zm-.59,0h.32v3.23H103Zm-.59,0h.32v3.23h-.32Zm-.58,0h.31v3.23h-.31Zm-.58,0h.31v3.23h-.31Zm-.32-.32h3.87v3.87h-3.87Z"/><path class="cls-8" d="M104.14,72.19h.3v3.23h-.3Zm-.59,0h.32v3.23h-.32Zm-.59,0h.32v3.23H103Zm-.59,0h.32v3.23h-.32Zm-.58,0h.31v3.23h-.31Zm-.58,0h.31v3.23h-.31Zm-.32-.33h3.87v3.88h-3.87Z"/><path class="cls-9" d="M104.14,67.72h.3V71h-.3Zm-.59,0h.32V71h-.32Zm-.59,0h.32V71H103Zm-.59,0h.32V71h-.32Zm-.58,0h.31V71h-.31Zm-.58,0h.31V71h-.31Zm-.32-.33h3.87v3.88h-3.87Z"/><path class="cls-8" d="M108.42,76.85h.3v3.23h-.3Zm-.59,0h.32v3.23h-.32Zm-.59,0h.32v3.23h-.32Zm-.59,0H107v3.23h-.32Zm-.58,0h.32v3.23h-.32Zm-.58,0h.31v3.23h-.31Zm-.32-.32h3.88V80.4h-3.88Z"/><path class="cls-10" d="M95.62,86.69a1.07,1.07,0,1,1-1.07,1.07,1.07,1.07,0,0,1,1.07-1.07"/><path class="cls-5" d="M76.71,84.47h49.73c-1.08-.27-3.42-.65-3-2.06-2,2.27-6.72,1.59-7.91.47-1.34,1.94-9.11,1.2-9.65-.31-1.67,2-6.86,2-8.53,0-.54,1.51-8.31,2.25-9.65.31-1.2,1.12-5.94,1.8-7.91-.47.38,1.42-2,1.79-3,2.06"/><path class="cls-11" d="M98.46,94.39a9.41,9.41,0,0,1-4.91-4.83A16.72,16.72,0,0,1,90,90.1c-.52,0-1.06,0-1.63,0s-1.36,0-2.08-.06c2.42,2.43,5.41,4.3,10.94,4.33C97.65,94.41,98.06,94.41,98.46,94.39Z"/><path class="cls-12" d="M104,146.68,89.31,165.12a1.3,1.3,0,0,0,.26,1.87l14.67,10.68a1.34,1.34,0,0,0,1.57,0L120.49,167a1.3,1.3,0,0,0,.25-1.87l-14.67-18.44A1.33,1.33,0,0,0,104,146.68Z"/><path class="cls-13" d="M106.48,177.18,120,167.33a3.91,3.91,0,0,0-2.76-1.5l-3.76-4.74a3.71,3.71,0,0,0,.07-.67,3.91,3.91,0,0,0-7.82,0,3.71,3.71,0,0,0,.06.67l-3.75,4.74a3.87,3.87,0,0,0,.31,7.74,3.84,3.84,0,0,0,.76-.07l2.65,1.91A3.81,3.81,0,0,0,106.48,177.18Z"/><path class="cls-14" d="M119.34,169.51l-8.93-11.27h-1.49L100,169.51l.14,1,8.71,6.28h1.64l8.71-6.28Z"/><ellipse class="cls-14" cx="102.38" cy="169.69" rx="3.25" ry="3.22"/><ellipse class="cls-14" cx="116.96" cy="169.69" rx="3.25" ry="3.22"/><ellipse class="cls-14" cx="109.67" cy="174.95" rx="3.25" ry="3.22"/><path class="cls-14" d="M109.67,163.65a3.23,3.23,0,1,1,3.24-3.23A3.25,3.25,0,0,1,109.67,163.65Z"/><polygon class="cls-15" points="103.32 169.56 109.67 167.47 116.01 169.56 109.67 174.14 103.32 169.56"/><ellipse class="cls-16" cx="102.38" cy="169.69" rx="1.92" ry="1.91"/><ellipse class="cls-16" cx="116.96" cy="169.69" rx="1.92" ry="1.91"/><ellipse class="cls-16" cx="109.67" cy="174.95" rx="1.92" ry="1.91"/><path class="cls-16" d="M109.67,162.4a1.91,1.91,0,1,1,1.92-1.91A1.93,1.93,0,0,1,109.67,162.4Z"/><polygon class="cls-17" points="101.86 169.29 109.15 160.08 110.19 160.9 102.9 170.1 101.86 169.29"/><polygon class="cls-17" points="109.14 160.9 110.19 160.09 117.47 169.29 116.43 170.1 109.14 160.9"/><polygon class="cls-16" points="117.34 170.23 116.57 169.16 110.33 173.66 110.33 160.49 109 160.49 109 173.66 102.77 169.16 101.99 170.23 109.28 175.49 110.06 175.49 117.34 170.23"/><ellipse class="cls-18" cx="102.38" cy="169.69" rx="1.26" ry="1.25"/><ellipse class="cls-18" cx="116.96" cy="169.69" rx="1.26" ry="1.25"/><ellipse class="cls-18" cx="109.67" cy="174.95" rx="1.26" ry="1.25"/><ellipse class="cls-18" cx="109.67" cy="160.49" rx="1.26" ry="1.25"/><path class="cls-19" d="M183.46,111.79A17,17,0,1,1,186.63,88a16.93,16.93,0,0,1-3.17,23.83"/><path class="cls-16" d="M180.34,101.27a3.66,3.66,0,0,0,5.13.69l.22-.21c1.64,1.15,2.78,1.91,3.42,2.35a12.92,12.92,0,0,0,.45-1.46c-1-.74-2-1.5-2.91-2.28a3.63,3.63,0,0,0-5.22-4.45q-2.88-2.59-5.63-5.33c6.23-3.35,10.66-2.86,10.66-2.86A16.78,16.78,0,0,0,184,85.2a18.13,18.13,0,0,0-11.37,2.12h0c-1.63-1.71-3.22-3.45-4.75-5.24a15.25,15.25,0,0,0-2.26.91,36.43,36.43,0,0,0,4.6,5.83h0a30.66,30.66,0,0,0-4.72,4.09l-.58.63a5.14,5.14,0,0,0-2.8.2A12.54,12.54,0,0,1,161,86.38a18.28,18.28,0,0,0-1.83,2.22,11,11,0,0,0,.67,6.87,5.13,5.13,0,0,0,0,6.22,5.46,5.46,0,0,0,.38.44,25.61,25.61,0,0,0-1,6c.16.22.16.39.32.61a16.9,16.9,0,0,0,2.83,2.72,18.52,18.52,0,0,1,1.16-7.73,5.19,5.19,0,0,0,2.37-.38c.43.38.89.76,1.38,1.16a28.09,28.09,0,0,0,4.95,3.16,3.36,3.36,0,0,0,5.41,3,3.44,3.44,0,0,0,.75-.82,30.24,30.24,0,0,0,6.67.69,12.51,12.51,0,0,0,2.18-2.68,18.14,18.14,0,0,1-8.37-.57,3.34,3.34,0,0,0-5.11-2.12,32.14,32.14,0,0,1-4.59-3.06c-.32-.24-.62-.5-.93-.76a5.14,5.14,0,0,0,.22-5.13c.19-.2.38-.39.59-.58A37,37,0,0,1,173.45,92s-.1-.11-.16-.16l.17.15h0c2.13,2,4.38,3.82,6.51,5.48A3.61,3.61,0,0,0,180.34,101.27Z"/></g></g></svg>