<svg xmlns="http://www.w3.org/2000/svg" viewBox="0 0 50 46.1"><defs><style>.cls-1{fill:#59b4d9;}.cls-2{fill:#fff;}.cls-3{fill:#0072c6;}</style></defs><title>Asset 1hdpi</title><g id="Layer_2" data-name="Layer 2"><g id="Layer_1-2" data-name="Layer 1"><path class="cls-1" d="M47,0H2.7A2.78,2.78,0,0,0,0,2.8V33.7a2.78,2.78,0,0,0,2.7,2.8H18.8c1.6,5.8-.6,6.6-10.2,6.6v3H41.2v-3c-9.6,0-10.6-.8-8.9-6.6H47a3,3,0,0,0,3-2.8V2.8A3,3,0,0,0,47,0Z"/><polygon class="cls-2" points="46.1 3.8 46.1 32.7 3.8 32.7 3.8 3.8 46.1 3.8"/><path class="cls-3" d="M25.5,17.4h-.1l-8.8-5.1c-.1,0-.1-.1-.1-.2a.35.35,0,0,1,.1-.2l8.8-5h.3L34.5,12c.1,0,.1.1.1.2s0,.2-.1.2l-8.7,5h-.3"/><path class="cls-3" d="M24.3,29.7h-.1l-8.8-5.1c-.1,0-.1-.1-.1-.2V14.2a.35.35,0,0,1,.1-.2h.3l8.8,5.1c.1,0,.1.1.1.2V29.5a.35.35,0,0,1-.1.2h-.2"/><path class="cls-3" d="M26.8,29.7h-.1c-.1,0-.1-.1-.1-.2V19.4a.35.35,0,0,1,.1-.2l8.8-5.1h.3c.1,0,.1.1.1.2V24.4a.35.35,0,0,1-.1.2L27,29.7h-.2"/></g></g></svg>