<svg xmlns="http://www.w3.org/2000/svg" xmlns:xlink="http://www.w3.org/1999/xlink" viewBox="0 0 445.99 368.17"><defs><style>.cls-1,.cls-4,.cls-6{fill:none;}.cls-1{stroke:#2471a3;}.cls-1,.cls-4{stroke-miterlimit:10;}.cls-2{fill:url(#radial-gradient);}.cls-11,.cls-3{fill:#14678c;}.cls-4{stroke:#fff;}.cls-13,.cls-5{fill:#fff;}.cls-6{stroke:#14678c;stroke-linecap:round;stroke-linejoin:round;}.cls-7{fill:url(#radial-gradient-2);}.cls-8{fill:url(#radial-gradient-3);}.cls-9{fill:url(#radial-gradient-4);}.cls-10,.cls-14{fill:#2471a3;}.cls-11{opacity:0.75;}.cls-11,.cls-13{isolation:isolate;}.cls-12{fill:url(#radial-gradient-5);}.cls-13{font-size:11.78px;font-family:Arial-BoldMT, Arial;}.cls-13,.cls-14{font-weight:700;}.cls-14{font-size:16px;font-family:TimesNewRomanPS-BoldMT, Times New Roman;}.cls-15{letter-spacing:-0.02em;}</style><radialGradient id="radial-gradient" cx="240" cy="326.5" r="36.85" gradientTransform="matrix(0.38, 0.92, 0.92, -0.38, -153.67, -52.53)" gradientUnits="userSpaceOnUse"><stop offset="0"/><stop offset="1" stop-color="#fff"/></radialGradient><radialGradient id="radial-gradient-2" cx="276.9" cy="230.89" r="36.84" gradientTransform="matrix(1, 0, 0, -1, 0, 370)" xlink:href="#radial-gradient"/><radialGradient id="radial-gradient-3" cx="276.9" cy="134.7" r="36.84" gradientTransform="matrix(1, 0, 0, -1, 0, 370)" xlink:href="#radial-gradient"/><radialGradient id="radial-gradient-4" cx="240" cy="38.67" r="36.84" gradientTransform="matrix(0.16, 0.99, 0.99, -0.16, 163.39, 100.62)" xlink:href="#radial-gradient"/><radialGradient id="radial-gradient-5" cx="82.22" cy="179.87" r="61.13" gradientTransform="matrix(1, 0, 0, -1, 0, 370)" xlink:href="#radial-gradient"/></defs><title>Assetshdpi</title><g id="Layer_2" data-name="Layer 2"><g id="Layer_1-2" data-name="Layer 1"><path class="cls-1" d="M75.21,74.05l28.6-28.6a38.13,38.13,0,0,1,27-11.17h33.68"/><line class="cls-1" x1="164.82" y1="65.4" x2="164.82" y2="4.13"/><circle class="cls-2" cx="240.02" cy="43.48" r="36.84" transform="translate(107.59 248.33) rotate(-67.39)"/><circle class="cls-3" cx="232.9" cy="36.84" r="36.84"/><path class="cls-4" d="M232.9,68.3a31.46,31.46,0,1,1,31.46-31.46h0A31.49,31.49,0,0,1,232.9,68.3Z"/><circle class="cls-5" cx="232.89" cy="36.84" r="25.54"/><path class="cls-6" d="M243.15,36.47a9.76,9.76,0,1,0-15.27,8A4.19,4.19,0,0,1,229.72,48v.85h7.36V48a4.11,4.11,0,0,1,1.78-3.41A9.77,9.77,0,0,0,243.15,36.47Z"/><path class="cls-6" d="M230.11,30.47a7.16,7.16,0,0,0-3.59,4.38"/><line class="cls-6" x1="227.78" y1="51.34" x2="239.01" y2="51.34"/><path class="cls-6" d="M234,53.24h-1.25a1.86,1.86,0,0,1-1.87-1.85v0h5A1.87,1.87,0,0,1,234,53.24Z"/><line class="cls-6" x1="233.4" y1="22.05" x2="233.4" y2="19.05"/><line class="cls-6" x1="226.05" y1="23.75" x2="224.55" y2="21.15"/><line class="cls-6" x1="220.54" y1="28.89" x2="217.95" y2="27.39"/><line class="cls-6" x1="218.35" y1="36.1" x2="215.35" y2="36.1"/><line class="cls-6" x1="220.05" y1="43.45" x2="217.45" y2="44.95"/><line class="cls-6" x1="245.25" y1="44.31" x2="247.85" y2="45.81"/><line class="cls-6" x1="247.45" y1="37.1" x2="250.45" y2="37.1"/><line class="cls-6" x1="245.75" y1="29.75" x2="248.35" y2="28.25"/><line class="cls-6" x1="240.61" y1="24.25" x2="242.11" y2="21.65"/><line class="cls-1" x1="160.1" y1="129.92" x2="201.39" y2="129.92"/><line class="cls-1" x1="201.72" y1="161.03" x2="201.72" y2="99.76"/><circle class="cls-7" cx="276.9" cy="139.11" r="36.84"/><circle class="cls-3" cx="269.8" cy="132.47" r="36.84"/><path class="cls-4" d="M269.8,163.93a31.46,31.46,0,1,1,31.46-31.46h0A31.49,31.49,0,0,1,269.8,163.93Z"/><circle class="cls-5" cx="269.81" cy="132.48" r="25.54"/><circle class="cls-6" cx="269.42" cy="131.56" r="15.87"/><path class="cls-3" d="M270.19,118.56a.77.77,0,1,0-.77.77h0A.76.76,0,0,0,270.19,118.56Z"/><circle class="cls-3" cx="269.42" cy="144.34" r="0.77"/><path class="cls-3" d="M263.64,119.9a.77.77,0,1,0-.34,1l.06,0A.77.77,0,0,0,263.64,119.9Z"/><path class="cls-3" d="M276.53,142.23a.77.77,0,0,0-1-.28.77.77,0,0,0,.77,1.33.77.77,0,0,0,.28-1.05Z"/><path class="cls-3" d="M258.64,124.34a.77.77,0,1,0,.26.94A.78.78,0,0,0,258.64,124.34Z"/><path class="cls-3" d="M281,137.23a.77.77,0,0,0-1.05.28.76.76,0,0,0,.28,1.05.77.77,0,0,0,1-.28h0A.78.78,0,0,0,281,137.23Z"/><path class="cls-3" d="M256.53,130.68a.77.77,0,1,1-.77.77A.76.76,0,0,1,256.53,130.68Z"/><path class="cls-3" d="M282.31,130.68a.77.77,0,1,0,.77.77h0A.76.76,0,0,0,282.31,130.68Z"/><path class="cls-3" d="M257.88,137.23a.77.77,0,1,0,1.05.29h0A.77.77,0,0,0,257.88,137.23Z"/><path class="cls-3" d="M280.2,124.34a.79.79,0,0,0-.28,1,.79.79,0,1,0,.37-1.1l-.09.05Z"/><path class="cls-3" d="M262.31,142.23a.77.77,0,1,0,1.12-.3.78.78,0,0,0-1.07.21A.41.41,0,0,0,262.31,142.23Z"/><path class="cls-3" d="M275.2,119.9a.79.79,0,0,0,.28,1,.77.77,0,0,0,.77-1.33A.78.78,0,0,0,275.2,119.9Z"/><polyline class="cls-6" points="269.36 123.03 269.36 131.56 266.45 134.47"/><line class="cls-1" x1="160.1" y1="226.11" x2="201.39" y2="226.11"/><line class="cls-1" x1="201.72" y1="257.22" x2="201.72" y2="195.95"/><circle class="cls-8" cx="276.9" cy="235.3" r="36.84"/><circle class="cls-3" cx="269.8" cy="228.66" r="36.84"/><path class="cls-4" d="M269.8,260.12a31.46,31.46,0,1,1,31.46-31.46h0A31.49,31.49,0,0,1,269.8,260.12Z"/><circle class="cls-5" cx="269.8" cy="228.66" r="25.54"/><circle class="cls-6" cx="270.42" cy="221.23" r="4.49"/><path class="cls-6" d="M261.58,240.38v-8a4.83,4.83,0,0,1,4.83-4.83h8a4.83,4.83,0,0,1,4.83,4.83v8"/><circle class="cls-6" cx="260.56" cy="220.67" r="3"/><path class="cls-6" d="M253.73,236.37V229.3a3.73,3.73,0,0,1,3.73-3.73h6.19"/><circle class="cls-6" cx="280.28" cy="220.67" r="3"/><path class="cls-6" d="M287.1,236.37V229.3a3.73,3.73,0,0,0-3.73-3.73h-6.19"/><path class="cls-1" d="M75.21,282.6l28.6,28.6a38.13,38.13,0,0,0,27,11.17h33.68"/><line class="cls-1" x1="164.82" y1="353.25" x2="164.82" y2="291.98"/><circle class="cls-9" cx="240" cy="331.33" r="36.84" transform="translate(-125.5 515.16) rotate(-80.78)"/><circle class="cls-3" cx="232.9" cy="324.69" r="36.84"/><circle class="cls-4" cx="232.92" cy="324.67" r="31.46"/><circle class="cls-5" cx="232.88" cy="324.72" r="25.54"/><path class="cls-6" d="M248.62,325.6v-3.46a1.11,1.11,0,0,0-1.11-1.11H245a12.94,12.94,0,0,0-1.13-3,1.12,1.12,0,0,1,.21-1.31l1.16-1.16a1.1,1.1,0,0,0,0-1.56h0l-2.45-2.46a1.12,1.12,0,0,0-1.57,0h0l-1.16,1.16a1.12,1.12,0,0,1-1.31.21,12.94,12.94,0,0,0-3-1.13v-2.52a1.11,1.11,0,0,0-1.11-1.11h-3.46a1.13,1.13,0,0,0-1.12,1.11v2.52a12.12,12.12,0,0,0-3.7,1.53l-1.79-1.78a1.12,1.12,0,0,0-1.57,0L220.52,314a1.13,1.13,0,0,0,0,1.58l1.79,1.78a12,12,0,0,0-1.54,3.71h-2.52a1.11,1.11,0,0,0-1.11,1.11v3.46a1.13,1.13,0,0,0,1.11,1.12h2.52a12.4,12.4,0,0,0,1.54,3.7l-1.79,1.78a1.13,1.13,0,0,0,0,1.58l2.45,2.45a1.12,1.12,0,0,0,1.57,0l1.79-1.78A12.75,12.75,0,0,0,230,336v2.52a1.11,1.11,0,0,0,1.11,1.11h3.47a1.11,1.11,0,0,0,1.11-1.11V336a12.54,12.54,0,0,0,3.71-1.53l1.78,1.78a1.12,1.12,0,0,0,1.57,0l2.46-2.45a1.13,1.13,0,0,0,0-1.58l-1.78-1.78a12.38,12.38,0,0,0,1.53-3.7h2.52a1.12,1.12,0,0,0,1.15-1.09ZM232.88,332a8.14,8.14,0,1,1,8.14-8.14,8.13,8.13,0,0,1-8.14,8.14Zm0-4.89a3.25,3.25,0,1,1,3.25-3.25h0a3.26,3.26,0,0,1-3.24,3.26h0Z"/><path class="cls-10" d="M70.87,277.15a97.63,97.63,0,0,0,0-195.25v2a95.62,95.62,0,0,1,0,191.24Z"/><circle class="cls-5" cx="70.62" cy="83" r="10.44"/><circle class="cls-3" cx="70.87" cy="82.75" r="6.25"/><circle class="cls-5" cx="70" cy="275.87" r="10.44"/><circle class="cls-3" cx="70.87" cy="275.57" r="6.25"/><circle class="cls-5" cx="154.11" cy="227.79" r="10.45"/><path class="cls-3" d="M157.49,222a6.25,6.25,0,1,1-8.54,2.29,6.26,6.26,0,0,1,8.54-2.29Z"/><circle class="cls-5" cx="154.36" cy="130.96" r="10.47"/><path class="cls-3" d="M151.24,125.54a6.25,6.25,0,1,1-2.29,8.54,6.26,6.26,0,0,1,2.29-8.54Z"/><path class="cls-11" d="M70.87,108.65V250.39a70.87,70.87,0,0,1,0-141.74Z"/><circle class="cls-12" cx="82.22" cy="190.13" r="61.12"/><circle class="cls-3" cx="70.87" cy="179.52" r="61.12"/><text class="cls-13" transform="translate(24.67 199.42)">System Engineer</text><polygon class="cls-5" points="59.45 164.04 65.27 158.22 65.27 169.98 59.45 169.98 59.45 164.04"/><polygon class="cls-5" points="72.79 164.45 72.79 169.98 66.96 169.98 66.96 158.62 72.79 164.45"/><polygon class="cls-5" points="74.47 162.58 80.29 156.76 80.29 169.98 74.47 169.98 74.47 162.58"/><polygon class="cls-5" points="87.8 152.61 87.8 169.98 81.98 169.98 81.98 155.07 86.12 150.92 87.8 152.61"/><polygon class="cls-5" points="88.4 142.86 82.99 143.47 84.69 145.17 72.69 157.18 65.91 150.4 58.86 157.45 58.86 160.31 65.91 153.26 72.69 160.04 86.12 146.6 87.79 148.27 88.4 142.86"/><text class="cls-14" transform="translate(287.56 329.16)">System &amp; Network <tspan x="12.43" y="13">Administration</tspan></text><text class="cls-14" transform="translate(323.02 131.39)">I<tspan class="cls-15" x="6.23" y="0">T</tspan><tspan x="16.61" y="0" xml:space="preserve"> Opeation &amp; </tspan><tspan x="3.42" y="13">Maintainance</tspan></text><text class="cls-14" transform="translate(327.26 223.05)">P<tspan class="cls-15" x="9.77" y="0">r</tspan><tspan x="16.59" y="0">oject-Based </tspan><tspan x="9.15" y="13">Supporting</tspan></text><text class="cls-14" transform="translate(300.36 26.39)">I<tspan class="cls-15" x="6.23" y="0">T</tspan><tspan x="16.61" y="0" xml:space="preserve"> System &amp; </tspan><tspan x="-12.82" y="13">Storage Support</tspan></text></g></g></svg>