<?xml version="1.0" encoding="utf-8"?>
<!-- Generator: Adobe Illustrator 23.0.1, SVG Export Plug-In . SVG Version: 6.00 Build 0)  -->
<svg version="1.1" id="Layer_1" xmlns="http://www.w3.org/2000/svg" xmlns:xlink="http://www.w3.org/1999/xlink" x="0px" y="0px"
	 viewBox="0 0 400 400" style="enable-background:new 0 0 400 400;" xml:space="preserve">
<style type="text/css">
	.st0{fill:#2471A3;}
	.st1{fill:none;stroke:#2471A3;stroke-miterlimit:10;}
	.st2{fill:#2372BA;}
	.st3{fill:#2073B7;}
	.st4{fill-rule:evenodd;clip-rule:evenodd;fill:#2471A3;}
	.st5{fill-rule:evenodd;clip-rule:evenodd;fill:#394D54;}
	.st6{fill:#00AADA;}
	.st7{fill:#008BB8;}
	.st8{fill-rule:evenodd;clip-rule:evenodd;fill:#00ACD3;}
	.st9{fill-rule:evenodd;clip-rule:evenodd;fill:#20C2EF;}
	.st10{fill-rule:evenodd;clip-rule:evenodd;fill:#D4EDF1;}
	.st11{fill:#BFDBE0;}
	.st12{fill:#0072C6;}
	.st13{opacity:0.4;fill:#FFFFFF;enable-background:new    ;}
	.st14{fill:#3999C6;}
	.st15{opacity:0.25;fill:#FFFFFF;enable-background:new    ;}
	.st16{fill:#FFFFFF;}
	.st17{opacity:0.6;fill:#FFFFFF;enable-background:new    ;}
	.st18{fill:#7FBA00;}
	.st19{fill:#59B4D9;}
	.st20{fill:#0096D4;}
</style>
<g id="Skills" transform="translate(-806 -802.5)">
	<g id="Cloud" transform="translate(580.429 599.938)">
		<g id="Gear">
			<g id="Gear2">
				<circle id="Ellipse_22" class="st0" cx="405" cy="268.4" r="7.2"/>
				<path id="Path_35" class="st0" d="M418.7,270.4l-2-0.8v-2.1l2-0.8c0.5-0.2,0.9-0.6,1.1-1.1c0.2-0.5,0.2-1,0-1.5l-1.1-2.6
					c-0.2-0.5-0.6-0.9-1.1-1.1c-0.5-0.2-1-0.2-1.5,0l-2,0.8l-0.1-0.1l-1.3-1.3l-0.1-0.1l-0.1-0.1l0.8-2c0.4-1-0.1-2.1-1.1-2.6
					l-2.6-1.1c-0.5-0.2-1-0.2-1.5,0c-0.5,0.2-0.9,0.6-1.1,1.1l-0.8,2h-0.1c-0.4,0-0.7-0.1-1.1-0.1c-0.4,0-0.7,0-1.1,0.1H404l-0.8-2
					c-0.2-0.5-0.6-0.9-1.1-1.1c-0.5-0.2-1-0.2-1.5,0l-2.6,1.1c-1,0.4-1.5,1.6-1.1,2.6l0.8,2l-0.1,0.1l-1.3,1.3l-0.1,0.1l-0.1,0.1
					l-2-0.8c-0.5-0.2-1-0.2-1.5,0c-0.5,0.2-0.9,0.6-1.1,1.1l-1.1,2.6c-0.2,0.5-0.2,1,0,1.5c0.2,0.5,0.6,0.9,1.1,1.1l2,0.8v2.1
					l-2,0.8c-0.5,0.2-0.9,0.6-1.1,1.1c-0.2,0.5-0.2,1,0,1.5l1.1,2.6c0.2,0.5,0.6,0.9,1.1,1.1c0.5,0.2,1,0.2,1.5,0l2-0.8l0.1,0.1
					l1.3,1.3l0.1,0.1l0.1,0.1l-0.8,2c-0.4,1,0.1,2.1,1.1,2.6l2.6,1.1c0.5,0.2,1,0.2,1.5,0c0.5-0.2,0.9-0.6,1.1-1.1l0.8-2h0.1
					c0.4,0,0.7,0.1,1.1,0.1c0.4,0,0.7,0,1.1-0.1h0.1l0.8,2c0.4,1,1.6,1.5,2.6,1.1l2.6-1.1c1-0.4,1.5-1.6,1.1-2.6l-0.8-2l0.1-0.1
					l1.3-1.3l0.1-0.1l0.1-0.1l2,0.8c0.5,0.2,1,0.2,1.5,0c0.5-0.2,0.9-0.6,1.1-1.1l1.1-2.6C420.1,271.9,419.7,270.8,418.7,270.4z
					 M418.6,272.5l-1.1,2.6c-0.1,0.3-0.4,0.5-0.8,0.5c0,0-0.1,0-0.1,0l-2.2-0.9c-0.3-0.2-0.7-0.2-0.7-0.2c-0.2,0.2-0.4,0.4-0.6,0.7
					l-1.3,1.3c-0.2,0.2-0.5,0.4-0.7,0.6c-0.1,0.1,0,0.4,0.2,0.7l0.9,2.2c0.1,0.4-0.1,0.8-0.4,0.9l-2.6,1.1c-0.4,0.1-0.8-0.1-0.9-0.4
					l-0.9-2.2c-0.2-0.4-0.3-0.7-0.4-0.7c-0.3,0-0.6,0-0.8,0.1c-0.6,0.1-1.2,0.1-1.8,0c-0.3,0-0.7-0.1-0.8-0.1s-0.2,0.3-0.4,0.7
					l-0.9,2.2c-0.1,0.3-0.4,0.5-0.8,0.5c0,0-0.1,0-0.1,0l-2.6-1.1c-0.3-0.1-0.5-0.4-0.5-0.8c0,0,0-0.1,0-0.1l0.9-2.2
					c0.2-0.3,0.2-0.7,0.2-0.7c-0.2-0.2-0.4-0.4-0.7-0.6l-1.3-1.3c-0.2-0.2-0.4-0.5-0.6-0.7c-0.1-0.1-0.4,0-0.7,0.2l-2.2,0.9
					c-0.4,0.1-0.8-0.1-0.9-0.4l-1.1-2.6c-0.1-0.4,0.1-0.8,0.4-0.9l2.2-0.9c0.4-0.2,0.7-0.3,0.7-0.4c0-0.3-0.1-0.5-0.1-0.8v-1.8
					c0-0.3,0.1-0.7,0.1-0.8c0-0.1-0.3-0.2-0.7-0.4l-2.2-0.9c-0.3-0.1-0.5-0.4-0.5-0.8c0,0,0-0.1,0-0.1l1.1-2.6
					c0.1-0.3,0.4-0.5,0.8-0.5c0,0,0.1,0,0.1,0l2.2,0.9c0.3,0.2,0.7,0.2,0.7,0.2c0.2-0.2,0.4-0.4,0.6-0.7l1.3-1.3
					c0.2-0.2,0.5-0.4,0.7-0.6c0.1-0.1,0-0.4-0.2-0.7l-0.9-2.2c-0.1-0.4,0.1-0.8,0.4-0.9l2.6-1.1c0.4-0.1,0.8,0.1,0.9,0.4l0.9,2.2
					c0.2,0.4,0.3,0.7,0.4,0.7c0.3,0,0.6,0,0.8-0.1c0.6-0.1,1.2-0.1,1.8,0c0.3,0,0.7,0.1,0.8,0.1s0.2-0.3,0.4-0.7l0.9-2.2
					c0.1-0.3,0.4-0.5,0.8-0.5c0,0,0.1,0,0.1,0l2.6,1.1c0.3,0.1,0.5,0.4,0.5,0.8c0,0,0,0.1,0,0.1l-0.9,2.2c-0.2,0.3-0.2,0.7-0.2,0.7
					c0.2,0.2,0.4,0.4,0.7,0.6l1.3,1.3c0.2,0.2,0.4,0.5,0.6,0.7c0.1,0.1,0.4,0,0.7-0.2l2.2-0.9c0.4-0.1,0.8,0.1,0.9,0.4l1.1,2.6
					c0.1,0.4-0.1,0.8-0.4,0.9l-2.2,0.9c-0.4,0.2-0.7,0.3-0.7,0.4c0,0.3,0.1,0.5,0.1,0.8v1.8c0,0.3-0.1,0.7-0.1,0.8s0.3,0.2,0.7,0.4
					l2.2,0.9C418.5,271.6,418.7,272.1,418.6,272.5L418.6,272.5z"/>
			</g>
			<g id="Gear1">
				<circle id="Ellipse_23" class="st0" cx="434.7" cy="273.6" r="7.2"/>
				<path id="Path_36" class="st0" d="M448.3,275.6l-2-0.8v-2.1l2-0.8c0.5-0.2,0.9-0.6,1.1-1.1c0.2-0.5,0.2-1,0-1.5l-1.1-2.6
					c-0.2-0.5-0.6-0.9-1.1-1.1c-0.5-0.2-1-0.2-1.5,0l-2,0.8l-0.1-0.1l-1.3-1.3l-0.1-0.1l-0.1-0.1l0.8-2c0.4-1-0.1-2.1-1.1-2.6
					l-2.6-1.1c-0.5-0.2-1-0.2-1.5,0c-0.5,0.2-0.9,0.6-1.1,1.1l-0.8,2h-0.1c-0.4,0-0.7-0.1-1.1-0.1c-0.4,0-0.7,0-1.1,0.1h-0.1l-0.8-2
					c-0.2-0.5-0.6-0.9-1.1-1.1c-0.5-0.2-1-0.2-1.5,0l-2.6,1.1c-1,0.4-1.5,1.6-1.1,2.6l0.8,2l-0.1,0.1l-1.3,1.3l-0.1,0.1l-0.1,0.1
					l-2-0.8c-0.5-0.2-1-0.2-1.5,0c-0.5,0.2-0.9,0.6-1.1,1.1l-1.1,2.6c-0.2,0.5-0.2,1,0,1.5c0.2,0.5,0.6,0.9,1.1,1.1l2,0.8v2.1
					l-2,0.8c-0.5,0.2-0.9,0.6-1.1,1.1c-0.2,0.5-0.2,1,0,1.5l1.1,2.6c0.2,0.5,0.6,0.9,1.1,1.1c0.5,0.2,1,0.2,1.5,0l2-0.8l0.1,0.1
					l1.3,1.3l0.1,0.1l0.1,0.1l-0.8,2c-0.4,1,0.1,2.1,1.1,2.6l2.6,1.1c0.5,0.2,1,0.2,1.5,0c0.5-0.2,0.9-0.6,1.1-1.1l0.8-2h0.1
					c0.4,0,0.7,0.1,1.1,0.1c0.4,0,0.7,0,1.1-0.1h0.1l0.8,2c0.4,1,1.6,1.5,2.6,1.1l2.6-1.1c1-0.4,1.5-1.6,1.1-2.6l-0.8-2l0.1-0.1
					l1.3-1.3l0.1-0.1l0.1-0.1l2,0.8c0.5,0.2,1,0.2,1.5,0c0.5-0.2,0.9-0.6,1.1-1.1l1.1-2.6C449.8,277.2,449.3,276,448.3,275.6z
					 M448.2,277.7l-1.1,2.6c-0.1,0.3-0.4,0.5-0.8,0.5c0,0-0.1,0-0.1,0l-2.2-0.9c-0.3-0.2-0.7-0.2-0.7-0.2c-0.2,0.2-0.4,0.4-0.6,0.7
					l-1.3,1.3c-0.2,0.2-0.5,0.4-0.7,0.6c-0.1,0.1,0,0.4,0.2,0.7l0.9,2.2c0.1,0.4-0.1,0.8-0.4,0.9l-2.6,1.1c-0.4,0.1-0.8-0.1-0.9-0.4
					l-0.9-2.2c-0.2-0.4-0.3-0.7-0.4-0.7c-0.3,0-0.6,0-0.8,0.1c-0.6,0.1-1.2,0.1-1.8,0c-0.3,0-0.7-0.1-0.8-0.1s-0.2,0.3-0.4,0.7
					l-0.9,2.2c-0.1,0.3-0.4,0.5-0.8,0.5c0,0-0.1,0-0.1,0l-2.6-1.1c-0.3-0.1-0.6-0.4-0.5-0.8c0,0,0-0.1,0-0.1l0.9-2.2
					c0.2-0.3,0.2-0.7,0.2-0.7c-0.2-0.2-0.4-0.4-0.7-0.6l-1.3-1.3c-0.2-0.2-0.4-0.5-0.6-0.7c-0.1-0.1-0.4,0-0.7,0.2l-2.2,0.9
					c-0.4,0.1-0.8-0.1-0.9-0.4l-1.1-2.6c-0.1-0.4,0.1-0.8,0.4-0.9l2.2-0.9c0.4-0.2,0.7-0.3,0.7-0.4c0-0.3-0.1-0.5-0.1-0.8v-1.8
					c0-0.3,0.1-0.7,0.1-0.8s-0.3-0.2-0.7-0.4l-2.2-0.9c-0.3-0.1-0.5-0.4-0.5-0.8c0,0,0-0.1,0-0.1l1.1-2.6c0.1-0.3,0.4-0.5,0.8-0.5
					c0,0,0.1,0,0.1,0l2.2,0.9c0.3,0.2,0.7,0.2,0.7,0.2c0.2-0.2,0.4-0.4,0.6-0.7l1.3-1.3c0.2-0.2,0.5-0.4,0.7-0.6
					c0.1-0.1,0-0.4-0.2-0.7l-0.9-2.2c-0.1-0.4,0.1-0.8,0.4-0.9l2.6-1.1c0.4-0.1,0.8,0.1,0.9,0.4l0.9,2.2c0.2,0.4,0.3,0.7,0.4,0.7
					c0.3,0,0.6,0,0.8-0.1c0.6-0.1,1.2-0.1,1.8,0c0.3,0,0.7,0.1,0.8,0.1s0.2-0.3,0.4-0.7l0.9-2.2c0.1-0.3,0.4-0.5,0.8-0.5
					c0,0,0.1,0,0.1,0l2.6,1.1c0.3,0.1,0.5,0.4,0.5,0.8c0,0,0,0.1,0,0.1l-0.9,2.2c-0.2,0.3-0.2,0.7-0.2,0.7c0.2,0.2,0.4,0.4,0.7,0.6
					l1.3,1.3c0.2,0.2,0.4,0.5,0.6,0.7c0.1,0.1,0.4,0,0.7-0.2l2.2-0.9c0.4-0.1,0.8,0.1,0.9,0.4l1.1,2.6c0.1,0.4-0.1,0.8-0.4,0.9
					l-2.2,0.9c-0.4,0.2-0.7,0.3-0.7,0.4c0,0.3,0.1,0.5,0.1,0.8v1.8c0,0.3-0.1,0.7-0.1,0.8c0,0.1,0.3,0.2,0.7,0.4l2.2,0.9
					C448.1,276.9,448.3,277.4,448.2,277.7L448.2,277.7z"/>
			</g>
		</g>
		<g id="Cloud-2">
			<g id="Layer_1-2">
				<g id="paths">
					<g id="Internet">
						<path id="Path_37" class="st1" d="M459.9,296.2h-81.7c-9.5,0-17.2-8.6-17.2-19s7.7-19,17.2-19c0.7,0,1.3,0,2,0.2
							c2.6-4.9,7.6-8,13.1-8.1c1.5,0,2.9,0.2,4.3,0.7v-0.7c0-12.4,9-22.3,20.1-22.3c8.1,0.2,15.3,5.3,18.1,12.9
							c2.8-1.8,6.1-2.8,9.5-2.9c10.8,0,19.4,9.7,19.4,21.5c0,1.2-0.2,2.4-0.4,3.6c6,3,9.7,9.1,9.5,15.8c0,8.1-5,14.9-11.9,16.7
							L459.9,296.2z"/>
					</g>
				</g>
			</g>
		</g>
	</g>
	<g id="Services" transform="translate(839.005 901.291)">
		<g id="SharePoint" transform="translate(98.606 -0.002)">
			<path id="Path_38" class="st2" d="M93.9,49.9l15.8-9.1l-4.9-12.6L85.4,39.4L93.9,49.9z M99.7,36.4c1.8-0.4,3.1,1.5,3.2,3.2
				c0,0.3,0,0.3-0.2,0.5l-0.6,0.3l-0.9,0.5c0.2-0.6,0.2-1.3,0-1.9c-0.2-0.4-0.5-1-1-0.9c-1.3,0.1-0.9,1.9-1,2.6
				c-0.1,1.5-1.3,2.6-2.8,2.5c-0.9,0-1.7-0.6-2.2-1.3c-0.3-0.4-0.5-0.9-0.7-1.4c-0.1-0.1-0.1-0.2,0-0.3l0.3-0.2l1.2-0.7
				c-0.1,0.8,0.1,2.1,1,2.4c0.4,0.1,0.8,0,1.1-0.3c0.2-0.3,0.3-0.6,0.3-1c-0.1-0.8,0-1.6,0.3-2.4C98.1,37.1,98.8,36.6,99.7,36.4
				L99.7,36.4z"/>
			<path id="Path_39" class="st3" d="M89.5,28.3c0.1,0.1,0.2,0.3,0.3,0.3c-1,1.3-1.5,2.9-1.2,4.5c-0.1,0.1-0.3,0.1-0.4,0.1
				c-1,0.6-1.3,1.9-0.8,3c0.2,0.3,0.4,0.6,0.8,0.8l3.4-1.9c0-0.4-0.1-0.8-0.3-1.1c-0.3-0.5-0.8-0.9-1.4-1.1
				c-0.2-1.3,0.2-2.7,1.1-3.7c0.6,0.2,1.2,0.1,1.8-0.2c0.5-0.3,0.9-0.8,1.1-1.4c1.3-0.2,2.7,0.1,3.8,0.9c-0.2,0.6-0.1,1.2,0.2,1.8
				c0.2,0.3,0.4,0.6,0.8,0.8l3.4-1.9c0-0.4,0-0.8-0.2-1.1c-0.6-1-1.9-1.3-3-0.8c-0.1,0.1-0.3,0.2-0.3,0.3c-1.3-1-2.9-1.4-4.5-1.2
				c-0.1-0.1-0.1-0.2-0.1-0.4c-0.6-1-1.9-1.4-3-0.8C89.3,25.9,88.9,27.2,89.5,28.3z"/>
		</g>
		<g id="Exchange" transform="translate(30.907 1.826)">
			<path id="Path_40" class="st2" d="M106.7,38.3c-0.8-0.8-1.7-1.4-2.7-2c-0.3-0.1-0.6-0.3-0.8-0.5c0,0-0.1,0.1-0.1,0.1l-0.1,0.2
				v0.2l2.9,2.9c0.1,0.1,0.1,0.2,0.1,0.3v1.4c0,0.1-0.1,0.1-0.2,0.2h-1.8c-0.1,0-0.2,0-0.2-0.1l-0.6-0.5c-0.1-0.1-0.1-0.1-0.2,0
				l-0.5,0.7v0.2l1.1,1.1c0.1,0.1,0.2,0.2,0.4,0.2h3c0.2,0,0.4-0.1,0.4-0.3c0,0,0,0,0,0v-2.9C107.3,38.8,107.1,38.6,106.7,38.3z"/>
			<path id="Path_41" class="st2" d="M100.9,35.8c0,0,0.1,0.1,0.1,0.2l0.2,0.2h0.1c0,0,2.5-2.7,2.8-3c0.1-0.1,0.2-0.1,0.3-0.1h1.3
				c0.1,0,0.1,0.1,0.2,0.2V35c0,0.1,0,0.2-0.1,0.2l-0.6,0.6c-0.1,0.1-0.1,0.1,0,0.2l0.7,0.5h0.2c0,0,0.9-1.1,1-1.1
				c0.1-0.1,0.2-0.2,0.2-0.4v-3.1c0-0.2-0.1-0.4-0.3-0.4c0,0,0,0,0,0h-2.8c-0.2,0-0.4,0.2-0.8,0.6c-0.7,0.9-1.4,1.8-1.9,2.8
				C101.2,35.2,101,35.7,100.9,35.8z"/>
			<path id="Path_42" class="st2" d="M108.7,29.3h-9.9v-4.4L85.4,27v19l13.4,2.2v-3.6h9.9c0.4,0,0.7-0.3,0.7-0.6c0,0,0-0.1,0-0.1V30
				C109.4,29.5,109.1,29.3,108.7,29.3z M94.2,41.7L94.2,41.7l-4.2-0.4v-9l3.8-0.3v1.8l-2.3,0.1V36h2.3v1.8l-2.3-0.1v2.1l2.7,0.2
				L94.2,41.7z M108.4,43.5h-9.5v-1.1h1.1c0.2,0,0.4-0.2,0.8-0.6c0.7-0.9,1.4-1.8,2-2.8c0.1-0.3,0.3-0.6,0.5-0.9
				c0,0-0.1-0.1-0.1-0.2l-0.2-0.2h-0.1c0,0-2.5,2.7-2.9,3C99.8,41,99.7,41,99.6,41h-0.8v-4.1c0.4,0.3,1,0.7,1.2,0.8
				c0.3,0.1,0.6,0.3,0.8,0.5c0,0,0.1-0.1,0.1-0.1l0.2-0.2v-0.2c0,0-1.4-1.4-2.3-2.3V33h1.3c0.1,0,0.2,0,0.2,0.1l0.6,0.6
				c0.1,0.1,0.1,0.1,0.1,0l0.5-0.7v-0.2c0,0-1-1-1.1-1.1c-0.1-0.1-0.2-0.1-0.4-0.1h-1.2v-1.1h9.5L108.4,43.5z"/>
		</g>
		<g id="PowerShell" transform="translate(-0.005 57.429)">
			<g id="Powershell_script_file">
				<path id="Path_43" class="st0" d="M91.6,26.3L85.7,37c-0.7,1.2-0.3,2.8,0.9,3.6l11.8,7.2c1.2,0.7,2.7,0.3,3.4-0.9
					c0,0,0-0.1,0.1-0.1l6.5-11.8c0.7-1.2,0.3-2.8-0.9-3.6l-10.8-6.5L91.6,26.3z M106.6,32.8c0.5,0.3,0.6,0.9,0.4,1.3l0,0L100.5,46
					c-0.2,0.5-0.8,0.6-1.2,0.4c0,0,0,0,0,0l0,0l-11.8-7.2c-0.4-0.3-0.6-0.9-0.4-1.3l0,0l5.5-10l2.6,1.6l1.5-2.7L106.6,32.8z"/>
				<path id="Path_44" class="st4" d="M102.6,34.5L102.6,34.5c0.3,0.3,0.4,0.7,0.3,1.1l-1.5,2.8c-0.2,0.3-0.5,0.4-0.8,0.2
					c0,0,0,0,0,0l-0.1,0h-0.1c-0.3-0.3-0.3-0.7-0.1-1.1l1.5-2.8C102,34.3,102.3,34.2,102.6,34.5z M98.9,42.3L98.9,42.3
					c-0.4,0-0.7-0.3-0.7-0.6v-0.1l-0.6-7l-5.1,1.2c-0.3,0.1-0.6-0.2-0.7-0.7V35c0-0.3,0.2-0.6,0.5-0.7l5-1.1l0.6-0.2H98
					c0.4-0.1,0.8,0.1,0.9,0.5l0.1,0.8l0.6,7C99.5,41.7,99.3,42.1,98.9,42.3L98.9,42.3z"/>
			</g>
		</g>
		<g id="Docker" transform="translate(59.363 51.725)">
			<path id="outline" class="st5" d="M107.7,31.8h3.4v3.5h1.7c0.8,0,1.6-0.1,2.4-0.4c0.4-0.1,0.8-0.3,1.2-0.5
				c-0.5-0.7-0.8-1.4-0.8-2.2c-0.1-1.2,0.2-2.4,0.9-3.3l0.4-0.4l0.4,0.3c1.1,0.8,1.9,2.1,2.2,3.5c1.3-0.4,2.8-0.3,4,0.4l0.5,0.3
				l-0.2,0.5c-1,1.9-3,2.5-5,2.4c-3,7.5-9.5,11-17.4,11c-4.1,0-7.8-1.5-10-5.2v-0.1L91,41c-0.7-1.6-1-3.4-0.8-5.1l0-0.5h3v-3.6h3.5
				v-3.5h6.9v-3.5h4.2L107.7,31.8z"/>
			<path id="Path_45" class="st6" d="M118.9,33.1c0.1-1.5-0.7-3-2-3.9c-1,1.1-1.1,4,0.4,5.3c-1.3,1-2.8,1.5-4.4,1.4H90.7
				c-0.2,1.8,0.1,3.6,0.9,5.2l0.3,0.5c0.2,0.3,0.3,0.5,0.5,0.8l0,0c0.9,0.1,1.8,0.1,2.5,0.1l0,0c1.2,0,2.5-0.2,3.7-0.5
				c0.1,0,0.3,0,0.3,0.1c0,0,0,0,0,0c0.1,0.1,0,0.3-0.2,0.3c0,0,0,0,0,0l-0.4,0.1l0,0c-0.8,0.2-1.7,0.4-2.5,0.4h-3
				c2.2,2.3,5.2,3.5,8.4,3.3c7.7,0,14.2-3.4,17-11c2,0.2,4-0.3,4.9-2.1C121.8,32.4,120.2,32.4,118.9,33.1z"/>
			<path id="Path_46" class="st7" d="M90.8,38.2c0.1,1,0.4,2,0.9,2.8l0.3,0.5c0.2,0.3,0.3,0.5,0.5,0.8c0.9,0.1,1.8,0.1,2.5,0.1
				c1.2,0,2.5-0.2,3.7-0.5c0.1,0,0.3,0,0.3,0.2c0,0,0,0,0,0c0,0.1,0,0.3-0.1,0.3c0,0,0,0,0,0l-0.4,0.1l0,0c-0.9,0.2-1.7,0.4-2.6,0.4
				h-3c2.2,2.3,5.2,3.5,8.4,3.3c6.6,0,12.3-2.5,15.6-8L90.8,38.2z"/>
			<path id="Path_47" class="st8" d="M96.2,32.6h0.2v2.5h-0.2V32.6z M95.8,32.6H96v2.5h-0.2V32.6z M95.3,32.6h0.2v2.5h-0.2V32.6z
				 M94.9,32.6h0.2v2.5h-0.2V32.6z M94.4,32.6h0.2v2.5h-0.2V32.6z M94,32.6h0.2v2.5H94L94,32.6z M93.7,32.4h3v3h-3V32.4z"/>
			<path id="Path_48" class="st8" d="M99.7,29.2h0.2v2.5h-0.2V29.2z M99.2,29.2h0.3v2.5h-0.2L99.2,29.2z M98.8,29.2H99v2.5h-0.2
				V29.2z M98.3,29.2h0.2v2.5h-0.2V29.2z M97.9,29.2h0.2v2.5h-0.2V29.2z M97.4,29.2h0.2v2.5h-0.2L97.4,29.2z M97.2,28.9h3v3h-3V28.9
				z"/>
			<path id="Path_49" class="st9" d="M99.7,32.6h0.2v2.5h-0.2V32.6z M99.2,32.6h0.3v2.5h-0.2L99.2,32.6z M98.8,32.6H99v2.5h-0.2
				V32.6z M98.3,32.6h0.2v2.5h-0.2V32.6z M97.9,32.6h0.2v2.5h-0.2V32.6z M97.4,32.6h0.2v2.5h-0.2L97.4,32.6z M97.2,32.4h3v3h-3V32.4
				z"/>
			<path id="Path_50" class="st8" d="M103.2,32.6h0.2v2.5h-0.2L103.2,32.6z M102.7,32.6h0.2v2.5h-0.2V32.6z M102.3,32.6h0.2v2.5
				h-0.2V32.6z M101.8,32.6h0.2v2.5h-0.2V32.6z M101.3,32.6h0.3v2.5h-0.2L101.3,32.6z M100.9,32.6h0.2v2.5h-0.2V32.6z M100.7,32.4h3
				v3h-3L100.7,32.4z"/>
			<path id="Path_51" class="st9" d="M103.2,29.2h0.2v2.5h-0.2L103.2,29.2z M102.7,29.2h0.2v2.5h-0.2V29.2z M102.3,29.2h0.2v2.5
				h-0.2V29.2z M101.8,29.2h0.2v2.5h-0.2V29.2z M101.3,29.2h0.3v2.5h-0.2L101.3,29.2z M100.9,29.2h0.2v2.5h-0.2V29.2z M100.7,28.9h3
				v3h-3L100.7,28.9z"/>
			<path id="Path_52" class="st9" d="M106.6,32.5h0.2V35h-0.2V32.5z M106.1,32.5h0.2V35h-0.2V32.5z M105.7,32.5h0.2V35h-0.2
				L105.7,32.5z M105.2,32.5h0.2V35h-0.2V32.5z M104.8,32.5h0.2V35h-0.2V32.5z M104.3,32.5h0.2V35h-0.2V32.5z M104.1,32.2h3v3h-3
				L104.1,32.2z"/>
			<path id="Path_53" class="st8" d="M106.6,29h0.2v2.5h-0.2V29z M106.1,29h0.2v2.5h-0.2V29z M105.7,29h0.2v2.5h-0.2L105.7,29z
				 M105.2,29h0.2v2.5h-0.2V29z M104.8,29h0.2v2.5h-0.2V29z M104.3,29h0.2v2.5h-0.2V29z M104.1,28.8h3v3h-3L104.1,28.8z"/>
			<path id="Path_54" class="st9" d="M106.6,25.6h0.2v2.5h-0.2V25.6z M106.1,25.6h0.2v2.5h-0.2V25.6z M105.7,25.6h0.2v2.5h-0.2
				L105.7,25.6z M105.2,25.6h0.2v2.5h-0.2V25.6z M104.8,25.6h0.2v2.5h-0.2V25.6z M104.3,25.6h0.2v2.5h-0.2V25.6z M104.1,25.3h3v3h-3
				L104.1,25.3z"/>
			<path id="Path_55" class="st8" d="M109.9,32.6h0.2v2.5h-0.2V32.6z M109.5,32.6h0.2v2.5h-0.2V32.6z M109,32.6h0.2v2.5H109V32.6z
				 M108.5,32.6h0.3v2.5h-0.2L108.5,32.6z M108.1,32.6h0.2v2.5h-0.2V32.6z M107.6,32.6h0.2v2.5h-0.2V32.6z M107.4,32.4h3v3h-3V32.4z
				"/>
			<path id="Path_56" class="st10" d="M100,40.2c0.5,0,0.8,0.4,0.8,0.8s-0.4,0.8-0.8,0.8s-0.8-0.4-0.8-0.8S99.5,40.2,100,40.2
				L100,40.2"/>
			<path id="Path_57" class="st5" d="M85.4,38.5h38.5c-0.8-0.2-2.6-0.5-2.3-1.6c-1.5,1.8-5.2,1.2-6.1,0.4c-1,1.5-7.1,0.9-7.5-0.2
				c-1.3,1.5-5.3,1.5-6.6,0c-0.4,1.2-6.4,1.7-7.5,0.2c-0.9,0.9-4.6,1.4-6.1-0.4C88.1,38,86.2,38.3,85.4,38.5"/>
			<path id="Path_58" class="st11" d="M102.2,46.2c-1.7-0.7-3.1-2.1-3.8-3.7c-0.9,0.2-1.8,0.4-2.7,0.4h-1.3c-0.4,0-1.1,0-1.6,0
				c2.2,2.3,5.3,3.5,8.5,3.4C101.6,46.2,101.9,46.2,102.2,46.2z"/>
		</g>
		<g id="Azure" transform="translate(68.893 113.133)">
			<path id="Path_59" class="st12" d="M97,25.3L85.6,39.5c-0.3,0.4-0.3,1.1,0.2,1.4c0,0,0,0,0,0l11.4,8.3c0.4,0.3,0.9,0.3,1.2,0
				l11.4-8.3c0.5-0.3,0.6-1,0.2-1.4c0,0,0,0,0,0L98.6,25.3c-0.4-0.4-1-0.5-1.4-0.2C97.1,25.1,97,25.2,97,25.3L97,25.3z"/>
			<path id="Path_60" class="st13" d="M98.9,48.9l10.5-7.6c-0.5-0.7-1.3-1.1-2.1-1.2l-2.9-3.7c0-0.2,0.1-0.3,0.1-0.5
				c0-1.7-1.4-3-3-3s-3,1.4-3,3c0,0.2,0,0.3,0,0.5l-2.9,3.7c-1.6,0.2-2.9,1.6-2.7,3.3c0.2,1.6,1.6,2.9,3.3,2.7c0.1,0,0.2,0,0.3,0
				l2.1,1.5C98.4,48,98.6,48.5,98.9,48.9L98.9,48.9z"/>
			<path id="Path_61" class="st14" d="M108.8,42.9l-6.9-8.7h-1.2l-6.9,8.7l0.1,0.8l6.7,4.9h1.3l6.7-4.9L108.8,42.9z"/>
			<ellipse id="Ellipse_24" class="st14" cx="95.7" cy="43.1" rx="2.5" ry="2.5"/>
			<ellipse id="Ellipse_25" class="st14" cx="107" cy="43.1" rx="2.5" ry="2.5"/>
			<ellipse id="Ellipse_26" class="st14" cx="101.3" cy="47.1" rx="2.5" ry="2.5"/>
			<path id="Path_62" class="st14" d="M101.3,38.4c-1.4,0-2.5-1.1-2.5-2.5s1.1-2.5,2.5-2.5c1.4,0,2.5,1.1,2.5,2.5
				C103.9,37.3,102.7,38.4,101.3,38.4C101.4,38.4,101.4,38.4,101.3,38.4z"/>
			<path id="Path_63" class="st15" d="M96.4,43l4.9-1.6l4.9,1.6l-4.9,3.5L96.4,43z"/>
			<ellipse id="Ellipse_27" class="st16" cx="95.7" cy="43.1" rx="1.5" ry="1.5"/>
			<ellipse id="Ellipse_28" class="st16" cx="107" cy="43.1" rx="1.5" ry="1.5"/>
			<ellipse id="Ellipse_29" class="st16" cx="101.3" cy="47.1" rx="1.5" ry="1.5"/>
			<path id="Path_64" class="st16" d="M101.3,37.4c-0.8,0-1.5-0.7-1.5-1.5s0.7-1.5,1.5-1.5c0.8,0,1.5,0.7,1.5,1.5
				C102.8,36.8,102.2,37.4,101.3,37.4z"/>
			<path id="Path_65" class="st17" d="M95.3,42.7l5.6-7.1l0.8,0.6l-5.6,7.1L95.3,42.7z"/>
			<path id="Path_66" class="st17" d="M100.9,36.3l0.8-0.6l5.6,7.1l-0.8,0.6L100.9,36.3z"/>
			<path id="Path_67" class="st16" d="M107.3,43.5l-0.6-0.8l-4.8,3.5V35.9h-1v10.2L96,42.6l-0.6,0.8l5.6,4.1h0.6L107.3,43.5z"/>
			<ellipse id="Ellipse_30" class="st18" cx="95.7" cy="43.1" rx="1" ry="1"/>
			<ellipse id="Ellipse_31" class="st18" cx="107" cy="43.1" rx="1" ry="1"/>
			<ellipse id="Ellipse_32" class="st18" cx="101.3" cy="47.1" rx="1" ry="1"/>
			<ellipse id="Ellipse_33" class="st18" cx="101.3" cy="35.9" rx="1" ry="1"/>
		</g>
		<g id="Web" transform="translate(120.808 62.919)">
			<path id="Path_68" class="st19" d="M106.5,48.5c0-5.5,4.5-10,10-10c5.5,0,10,4.5,10,10s-4.5,10-10,10
				C111,58.5,106.5,54,106.5,48.5"/>
			<path id="Path_69" class="st16" d="M123,52.3c0.9,1.2,2.7,1.5,4,0.5c0,0,0,0,0,0l0.2-0.2c1.3,0.9,2.2,1.5,2.6,1.8
				c0.1-0.4,0.3-0.7,0.3-1.1c-0.8-0.6-1.5-1.2-2.3-1.8c0.6-1.4-0.1-3.1-1.6-3.6c-0.8-0.3-1.7-0.2-2.4,0.2c-1.5-1.3-2.9-2.7-4.4-4.1
				c4.8-2.6,8.3-2.2,8.3-2.2c-0.6-0.7-1.2-1.4-1.9-1.9c-3-0.4-6.1,0.1-8.8,1.6l0,0c-1.3-1.3-2.5-2.7-3.7-4.1
				c-0.6,0.2-1.2,0.4-1.7,0.7c1,1.6,2.2,3.1,3.6,4.5l0,0c-1.3,0.9-2.5,2-3.7,3.2l-0.4,0.5c-0.7-0.2-1.5-0.1-2.2,0.2
				c-0.9-1.8-1.2-3.8-0.9-5.7c-0.5,0.5-1,1.1-1.4,1.7c-0.4,1.8-0.2,3.6,0.5,5.3c-1.1,1.4-1.1,3.4,0,4.8c0.1,0.1,0.2,0.2,0.3,0.3
				c-0.4,1.5-0.7,3.1-0.8,4.6c0.1,0.2,0.1,0.3,0.2,0.5c0.6,0.8,1.4,1.5,2.2,2.1c-0.1-2,0.2-4.1,0.9-6c0.6,0,1.3-0.1,1.8-0.3
				c0.3,0.3,0.7,0.6,1.1,0.9c1.2,0.9,2.5,1.8,3.8,2.4c-0.2,1.4,0.9,2.7,2.3,2.9c0.7,0.1,1.3-0.1,1.9-0.5c0.2-0.2,0.4-0.4,0.6-0.6
				c1.7,0.4,3.4,0.5,5.2,0.5c0.7-0.6,1.2-1.3,1.7-2.1c-2.2,0.4-4.4,0.2-6.5-0.4c-0.3-1.4-1.7-2.3-3.1-2c-0.3,0.1-0.6,0.2-0.9,0.4
				c-1.2-0.7-2.4-1.5-3.6-2.4c-0.2-0.2-0.5-0.4-0.7-0.6c0.8-1.2,0.8-2.7,0.2-4c0.1-0.2,0.3-0.3,0.5-0.4c1.1-1,2.2-2,3.4-2.8
				c0,0-0.1-0.1-0.1-0.1l0.1,0.1l0,0c1.6,1.5,3.4,3,5,4.2C122.2,50.3,122.4,51.5,123,52.3z"/>
		</g>
	</g>
	<g id="Premise2" transform="translate(806 1088)">
		<g id="Server1" transform="translate(0 0)">
			<path id="Path_75" class="st20" d="M146.9,69.7H87.8c-1.3,0-2.4,1-2.5,2.4c0,0,0,0,0,0.1v14.6c0,1.3,1.1,2.4,2.4,2.4
				c0,0,0,0,0.1,0h59.1c1.3,0,2.4-1,2.5-2.4c0,0,0,0,0-0.1V72.1C149.4,70.8,148.3,69.7,146.9,69.7C146.9,69.7,146.9,69.7,146.9,69.7
				z M90.8,86.7c-1.2,0.1-2.3-0.8-2.4-2.1s0.8-2.3,2.1-2.4c0.1,0,0.2,0,0.3,0c1.2-0.1,2.3,0.8,2.4,2.1c0.1,1.2-0.8,2.3-2.1,2.4
				C91.1,86.7,91,86.7,90.8,86.7z M144.6,85.8h-13c-0.4,0-0.7-0.4-0.7-0.8c0-0.4,0.3-0.7,0.7-0.7h12.9c0.4,0,0.7,0.4,0.7,0.8
				C145.2,85.5,144.9,85.8,144.6,85.8L144.6,85.8z M144.6,83.4h-13c-0.4,0.1-0.8-0.2-0.9-0.7c-0.1-0.4,0.2-0.8,0.7-0.9
				c0.1,0,0.1,0,0.2,0h12.9c0.4-0.1,0.8,0.2,0.9,0.7c0.1,0.4-0.2,0.8-0.7,0.9C144.7,83.4,144.6,83.4,144.6,83.4L144.6,83.4z
				 M144.6,81h-13c-0.4,0-0.7-0.4-0.7-0.8c0-0.4,0.3-0.7,0.7-0.7h12.9c0.4,0,0.8,0.3,0.8,0.7C145.4,80.6,145.1,80.9,144.6,81
				C144.6,81,144.6,81,144.6,81L144.6,81z"/>
			<path id="Path_76" class="st20" d="M147,47H88c-1.3,0-2.4,1-2.5,2.4c0,0,0,0.1,0,0.1v14.6c0,1.3,1.1,2.4,2.4,2.4c0,0,0,0,0.1,0
				h59c1.3,0,2.4-1,2.5-2.4c0,0,0,0,0-0.1V49.5C149.5,48.2,148.4,47.1,147,47C147.1,47,147,47,147,47z M91,64.1
				c-1.2,0.1-2.3-0.8-2.4-2.1c-0.1-1.2,0.8-2.3,2.1-2.4c0.1,0,0.2,0,0.3,0c1.2-0.1,2.3,0.8,2.4,2.1c0.1,1.2-0.8,2.3-2.1,2.4
				C91.2,64.1,91.1,64.1,91,64.1z M144.7,63.2h-12.9c-0.4,0-0.7-0.4-0.7-0.8c0-0.4,0.3-0.7,0.7-0.7h12.9c0.4,0,0.7,0.4,0.7,0.8
				C145.4,62.8,145.1,63.1,144.7,63.2z M144.7,60.7h-12.9c-0.4,0-0.7-0.3-0.8-0.7c0,0,0-0.1,0-0.1c0-0.4,0.3-0.8,0.7-0.8
				c0,0,0,0,0.1,0h12.9c0.4,0,0.7,0.3,0.8,0.7c0,0,0,0.1,0,0.1c0,0.4-0.2,0.7-0.6,0.8C144.8,60.8,144.7,60.8,144.7,60.7L144.7,60.7z
				 M144.7,58.3h-12.9c-0.4,0-0.7-0.4-0.7-0.8c0-0.4,0.3-0.7,0.7-0.7h12.9c0.4,0,0.7,0.4,0.7,0.8C145.4,58,145.1,58.3,144.7,58.3z"
				/>
			<path id="Path_77" class="st20" d="M147.2,24.9H88.1c-1.3,0-2.4,1-2.4,2.4c0,0,0,0,0,0v14.6c0,1.3,1.1,2.4,2.4,2.4c0,0,0,0,0,0
				h59.1c1.3,0,2.4-1,2.5-2.4c0,0,0,0,0-0.1V27.3C149.6,26,148.6,24.9,147.2,24.9C147.2,24.9,147.2,24.9,147.2,24.9z M91.1,41.9
				c-1.3,0-2.3-1-2.3-2.3c0-1.2,1-2.2,2.3-2.3c1.2,0,2.3,1,2.3,2.3C93.3,40.9,92.3,41.9,91.1,41.9L91.1,41.9z M144.9,41h-13
				c-0.4,0-0.7-0.3-0.8-0.7c0,0,0-0.1,0-0.1c0-0.4,0.3-0.7,0.7-0.8c0,0,0.1,0,0.1,0h12.9c0.4,0,0.7,0.3,0.8,0.7c0,0,0,0.1,0,0.1
				C145.6,40.7,145.3,41,144.9,41C144.9,41,144.9,41,144.9,41L144.9,41z M144.9,38.6h-13c-0.4,0-0.7-0.4-0.7-0.8
				c0-0.4,0.3-0.7,0.7-0.7h12.9c0.4,0,0.7,0.4,0.7,0.8C145.5,38.3,145.2,38.6,144.9,38.6L144.9,38.6z M144.9,36.2h-13
				c-0.4,0-0.7-0.4-0.7-0.8c0-0.4,0.3-0.7,0.7-0.7h12.9c0.4,0,0.7,0.4,0.7,0.8C145.5,35.9,145.2,36.2,144.9,36.2L144.9,36.2z"/>
		</g>
		<g id="VM1" transform="translate(7 -49)">
			<g>
				<path id="Path_70" class="st19" d="M132.4,24.9H88.1c-1.5,0-2.7,1.3-2.7,2.8v30.9c0,1.5,1.2,2.8,2.7,2.8h16.1
					c1.6,5.8-0.6,6.6-10.2,6.6v3h32.6v-3c-9.6,0-10.6-0.8-8.9-6.6h14.7c1.6,0,2.9-1.2,3-2.8V27.7C135.3,26.1,134,24.9,132.4,24.9z"
					/>
				<path id="Path_71" class="st16" d="M131.5,28.7v28.9H89.2V28.7H131.5z"/>
				<path id="Path_72" class="st12" d="M110.9,42.3L110.9,42.3l-8.9-5.1c-0.1,0-0.1-0.1-0.1-0.2c0-0.1,0-0.1,0.1-0.2l8.8-5h0.3
					l8.8,5.1c0.1,0,0.1,0.1,0.1,0.2c0,0.1,0,0.2-0.1,0.2l-8.7,5H110.9"/>
				<path id="Path_73" class="st12" d="M109.7,54.6h-0.1l-8.8-5.1c-0.1,0-0.1-0.1-0.1-0.2V39.1c0-0.1,0-0.1,0.1-0.2h0.3l8.8,5.1
					c0.1,0,0.1,0.1,0.1,0.2v10.2c0,0.1,0,0.1-0.1,0.2H109.7"/>
				<path id="Path_74" class="st12" d="M112.2,54.6h-0.1c-0.1,0-0.1-0.1-0.1-0.2V44.3c0-0.1,0-0.1,0.1-0.2l8.8-5.1h0.3
					c0.1,0,0.1,0.1,0.1,0.2v10.1c0,0.1,0,0.1-0.1,0.2l-8.8,5.1H112.2"/>
			</g>
		</g>
	</g>
	<g id="Premise1" transform="translate(971 1088)">
		<g id="Server2" transform="translate(0 0)">
			<path id="Path_75-2" class="st20" d="M146.9,69.7H87.8c-1.3,0-2.4,1-2.5,2.4c0,0,0,0,0,0.1v14.6c0,1.3,1.1,2.4,2.4,2.4
				c0,0,0,0,0.1,0h59.1c1.3,0,2.4-1,2.5-2.4c0,0,0,0,0-0.1V72.1C149.4,70.8,148.3,69.7,146.9,69.7C146.9,69.7,146.9,69.7,146.9,69.7
				z M90.8,86.7c-1.2,0.1-2.3-0.8-2.4-2.1s0.8-2.3,2.1-2.4c0.1,0,0.2,0,0.3,0c1.2-0.1,2.3,0.8,2.4,2.1c0.1,1.2-0.8,2.3-2.1,2.4
				C91.1,86.7,91,86.7,90.8,86.7z M144.6,85.8h-13c-0.4,0-0.7-0.4-0.7-0.8c0-0.4,0.3-0.7,0.7-0.7h12.9c0.4,0,0.7,0.4,0.7,0.8
				C145.2,85.5,144.9,85.8,144.6,85.8L144.6,85.8z M144.6,83.4h-13c-0.4,0.1-0.8-0.2-0.9-0.7c-0.1-0.4,0.2-0.8,0.7-0.9
				c0.1,0,0.1,0,0.2,0h12.9c0.4-0.1,0.8,0.2,0.9,0.7c0.1,0.4-0.2,0.8-0.7,0.9C144.7,83.4,144.6,83.4,144.6,83.4L144.6,83.4z
				 M144.6,81h-13c-0.4,0-0.7-0.4-0.7-0.8c0-0.4,0.3-0.7,0.7-0.7h12.9c0.4,0,0.8,0.3,0.8,0.7C145.4,80.6,145.1,80.9,144.6,81
				C144.6,81,144.6,81,144.6,81L144.6,81z"/>
			<path id="Path_76-2" class="st20" d="M147,47H88c-1.3,0-2.4,1-2.5,2.4c0,0,0,0.1,0,0.1v14.6c0,1.3,1.1,2.4,2.4,2.4c0,0,0,0,0.1,0
				h59c1.3,0,2.4-1,2.5-2.4c0,0,0,0,0-0.1V49.5C149.5,48.2,148.4,47.1,147,47C147.1,47,147,47,147,47z M91,64.1
				c-1.2,0.1-2.3-0.8-2.4-2.1c-0.1-1.2,0.8-2.3,2.1-2.4c0.1,0,0.2,0,0.3,0c1.2-0.1,2.3,0.8,2.4,2.1c0.1,1.2-0.8,2.3-2.1,2.4
				C91.2,64.1,91.1,64.1,91,64.1z M144.7,63.2h-12.9c-0.4,0-0.7-0.4-0.7-0.8c0-0.4,0.3-0.7,0.7-0.7h12.9c0.4,0,0.7,0.4,0.7,0.8
				C145.4,62.8,145.1,63.1,144.7,63.2z M144.7,60.7h-12.9c-0.4,0-0.7-0.3-0.8-0.7c0,0,0-0.1,0-0.1c0-0.4,0.3-0.8,0.7-0.8
				c0,0,0,0,0.1,0h12.9c0.4,0,0.7,0.3,0.8,0.7c0,0,0,0.1,0,0.1c0,0.4-0.2,0.7-0.6,0.8C144.8,60.8,144.7,60.8,144.7,60.7L144.7,60.7z
				 M144.7,58.3h-12.9c-0.4,0-0.7-0.4-0.7-0.8c0-0.4,0.3-0.7,0.7-0.7h12.9c0.4,0,0.7,0.4,0.7,0.8C145.4,58,145.1,58.3,144.7,58.3z"
				/>
			<path id="Path_77-2" class="st20" d="M147.2,24.9H88.1c-1.3,0-2.4,1-2.4,2.4c0,0,0,0,0,0v14.6c0,1.3,1.1,2.4,2.4,2.4c0,0,0,0,0,0
				h59.1c1.3,0,2.4-1,2.5-2.4c0,0,0,0,0-0.1V27.3C149.6,26,148.6,24.9,147.2,24.9C147.2,24.9,147.2,24.9,147.2,24.9z M91.1,41.9
				c-1.3,0-2.3-1-2.3-2.3c0-1.2,1-2.2,2.3-2.3c1.2,0,2.3,1,2.3,2.3C93.3,40.9,92.3,41.9,91.1,41.9L91.1,41.9z M144.9,41h-13
				c-0.4,0-0.7-0.3-0.8-0.7c0,0,0-0.1,0-0.1c0-0.4,0.3-0.7,0.7-0.8c0,0,0.1,0,0.1,0h12.9c0.4,0,0.7,0.3,0.8,0.7c0,0,0,0.1,0,0.1
				C145.6,40.7,145.3,41,144.9,41C144.9,41,144.9,41,144.9,41L144.9,41z M144.9,38.6h-13c-0.4,0-0.7-0.4-0.7-0.8
				c0-0.4,0.3-0.7,0.7-0.7h12.9c0.4,0,0.7,0.4,0.7,0.8C145.5,38.3,145.2,38.6,144.9,38.6L144.9,38.6z M144.9,36.2h-13
				c-0.4,0-0.7-0.4-0.7-0.8c0-0.4,0.3-0.7,0.7-0.7h12.9c0.4,0,0.7,0.4,0.7,0.8C145.5,35.9,145.2,36.2,144.9,36.2L144.9,36.2z"/>
		</g>
		<g id="VM2" transform="translate(7 -49)">
			<g id="Layer_1-2-2">
				<path id="Path_70-2" class="st19" d="M132.4,24.9H88.1c-1.5,0-2.7,1.3-2.7,2.8v30.9c0,1.5,1.2,2.8,2.7,2.8h16.1
					c1.6,5.8-0.6,6.6-10.2,6.6v3h32.6v-3c-9.6,0-10.6-0.8-8.9-6.6h14.7c1.6,0,2.9-1.2,3-2.8V27.7C135.3,26.1,134,24.9,132.4,24.9z"
					/>
				<path id="Path_71-2" class="st16" d="M131.5,28.7v28.9H89.2V28.7H131.5z"/>
				<path id="Path_72-2" class="st12" d="M110.9,42.3L110.9,42.3l-8.9-5.1c-0.1,0-0.1-0.1-0.1-0.2c0-0.1,0-0.1,0.1-0.2l8.8-5h0.3
					l8.8,5.1c0.1,0,0.1,0.1,0.1,0.2c0,0.1,0,0.2-0.1,0.2l-8.7,5H110.9"/>
				<path id="Path_73-2" class="st12" d="M109.7,54.6h-0.1l-8.8-5.1c-0.1,0-0.1-0.1-0.1-0.2V39.1c0-0.1,0-0.1,0.1-0.2h0.3l8.8,5.1
					c0.1,0,0.1,0.1,0.1,0.2v10.2c0,0.1,0,0.1-0.1,0.2H109.7"/>
				<path id="Path_74-2" class="st12" d="M112.2,54.6h-0.1c-0.1,0-0.1-0.1-0.1-0.2V44.3c0-0.1,0-0.1,0.1-0.2l8.8-5.1h0.3
					c0.1,0,0.1,0.1,0.1,0.2v10.1c0,0.1,0,0.1-0.1,0.2l-8.8,5.1H112.2"/>
			</g>
		</g>
	</g>
</g>
</svg>
