<svg xmlns="http://www.w3.org/2000/svg" xmlns:xlink="http://www.w3.org/1999/xlink" width="178" height="143" viewBox="0 0 178 143">
  <defs>
    <clipPath id="clip-path">
      <rect width="103.4" height="69" fill="none"/>
    </clipPath>
  </defs>
  <g id="IT_Operation" transform="translate(-511 -1313)">
    <rect id="Rectangle_7" data-name="Rectangle 7" width="178" height="19" transform="translate(511 1388)" fill="#2471a3"/>
    <g id="Rectangle_8" data-name="Rectangle 8" transform="translate(523 1407)" fill="#2471a3" stroke="#707070" stroke-width="1">
      <rect width="21" height="49" stroke="none"/>
      <rect x="0.5" y="0.5" width="20" height="48" fill="none"/>
    </g>
    <g id="Rectangle_9" data-name="Rectangle 9" transform="translate(653 1407)" fill="#2471a3" stroke="#707070" stroke-width="1">
      <rect width="21" height="49" stroke="none"/>
      <rect x="0.5" y="0.5" width="20" height="48" fill="none"/>
    </g>
    <g id="layer1" transform="translate(560 1313)" clip-path="url(#clip-path)">
      <g id="g4305">
        <g id="g4345">
          <g id="text2994">
            <g id="g3830">
              <g id="g3838">
                <g id="g3785">
                  <path id="rect3909" d="M78.358,101v8.9H103.4V101ZM0,112.129v50.748H74.319V112.129Zm78.358,0v8.9H103.4v-8.9ZM4.847,117.471H69.472v40.065H4.847Zm73.511,5.787v8.9H103.4v-8.9Zm0,11.129V170H103.4V134.387Zm9.492,20.032h6.059V161.1H87.85v-6.677ZM21,164.658l-3.231,3.561V170H56.547v-1.781l-3.231-3.561Z" transform="translate(0 -101)" fill="#2471a3"/>
                </g>
              </g>
            </g>
          </g>
        </g>
      </g>
    </g>
  </g>
</svg>
