<?xml version="1.0" encoding="utf-8"?>
<!-- Generator: Adobe Illustrator 23.0.1, SVG Export Plug-In . SVG Version: 6.00 Build 0)  -->
<svg version="1.1" id="Layer_1" xmlns="http://www.w3.org/2000/svg" xmlns:xlink="http://www.w3.org/1999/xlink" x="0px" y="0px"
	 viewBox="0 0 1300 768" style="enable-background:new 0 0 1300 768;" xml:space="preserve">
<style type="text/css">
	.st0{fill:#FFFFFF;stroke:#000000;stroke-miterlimit:10;}
	.st1{fill:#1A6DA8;}
</style>
<path class="st0" d="M249.5,412.5"/>
<path class="st1" d="M647.8,904.2c8.2,0,16.2-0.5,24.2-1.4"/>
<path class="st1" d="M1304,771c0-99.7-70.9-166.8-178.4-166.8c-64.4,0-121.4,29-156.8,73.7c-33.1-24.2-74.9-38.7-120.4-38.7
	c-8.2,0-16.2,0.5-24.2,1.4c-30.9-61.6-98.3-104.4-176.4-104.4c-59.8,0-113.2,25-148.9,64.3c-34.6-29.4-80.7-47.3-131.3-47.3
	c-61,0-115.5,26.1-151.2,66.9c-9.2-1.2-18.7-1.9-28.2-1.9C80.8,618.2,0,672.3,0,772"/>
<path class="st1" d="M1005.3,933.5"/>
</svg>
