<svg xmlns="http://www.w3.org/2000/svg" width="200" height="126.697" viewBox="0 0 200 126.697">
  <g id="Project" transform="translate(0 -36.65)">
    <path id="Path_89" data-name="Path 89" d="M167.353,105.032,147.73,65.686a4.093,4.093,0,0,0-.89-1.179,3.717,3.717,0,0,0-1.233-.743l-23.01-8.27a14.6,14.6,0,0,0-10.2.1l-17.459,6.66a37.255,37.255,0,0,0-3.652,1.625c-.4.208-.8.433-1.19.654a32.436,32.436,0,0,0-4.13-1.878,31.6,31.6,0,0,0-13.809-1.9L60.415,61.761a3.585,3.585,0,0,0-1.509.485,3.866,3.866,0,0,0-1.193,1.11L31.265,101.007a4.227,4.227,0,0,0-.747,2.8,4.148,4.148,0,0,0,1.2,2.61l11.5,11.4a9.339,9.339,0,0,0,7.6,13.787c.133.009.268.009.4.014a9.319,9.319,0,0,0,8.292,12.116,9.341,9.341,0,0,0,8.65,12.878,9.262,9.262,0,0,0,6.6-2.744,9.368,9.368,0,0,0,8.63,7.908c.2.014.415.023.62.023a9.259,9.259,0,0,0,3.242-.593,9.585,9.585,0,0,0,5.731,1.627,9.793,9.793,0,0,0,6.63-3.029l-6.327-6.313c.015-.146.042-.286.048-.437a9.329,9.329,0,0,0-.457-3.555l12.949,12.916a12.562,12.562,0,0,0,5.264.923,13.029,13.029,0,0,0,9.345-4.609l1.3-1.5a2.085,2.085,0,0,0,.292-.474l-19.937-19.882a1.411,1.411,0,0,1-.1-1.889,1.187,1.187,0,0,1,1.759-.039l23.711,23.645a11.015,11.015,0,0,0,4.112.615,11.454,11.454,0,0,0,8.22-4.057l3.131-3.624a4.658,4.658,0,0,0,1.106-3.19l-20.807-20.744a1.417,1.417,0,0,1-.1-1.888,1.186,1.186,0,0,1,1.759-.04L145.792,146.5a9,9,0,0,0,2.685.3,9.363,9.363,0,0,0,6.729-3.321l.841-.974a10.952,10.952,0,0,0-.512-14.69l-5.581-5.564,1.41,1.4,15.09-13.626a4.086,4.086,0,0,0,1.276-2.331A4.307,4.307,0,0,0,167.353,105.032ZM51.08,127.569a5.311,5.311,0,0,1,.341-10.61c.118,0,.238,0,.356.01a5.311,5.311,0,1,1-.7,10.6Zm9.047,12.15a5.31,5.31,0,0,1-3.914-8.9c.1-.1,2.173-2.3,3.167-3.343l.522-.555a5.311,5.311,0,1,1,7.716,7.3l-1.478,1.563c-.316.332-.655.691-1,1.057-.055.062-.116.124-.169.182l-.663.7c-.1.109-.2.218-.306.324-.026.027-.046.05-.048.053A5.257,5.257,0,0,1,60.127,139.719Zm11.857,11.226a5.309,5.309,0,0,1-7.473.169,5.323,5.323,0,0,1-.271-7.438c.046-.05,1.263-1.338,2.642-2.793h0l1.024-1.081c1.793-1.9,2.381-2.515,2.579-2.73a.89.89,0,0,0,.069-.068h0l0,0c.173-.187.274-.291.277-.294a5.311,5.311,0,1,1,7.711,7.305C78.451,144.111,72.189,150.727,71.984,150.945Zm11.676,6.8A5.312,5.312,0,0,1,84,147.133c.118,0,.238,0,.356.011a5.312,5.312,0,0,1-.695,10.6Zm64.925-36.851-41.334-41.21h0l.466-1.177a2.259,2.259,0,0,0-.143-1.949,1.943,1.943,0,0,0-1.566-.995l-3.072-.184h0l-3.356-.2-.255,3.978a46.23,46.23,0,0,1-5.281,17.3c-4.729,8.387-10.995,11.279-11.95,11.465a17.545,17.545,0,0,1-3.116.4,3.64,3.64,0,0,1-1.552-.283l-1.569-.727a2.771,2.771,0,0,1-1.425-1.579,3.041,3.041,0,0,1,0-2.129l15.721-34.5,2.673-1.761,1.077-.41h0L113.659,59.4a11.113,11.113,0,0,1,3.864-.733h.11a11.1,11.1,0,0,1,3.768.66l23.011,8.27,19.625,39.345Z" fill="#2471a3"/>
    <path id="Path_90" data-name="Path 90" d="M170.949,40.557,155.415,48.3a9.768,9.768,0,0,0-4.381,13.1l20.339,40.775a9.77,9.77,0,0,0,13.1,4.379L200,98.805Zm13.48,58.272a3.742,3.742,0,1,1,3.745-3.739A3.741,3.741,0,0,1,184.429,98.829Z" fill="#2471a3"/>
    <path id="Path_91" data-name="Path 91" d="M0,89.914l14.2,9.977a9.763,9.763,0,0,0,13.6-2.376L53.995,60.229a9.764,9.764,0,0,0-2.374-13.6l-14.2-9.975ZM12.25,88a3.742,3.742,0,1,1,3.142,4.258A3.743,3.743,0,0,1,12.25,88Z" fill="#2471a3"/>
  </g>
</svg>
