<svg xmlns="http://www.w3.org/2000/svg" viewBox="0 0 43.84 75.3"><defs><style>.cls-1{fill:#22728e;}.cls-2{fill:#215c6d;}.cls-3{fill:#33a0da;}.cls-4{fill:#2995c4;}.cls-5{fill:#fff;}.cls-6{fill:#d1ebfa;}</style></defs><title>Asset 1ldpi</title><g id="Layer_2" data-name="Layer 2"><g id="Layer_1-2" data-name="Layer 1"><path class="cls-1" d="M22.14,60.63A21.92,21.92,0,0,0,1.21,73.81a23,23,0,0,1-1.2-8,21.92,21.92,0,1,1,43.82,1.6,23,23,0,0,1-1.78,7.93A22,22,0,0,0,22.14,60.63Z"/><path class="cls-2" d="M17.11,45.24l-.65,15.9A22,22,0,0,0,1.21,73.81a23,23,0,0,1-1.2-8A21.87,21.87,0,0,1,17.11,45.24Z"/><path class="cls-3" d="M22,63.46a25.28,25.28,0,0,0-7.74.92C11,57,9.11,47.35,9.48,37c.6-16.4,6.63-30.33,14.87-37,7.8,7.21,12.72,21.62,12.13,38a62.72,62.72,0,0,1-6.79,26.92A25.71,25.71,0,0,0,22,63.46Z"/><path class="cls-4" d="M24.27.07l.07.08L22,63.46h-.14a25.28,25.28,0,0,0-7.74.92C10.81,57,9,47.35,9.34,37,10,20.71,16,6.7,24.27.07Z"/><path class="cls-1" d="M23.78,15.55c-3.39-.12-6.72-.17-10,0C16.45,8.85,20.11,3.53,24.35,0c4,3.82,7.23,9.39,9.38,16.26C30.42,15.93,27.17,15.67,23.78,15.55Z"/><path class="cls-2" d="M24.41.08l-.63,15.47h-.14c-3.39-.13-6.72-.18-10,0C16.31,8.84,20,3.53,24.21,0A.3.3,0,0,1,24.41.08Z"/><path class="cls-1" d="M22.76,43.39c1.67,3,2.58,8.94,2.33,15.72S23.5,71.79,21.63,74.63c-1.66-3-2.58-8.94-2.33-15.73S20.89,46.23,22.76,43.39Z"/><path class="cls-2" d="M22.76,43.53l-1.13,31-.15.14c-1.66-3-2.57-8.94-2.32-15.72s1.59-12.68,3.46-15.51C22.76,43.39,22.83,43.47,22.76,43.53Z"/><path class="cls-1" d="M23,37.6a7.64,7.64,0,1,0-7.36-7.91A7.62,7.62,0,0,0,23,37.6Z"/><path class="cls-5" d="M23.38,24.66a5.3,5.3,0,1,1-5.5,5.11,5.46,5.46,0,0,1,5.5-5.11Z"/><path class="cls-2" d="M23.46,22.4h0l0,2.34H23.3a5.3,5.3,0,1,0-.38,10.6h.14L23,37.6h-.15a7.6,7.6,0,0,1-7.35-7.91A7.7,7.7,0,0,1,23.46,22.4Z"/><path class="cls-6" d="M17.88,29.77a5.26,5.26,0,0,1,5.5-5.11h.14l-.39,10.6H23A5.44,5.44,0,0,1,17.88,29.77Z"/></g></g></svg>