<svg xmlns="http://www.w3.org/2000/svg" viewBox="0 0 29.81 29.1"><defs><style>.cls-1{fill:#2372ba;}.cls-2{fill:#2073b7;}</style></defs><title>sharepointhdpi</title><g id="Layer_2" data-name="Layer 2"><g id="Layer_1-2" data-name="Layer 1"><path class="cls-1" d="M0,2.8V26.4l17.3,2.7V0ZM11.4,17.9c-.7,2.3-3.8,2.5-5.6,1.5-.3-.2-.4-.2-.4-.5V16.7a3.75,3.75,0,0,0,2.1,1.2c.6.1,1.4.1,1.7-.5.7-1.5-1.5-2.2-2.3-2.8a3.51,3.51,0,0,1-1.4-3.9A3.55,3.55,0,0,1,8.8,8.3a12.12,12.12,0,0,1,2,.1c.2,0,.3,0,.3.2v2.3c-.8-.6-2.4-1.2-3.3-.4a1.24,1.24,0,0,0-.3,1.4c.2.5.6.7,1,1A7.56,7.56,0,0,1,11,14.8,3.16,3.16,0,0,1,11.4,17.9Z"/><path class="cls-2" d="M27.1,11.8a.75.75,0,0,0-.5.1,7.58,7.58,0,0,0-4.3-4.3,4.33,4.33,0,0,1,.1-.5,2.86,2.86,0,0,0-2.8-2.8,2.5,2.5,0,0,0-1.4.4v5a2.89,2.89,0,0,0,1.4.4,3.33,3.33,0,0,0,2.1-.9,5.94,5.94,0,0,1,3.5,3.6,3.12,3.12,0,0,0-.9,2.1,3.33,3.33,0,0,0,.9,2.1,6.21,6.21,0,0,1-3.5,3.6,3.12,3.12,0,0,0-2.1-.9,2.5,2.5,0,0,0-1.4.4v5a2.89,2.89,0,0,0,1.4.4,2.86,2.86,0,0,0,2.8-2.8.75.75,0,0,0-.1-.5,7.42,7.42,0,0,0,4.2-4.3,4.33,4.33,0,0,1,.5.1,2.86,2.86,0,0,0,2.8-2.8C29.9,13.1,28.7,11.8,27.1,11.8Z"/></g></g></svg>