<svg xmlns="http://www.w3.org/2000/svg" width="171.262" height="191.202" viewBox="0 0 171.262 191.202">
  <g id="Sys_Operation" data-name="Sys Operation" transform="translate(-118 -1331.057)">
    <g id="Laptop" transform="translate(-49.288 1267.169)">
      <g id="Laptop-2" data-name="Laptop" transform="translate(176.288 169.1)">
        <path id="Path_78" data-name="Path 78" d="M249.567,211.057V173.968c0-1.838-1.562-4.868-3.433-4.868H186.426c-1.871,0-3.742,3.03-3.742,4.868v37.089c-6.7,7.723-6.394,7.723-6.394,7.723a4,4,0,0,0,4.214,3.852h71.569a4.111,4.111,0,0,0,4.214-3.852l-6.721-7.723Zm-27.756,8.387H209.332c-.618,0-1.253-.332-1.253-.665l1.4-2.522c0-.332.472-.508,1.09-.508h9.972c.472,0,.945.176.945.508l1.562,2.522c.018.489-.618.665-1.235.665Zm24.795-8.563H185.645V174.3c0-.841.781-2.014,1.707-2.014h57.691c.945,0,1.562,1.173,1.562,2.014v36.58Z" transform="translate(-176.288 -169.1)" fill="#2471a3"/>
      </g>
      <g id="sc1" transform="translate(190.288 179.831)" fill="#2471a3" stroke="#2471a3" stroke-width="1">
        <rect width="21" height="11" stroke="none"/>
        <rect x="0.5" y="0.5" width="20" height="10" fill="none"/>
      </g>
      <g id="sc2" transform="translate(190.288 192.831)" fill="#2471a3" stroke="#2471a3" stroke-width="1">
        <rect width="35" height="16" stroke="none"/>
        <rect x="0.5" y="0.5" width="34" height="15" fill="none"/>
      </g>
    </g>
    <g id="Servers" transform="translate(223.1 1320.8)">
      <g id="Svr1">
        <g id="Group_10" data-name="Group 10">
          <path id="Path_81" data-name="Path 81" d="M60.9,35.2H22.5a1.58,1.58,0,0,0-1.6,1.6v9.7a1.58,1.58,0,0,0,1.6,1.6H60.9a1.58,1.58,0,0,0,1.6-1.6V36.8A1.58,1.58,0,0,0,60.9,35.2ZM24.4,46.5A1.5,1.5,0,1,1,25.9,45,1.473,1.473,0,0,1,24.4,46.5Zm35-.5H51a.5.5,0,0,1,0-1h8.4a.472.472,0,0,1,.5.5A.536.536,0,0,1,59.4,46Zm0-1.7H51a.5.5,0,0,1,0-1h8.4a.5.5,0,0,1,0,1Zm0-1.6H51a.5.5,0,0,1,0-1h8.4a.5.5,0,0,1,0,1Z" fill="#2471a3"/>
        </g>
      </g>
      <g id="Svr2" transform="translate(0 15)">
        <g id="Group_10-2" data-name="Group 10">
          <path id="Path_81-2" data-name="Path 81" d="M60.9,35.2H22.5a1.58,1.58,0,0,0-1.6,1.6v9.7a1.58,1.58,0,0,0,1.6,1.6H60.9a1.58,1.58,0,0,0,1.6-1.6V36.8A1.58,1.58,0,0,0,60.9,35.2ZM24.4,46.5A1.5,1.5,0,1,1,25.9,45,1.473,1.473,0,0,1,24.4,46.5Zm35-.5H51a.5.5,0,0,1,0-1h8.4a.472.472,0,0,1,.5.5A.536.536,0,0,1,59.4,46Zm0-1.7H51a.5.5,0,0,1,0-1h8.4a.5.5,0,0,1,0,1Zm0-1.6H51a.5.5,0,0,1,0-1h8.4a.5.5,0,0,1,0,1Z" fill="#2471a3"/>
        </g>
      </g>
      <g id="Svr3" transform="translate(0 30)">
        <g id="Group_10-3" data-name="Group 10">
          <path id="Path_81-3" data-name="Path 81" d="M60.9,35.2H22.5a1.58,1.58,0,0,0-1.6,1.6v9.7a1.58,1.58,0,0,0,1.6,1.6H60.9a1.58,1.58,0,0,0,1.6-1.6V36.8A1.58,1.58,0,0,0,60.9,35.2ZM24.4,46.5A1.5,1.5,0,1,1,25.9,45,1.473,1.473,0,0,1,24.4,46.5Zm35-.5H51a.5.5,0,0,1,0-1h8.4a.472.472,0,0,1,.5.5A.536.536,0,0,1,59.4,46Zm0-1.7H51a.5.5,0,0,1,0-1h8.4a.5.5,0,0,1,0,1Zm0-1.6H51a.5.5,0,0,1,0-1h8.4a.5.5,0,0,1,0,1Z" fill="#2471a3"/>
        </g>
      </g>
      <g id="SvrComponent" transform="translate(-281.8 -235.8)">
        <g id="Group_9" data-name="Group 9">
          <path id="Path_79" data-name="Path 79" d="M344.7,324.7h-13a2.658,2.658,0,0,0-2.3-1.2h-2.3V316h-8v7.5h-2.3a3.037,3.037,0,0,0-2.1,1.2h-13v6.8h13a2.736,2.736,0,0,0,2.3,1.3h12.5a2.645,2.645,0,0,0,2.3-1.3h13v-6.8Z" fill="#2471a3"/>
          <g id="Group_8" data-name="Group 8">
            <rect id="Rectangle_5" data-name="Rectangle 5" width="11.3" height="3.8" transform="translate(303.2 326.2)" fill="#2471a3"/>
            <path id="Path_80" data-name="Path 80" d="M329.5,325h-3.8v-7.5h-5V325H317s-1.3.2-1.3,1.2v3.7s.2,1.2,1.3,1.2h12.5c1.1,0,1.3-1.2,1.3-1.2v-3.7C330.7,326.2,330.6,325,329.5,325Z" fill="#2471a3"/>
            <rect id="Rectangle_6" data-name="Rectangle 6" width="11.3" height="3.8" transform="translate(332 326.2)" fill="#2471a3"/>
          </g>
        </g>
      </g>
    </g>
    <path id="LAN" d="M654.334,1535.8s1.947,46.289,34.109,25.657,7.58-36.573,7.58-36.573-20.391-38.631,24.066-26.719,17.623-15.785,17.623-15.785l-10.043-8.092-7.58-17.813" transform="translate(-458 -46)" fill="none" stroke="#2471a3" stroke-width="3"/>
    <g id="Cloud" transform="translate(-156.571 1128.995)">
      <g id="Layer_1-2" data-name="Layer 1-2" transform="translate(275.571 203.062)">
        <g id="paths">
          <g id="Internet">
            <path id="Path_37" data-name="Path 37" d="M329.476,240.238H284.963c-5.185,0-9.392-4.7-9.392-10.371s4.207-10.37,9.392-10.37a3.991,3.991,0,0,1,1.076.1,8.258,8.258,0,0,1,7.142-4.4,6.582,6.582,0,0,1,2.348.392v-.392c0-6.75,4.892-12.131,10.957-12.131a10.879,10.879,0,0,1,9.881,7.044,9.783,9.783,0,0,1,5.185-1.565c5.87,0,10.566,5.283,10.566,11.74a13.321,13.321,0,0,1-.2,1.957,9.372,9.372,0,0,1,5.185,8.609,9.2,9.2,0,0,1-6.457,9.1Z" transform="translate(-275.571 -203.062)" fill="none" stroke="#2471a3" stroke-miterlimit="10" stroke-width="2"/>
          </g>
        </g>
      </g>
    </g>
    <g id="Sync" transform="translate(0 -2)">
      <g id="Ellipse_38" data-name="Ellipse 38" transform="translate(194 1376)" fill="#f1f1f1" stroke="#2471a3" stroke-width="1">
        <circle cx="7.5" cy="7.5" r="7.5" stroke="none"/>
        <circle cx="7.5" cy="7.5" r="7" fill="none"/>
      </g>
      <g id="Group_12" data-name="Group 12" transform="translate(-1)">
        <line id="Line_25" data-name="Line 25" x1="2.5" y2="2.5" transform="translate(200.5 1374.5)" fill="none" stroke="#2471a3" stroke-width="1"/>
        <line id="Line_26" data-name="Line 26" x1="2.5" y1="2.5" transform="translate(200.5 1377)" fill="none" stroke="#2471a3" stroke-width="1"/>
      </g>
    </g>
    <g id="Group_11" data-name="Group 11" transform="translate(2 -3)">
      <line id="Line_27" data-name="Line 27" x2="2.5" y2="2.5" transform="translate(199.5 1388.5)" fill="none" stroke="#2471a3" stroke-width="1"/>
      <line id="Line_28" data-name="Line 28" y1="2.5" x2="2.5" transform="translate(199.5 1391)" fill="none" stroke="#2471a3" stroke-width="1"/>
    </g>
    <path id="Path_87" data-name="Path 87" d="M309.494,1459.269H261.78v-24.987" transform="translate(-60.28 -45.794)" fill="none" stroke="#2471a3" stroke-width="1"/>
    <path id="Path_88" data-name="Path 88" d="M256,1414.75H217.625v-12.6" transform="translate(-62 -34)" fill="none" stroke="#2471a3" stroke-width="1"/>
  </g>
</svg>
