<?xml version="1.0" encoding="utf-8"?>
<!-- Generator: Adobe Illustrator 23.0.1, SVG Export Plug-In . SVG Version: 6.00 Build 0)  -->
<svg version="1.1" id="Layer_1" xmlns="http://www.w3.org/2000/svg" xmlns:xlink="http://www.w3.org/1999/xlink" x="0px" y="0px"
	 viewBox="0 0 1366 768" style="enable-background:new 0 0 1366 768;" xml:space="preserve">
<style type="text/css">
	.st0{fill:#2471A3;}
	.st1{fill:#2471A3;stroke:#2471A3;stroke-width:4;stroke-miterlimit:10;}
</style>
<path class="st0" d="M1368,768.1c0-91.8-74.4-153.5-187.2-153.5c-67.6,0-127.4,26.7-164.5,67.8c-34.7-22.3-78.6-35.6-126.3-35.6
	c-8.6,0-17,0.5-25.4,1.3C832.2,591.4,761.5,552,679.6,552c-62.7,0-118.8,23-156.2,59.2c-36.3-27.1-84.7-43.5-137.7-43.5
	c-64,0-121.2,24-158.6,61.6c-9.7-1.1-19.6-1.7-29.6-1.7C84.8,627.5,0,677.2,0,769"/>
<line class="st1" x1="1022" y1="2" x2="1023" y2="152"/>
<ellipse class="st0" cx="1024" cy="182" rx="35" ry="32"/>
</svg>
