<svg xmlns="http://www.w3.org/2000/svg" xmlns:xlink="http://www.w3.org/1999/xlink" width="244" height="164" viewBox="0 0 244 164">
  <defs>
    <clipPath id="clip-path">
      <rect width="244" height="164" fill="none"/>
    </clipPath>
  </defs>
  <g id="The_earth" data-name="The earth" clip-path="url(#clip-path)">
    <g id="Earth" transform="translate(-735 -142.5)">
      <path id="Path_93" data-name="Path 93" d="M843,200.5a15,15,0,1,1,15-15h0A14.98,14.98,0,0,1,843,200.5Zm0-28a13,13,0,1,0,13,13A12.974,12.974,0,0,0,843,172.5Z" fill="#cac4c4"/>
      <path id="Path_94" data-name="Path 94" d="M815,238.5a11,11,0,1,1,11-11h0A10.968,10.968,0,0,1,815,238.5Zm0-20a9,9,0,1,0,9,9A8.963,8.963,0,0,0,815,218.5Z" fill="#cac4c4"/>
      <path id="Path_95" data-name="Path 95" d="M877,291.5a11,11,0,1,1,11-11h0A10.968,10.968,0,0,1,877,291.5Zm0-20a9,9,0,1,0,9,9h0A8.963,8.963,0,0,0,877,271.5Z" fill="#cac4c4"/>
      <path id="Path_96" data-name="Path 96" d="M857,306.5a82,82,0,1,1,82-82h0A82.112,82.112,0,0,1,857,306.5Zm0-162a80,80,0,1,0,80,80,79.978,79.978,0,0,0-80-80Z" fill="#cac4c4"/>
    </g>
    <path id="Path_97" data-name="Path 97" d="M857,257.5c-68.4,0-122-14.5-122-33,0-10.8,15.9-20,44.8-26.1l.4,2c-27.5,5.7-43.2,14.5-43.2,24.1,0,16.8,55,31,120,31s120-14.2,120-31c0-9.6-15.8-18.4-43.3-24.2l.4-2c29,6,44.9,15.3,44.9,26.1C979,243,925.4,257.5,857,257.5Z" transform="translate(-735 -142.5)" fill="#cac4c4"/>
  </g>
</svg>
